<?xml version="1.0" encoding="utf-8"?>
<!-- Generator: Adobe Illustrator 24.2.0, SVG Export Plug-In . SVG Version: 6.00 Build 0)  -->
<svg version="1.1" xmlns="http://www.w3.org/2000/svg" xmlns:xlink="http://www.w3.org/1999/xlink" x="0px" y="0px"
	 viewBox="0 0 26 26" style="enable-background:new 0 0 26 26;" xml:space="preserve">
<style type="text/css">
	.st0{fill:#FBFCFD;}
	.st1{fill:#EEF1F3;}
	.st2{fill:#08C6B5;}
	.st3{opacity:0.15;clip-path:url(#SVGID_2_);}
	.st4{fill:#FFFFFF;}
	.st5{opacity:0.35;clip-path:url(#SVGID_2_);}
	.st6{clip-path:url(#SVGID_4_);fill:#08C6B5;}
	.st7{fill-rule:evenodd;clip-rule:evenodd;fill:#08C6B5;}
	.st8{fill-rule:evenodd;clip-rule:evenodd;fill:#F5F5F5;}
	.st9{fill:#F5F5F5;}
	.st10{opacity:0.25;}
	.st11{fill:none;stroke:#A4A4A4;stroke-width:2;stroke-miterlimit:10;}
	.st12{fill-rule:evenodd;clip-rule:evenodd;}
	.st13{opacity:0.75;}
	.st14{fill:none;stroke:#08C6B5;stroke-miterlimit:10;}
	.st15{fill-rule:evenodd;clip-rule:evenodd;fill:#07A490;}
	.st16{fill:none;stroke:#FFFFFF;stroke-miterlimit:10;}
	.st17{opacity:0.1;}
	.st18{opacity:0.2;clip-path:url(#SVGID_8_);}
	.st19{opacity:0.2;clip-path:url(#SVGID_10_);}
	.st20{opacity:0.15;clip-path:url(#SVGID_12_);}
	.st21{opacity:0.35;clip-path:url(#SVGID_12_);}
	.st22{opacity:0.15;clip-path:url(#SVGID_16_);}
	.st23{opacity:0.35;clip-path:url(#SVGID_16_);}
	.st24{opacity:0.15;clip-path:url(#SVGID_18_);}
	.st25{opacity:0.35;clip-path:url(#SVGID_18_);}
	.st26{opacity:0.15;clip-path:url(#SVGID_20_);}
	.st27{opacity:0.35;clip-path:url(#SVGID_20_);}
	.st28{opacity:0.15;clip-path:url(#SVGID_28_);}
	.st29{opacity:0.35;clip-path:url(#SVGID_28_);}
	.st30{opacity:0.15;clip-path:url(#SVGID_30_);}
	.st31{opacity:0.35;clip-path:url(#SVGID_30_);}
	.st32{opacity:0.15;clip-path:url(#SVGID_32_);}
	.st33{opacity:0.35;clip-path:url(#SVGID_32_);}
	.st34{fill:#E2E7E9;}
	.st35{opacity:0.35;clip-path:url(#SVGID_34_);}
	.st36{opacity:0.15;clip-path:url(#SVGID_34_);}
	.st37{fill:#272525;}
	.st38{opacity:0.35;clip-path:url(#SVGID_36_);}
	.st39{opacity:0.15;clip-path:url(#SVGID_36_);}
	.st40{opacity:0.35;clip-path:url(#SVGID_38_);}
	.st41{fill:none;stroke:#000000;stroke-miterlimit:10;}
	.st42{opacity:0.35;clip-path:url(#SVGID_40_);}
	.st43{opacity:0.15;clip-path:url(#SVGID_40_);}
	.st44{fill:none;stroke:#A4A4A4;stroke-miterlimit:10;}
	.st45{fill-rule:evenodd;clip-rule:evenodd;fill:#FFFFFF;}
	.st46{fill-rule:evenodd;clip-rule:evenodd;fill:none;stroke:#F5F5F5;stroke-miterlimit:10;}
	
		.st47{fill-rule:evenodd;clip-rule:evenodd;fill:none;stroke:#9D9D9D;stroke-linecap:round;stroke-linejoin:round;stroke-miterlimit:10;}
	.st48{clip-path:url(#SVGID_76_);fill:#08C6B5;}
	.st49{clip-path:url(#SVGID_76_);}
	.st50{fill-rule:evenodd;clip-rule:evenodd;fill:none;stroke:#FFFFFF;stroke-miterlimit:10;}
	.st51{opacity:0.35;clip-path:url(#SVGID_82_);}
	.st52{opacity:0.35;clip-path:url(#SVGID_84_);}
	.st53{opacity:0.15;clip-path:url(#SVGID_84_);}
	.st54{clip-path:url(#SVGID_88_);}
	.st55{clip-path:url(#SVGID_88_);fill:#FFFFFF;}
	.st56{clip-path:url(#SVGID_96_);fill:#08C6B5;}
	.st57{clip-path:url(#SVGID_98_);fill:#FFFFFF;}
	.st58{clip-path:url(#SVGID_100_);fill:#08C6B5;}
	.st59{clip-path:url(#SVGID_100_);}
	.st60{clip-path:url(#SVGID_104_);fill:#08C6B5;}
	.st61{clip-path:url(#SVGID_104_);}
	.st62{opacity:0.15;clip-path:url(#SVGID_108_);}
	.st63{opacity:0.35;clip-path:url(#SVGID_108_);}
	.st64{clip-path:url(#SVGID_110_);fill:#08C6B5;}
	.st65{clip-path:url(#SVGID_110_);}
	.st66{opacity:0.15;clip-path:url(#SVGID_114_);}
	.st67{opacity:0.35;clip-path:url(#SVGID_114_);}
	.st68{clip-path:url(#SVGID_116_);fill:#08C6B5;}
	.st69{clip-path:url(#SVGID_116_);}
	.st70{opacity:0.15;clip-path:url(#SVGID_120_);}
	.st71{opacity:0.35;clip-path:url(#SVGID_120_);}
	.st72{clip-path:url(#SVGID_122_);fill:#08C6B5;}
	.st73{clip-path:url(#SVGID_124_);fill:#FFFFFF;}
	.st74{fill:none;stroke:#FFFFFF;stroke-width:2;stroke-miterlimit:10;}
	.st75{opacity:0.35;clip-path:url(#SVGID_136_);}
	.st76{opacity:0.15;clip-path:url(#SVGID_136_);}
	.st77{opacity:0.35;clip-path:url(#SVGID_138_);}
	.st78{opacity:0.35;clip-path:url(#SVGID_140_);}
	.st79{opacity:0.15;clip-path:url(#SVGID_140_);}
	.st80{opacity:0.35;clip-path:url(#SVGID_142_);}
	.st81{opacity:0.15;clip-path:url(#SVGID_142_);}
	.st82{opacity:0.35;clip-path:url(#SVGID_144_);}
	.st83{opacity:0.15;clip-path:url(#SVGID_144_);}
	.st84{opacity:0.35;clip-path:url(#SVGID_148_);}
	.st85{opacity:0.35;clip-path:url(#SVGID_150_);}
	.st86{opacity:0.15;clip-path:url(#SVGID_150_);}
	.st87{opacity:0.35;clip-path:url(#SVGID_152_);}
	.st88{opacity:0.15;clip-path:url(#SVGID_152_);}
	.st89{opacity:0.35;clip-path:url(#SVGID_154_);}
	.st90{opacity:0.15;clip-path:url(#SVGID_154_);}
	.st91{opacity:0.35;clip-path:url(#SVGID_156_);}
	.st92{opacity:0.15;clip-path:url(#SVGID_156_);}
	.st93{fill:#00ADEE;}
	.st94{display:none;}
	.st95{display:inline;}
	.st96{opacity:0.2;fill:#931127;}
</style>
<g id="Graphic">
	<g>
		<path class="st2" d="M21.2,9.6c0-0.9-0.2-1.5-0.4-2c-0.2-0.6-0.5-1.1-1-1.5c-0.4-0.4-0.9-0.7-1.5-1c-0.5-0.2-1.1-0.3-2-0.4
			c-0.9,0-1.2-0.1-3.4-0.1s-2.5,0-3.4,0c-0.9,0-1.5,0.2-2,0.4C7,5.4,6.5,5.7,6.1,6.1C5.7,6.5,5.4,7,5.2,7.6C5,8.1,4.8,8.7,4.8,9.6
			c0,0.9-0.1,1.2-0.1,3.4s0,2.5,0,3.4c0,0.9,0.2,1.5,0.4,2c0.2,0.6,0.5,1.1,1,1.5c0.4,0.4,0.9,0.7,1.5,1c0.5,0.2,1.1,0.3,2,0.4
			c0.9,0,1.2,0,3.4,0s2.5,0,3.4,0c0.9,0,1.5-0.2,2-0.4c1.1-0.4,2-1.3,2.4-2.4c0.2-0.5,0.3-1.1,0.4-2c0-0.9,0-1.2,0-3.4
			S21.3,10.5,21.2,9.6z M19.7,16.3c0,0.8-0.2,1.2-0.3,1.5c-0.3,0.7-0.9,1.3-1.6,1.6c-0.3,0.1-0.7,0.2-1.5,0.3c-0.9,0-1.1,0-3.3,0
			s-2.5,0-3.3,0c-0.8,0-1.2-0.2-1.5-0.3c-0.4-0.1-0.7-0.3-1-0.6c-0.3-0.3-0.5-0.6-0.6-1c-0.1-0.3-0.2-0.7-0.3-1.5c0-0.9,0-1.1,0-3.3
			s0-2.5,0-3.3c0-0.8,0.2-1.2,0.3-1.5c0.1-0.4,0.3-0.7,0.6-1c0.3-0.3,0.6-0.5,1-0.6c0.3-0.1,0.7-0.2,1.5-0.3c0.9,0,1.1,0,3.3,0
			c2.2,0,2.5,0,3.3,0c0.8,0,1.2,0.2,1.5,0.3c0.4,0.1,0.7,0.3,1,0.6c0.3,0.3,0.5,0.6,0.6,1c0.1,0.3,0.2,0.7,0.3,1.5
			c0,0.9,0,1.1,0,3.3S19.8,15.5,19.7,16.3z"/>
		<path class="st2" d="M13,8.7c-2.3,0-4.3,1.9-4.3,4.3s1.9,4.3,4.3,4.3c2.3,0,4.3-1.9,4.3-4.3S15.4,8.7,13,8.7z M13,15.8
			c-1.5,0-2.8-1.2-2.8-2.8s1.2-2.8,2.8-2.8c1.5,0,2.8,1.2,2.8,2.8S14.5,15.8,13,15.8z"/>
		<path class="st2" d="M18.4,8.6c0,0.5-0.4,1-1,1c-0.5,0-1-0.4-1-1c0-0.5,0.4-1,1-1C18,7.6,18.4,8,18.4,8.6z"/>
	</g>
</g>
<g id="Grid" class="st94">
</g>
</svg>
