<?xml version="1.0" encoding="utf-8"?>
<!-- Generator: Adobe Illustrator 24.2.0, SVG Export Plug-In . SVG Version: 6.00 Build 0)  -->
<svg version="1.1" xmlns="http://www.w3.org/2000/svg" xmlns:xlink="http://www.w3.org/1999/xlink" x="0px" y="0px"
	 viewBox="0 0 70 70" style="enable-background:new 0 0 70 70;" xml:space="preserve">
<style type="text/css">
	.st0{fill:#FAFBFC;}
	.st1{fill:#EDF0F2;}
	.st2{fill:#08C5B4;}
	.st3{opacity:0.15;clip-path:url(#SVGID_2_);}
	.st4{fill:#FFFFFF;}
	.st5{opacity:0.35;clip-path:url(#SVGID_2_);}
	.st6{clip-path:url(#SVGID_4_);fill:#08C5B4;}
	.st7{fill:#F4F4F4;}
	.st8{fill-rule:evenodd;clip-rule:evenodd;fill:#08C5B4;}
	.st9{fill-rule:evenodd;clip-rule:evenodd;fill:#F4F4F4;}
	.st10{opacity:0.25;}
	.st11{fill:none;stroke:#A3A3A3;stroke-width:2;stroke-miterlimit:10;}
	.st12{fill-rule:evenodd;clip-rule:evenodd;}
	.st13{opacity:0.75;}
	.st14{fill:none;stroke:#08C5B4;stroke-miterlimit:10;}
	.st15{fill-rule:evenodd;clip-rule:evenodd;fill:#07A38F;}
	.st16{fill:none;stroke:#FFFFFF;stroke-miterlimit:10;}
	.st17{opacity:0.1;}
	.st18{opacity:0.2;clip-path:url(#SVGID_8_);}
	.st19{opacity:0.2;clip-path:url(#SVGID_10_);}
	.st20{opacity:0.15;clip-path:url(#SVGID_12_);}
	.st21{opacity:0.35;clip-path:url(#SVGID_12_);}
	.st22{opacity:0.15;clip-path:url(#SVGID_16_);}
	.st23{opacity:0.35;clip-path:url(#SVGID_16_);}
	.st24{opacity:0.15;clip-path:url(#SVGID_18_);}
	.st25{opacity:0.35;clip-path:url(#SVGID_18_);}
	.st26{opacity:0.15;clip-path:url(#SVGID_20_);}
	.st27{opacity:0.35;clip-path:url(#SVGID_20_);}
	.st28{opacity:0.15;clip-path:url(#SVGID_28_);}
	.st29{opacity:0.35;clip-path:url(#SVGID_28_);}
	.st30{opacity:0.15;clip-path:url(#SVGID_30_);}
	.st31{opacity:0.35;clip-path:url(#SVGID_30_);}
	.st32{opacity:0.15;clip-path:url(#SVGID_32_);}
	.st33{opacity:0.35;clip-path:url(#SVGID_32_);}
	.st34{fill:#E1E6E8;}
	.st35{opacity:0.35;clip-path:url(#SVGID_34_);}
	.st36{opacity:0.15;clip-path:url(#SVGID_34_);}
	.st37{fill:#272525;}
	.st38{opacity:0.35;clip-path:url(#SVGID_36_);}
	.st39{opacity:0.15;clip-path:url(#SVGID_36_);}
	.st40{opacity:0.35;clip-path:url(#SVGID_38_);}
	.st41{fill:none;stroke:#000000;stroke-miterlimit:10;}
	.st42{fill:#00ACED;}
	.st43{fill-rule:evenodd;clip-rule:evenodd;fill:#FFFFFF;}
	.st44{fill-rule:evenodd;clip-rule:evenodd;fill:none;stroke:#F4F4F4;stroke-miterlimit:10;}
	
		.st45{fill-rule:evenodd;clip-rule:evenodd;fill:none;stroke:#9C9C9C;stroke-linecap:round;stroke-linejoin:round;stroke-miterlimit:10;}
	.st46{clip-path:url(#SVGID_76_);fill:#08C5B4;}
	.st47{clip-path:url(#SVGID_76_);}
	.st48{fill-rule:evenodd;clip-rule:evenodd;fill:none;stroke:#FFFFFF;stroke-miterlimit:10;}
	.st49{clip-path:url(#SVGID_84_);fill:#08C5B4;}
	.st50{clip-path:url(#SVGID_86_);fill:#FFFFFF;}
	.st51{clip-path:url(#SVGID_88_);fill:#08C5B4;}
	.st52{clip-path:url(#SVGID_88_);}
	.st53{clip-path:url(#SVGID_92_);fill:#08C5B4;}
	.st54{clip-path:url(#SVGID_92_);}
	.st55{opacity:0.15;clip-path:url(#SVGID_96_);}
	.st56{opacity:0.35;clip-path:url(#SVGID_96_);}
	.st57{clip-path:url(#SVGID_98_);fill:#08C5B4;}
	.st58{clip-path:url(#SVGID_98_);}
	.st59{opacity:0.15;clip-path:url(#SVGID_102_);}
	.st60{opacity:0.35;clip-path:url(#SVGID_102_);}
	.st61{clip-path:url(#SVGID_104_);fill:#08C5B4;}
	.st62{clip-path:url(#SVGID_104_);}
	.st63{opacity:0.15;clip-path:url(#SVGID_108_);}
	.st64{opacity:0.35;clip-path:url(#SVGID_108_);}
	.st65{clip-path:url(#SVGID_110_);fill:#08C5B4;}
	.st66{clip-path:url(#SVGID_112_);fill:#FFFFFF;}
	.st67{fill:none;stroke:#FFFFFF;stroke-width:2;stroke-miterlimit:10;}
	.st68{opacity:0.35;clip-path:url(#SVGID_124_);}
	.st69{opacity:0.15;clip-path:url(#SVGID_124_);}
	.st70{opacity:0.35;clip-path:url(#SVGID_126_);}
	.st71{opacity:0.35;clip-path:url(#SVGID_128_);}
	.st72{opacity:0.15;clip-path:url(#SVGID_128_);}
	.st73{opacity:0.35;clip-path:url(#SVGID_130_);}
	.st74{opacity:0.15;clip-path:url(#SVGID_130_);}
	.st75{opacity:0.35;clip-path:url(#SVGID_132_);}
	.st76{opacity:0.15;clip-path:url(#SVGID_132_);}
	.st77{opacity:0.35;clip-path:url(#SVGID_144_);}
	.st78{opacity:0.15;clip-path:url(#SVGID_144_);}
	.st79{fill:none;stroke:#A3A3A3;stroke-miterlimit:10;}
	.st80{opacity:0.35;clip-path:url(#SVGID_146_);}
	.st81{opacity:0.35;clip-path:url(#SVGID_148_);}
	.st82{opacity:0.15;clip-path:url(#SVGID_148_);}
	.st83{clip-path:url(#SVGID_150_);}
	.st84{clip-path:url(#SVGID_150_);fill:#FFFFFF;}
	.st85{opacity:0.35;clip-path:url(#SVGID_160_);}
	.st86{opacity:0.35;clip-path:url(#SVGID_162_);}
	.st87{opacity:0.15;clip-path:url(#SVGID_162_);}
	.st88{opacity:0.35;clip-path:url(#SVGID_164_);}
	.st89{opacity:0.15;clip-path:url(#SVGID_164_);}
	.st90{opacity:0.35;clip-path:url(#SVGID_166_);}
	.st91{opacity:0.15;clip-path:url(#SVGID_166_);}
	.st92{opacity:0.35;clip-path:url(#SVGID_168_);}
	.st93{opacity:0.15;clip-path:url(#SVGID_168_);}
	.st94{opacity:0.15;clip-path:url(#SVGID_174_);}
	.st95{opacity:0.35;clip-path:url(#SVGID_174_);}
	.st96{display:none;}
	.st97{display:inline;}
	.st98{opacity:0.2;fill:#921127;}
</style>
<g id="Graphic">
	<g>
		<defs>
			<path id="SVGID_11_" d="M2025.6,167.9H1005.2c-11.5,0-20.7-9.3-20.7-20.7v-413.5c0-11.5,9.3-20.7,20.7-20.7h1020.4
				c11.5,0,20.7,9.3,20.7,20.7v413.5C2046.3,158.7,2037.1,167.9,2025.6,167.9z"/>
		</defs>
		<clipPath id="SVGID_2_">
			<use xlink:href="#SVGID_11_"  style="overflow:visible;"/>
		</clipPath>
		<g class="st3">
			<path class="st4" d="M231.9,69.3c-53.8-0.5-98.6,13.5-151.4-3.9C36.4,50.9,1.2,23.9-12.9-5.1c-21.6-44.3-1.3-90.3,37.2-125.8
				c16.6-15.3,44-30.4,74.6-23.7c19.5,4.2,32.8,16.1,41.7,27.7c20.2,26.4,37.4,48.8,88,55.4c30.5,4,60.8,1,90.3-2.2
				s59.5-6.7,90.1-3.5c122.3,12.7,160,100.6,201.7,159.4c38.7,54.6,100.9,121.7,196.9,136c84.2,12.6,180.9-21,239.1-50.5
				c65.8-33.3,134.1-69.7,207.9-97.5c179.1-67.4,252.1,65.2,390.3,116.4c81,30.1,143.9,17.7,198.1-21.1
				c44.7-32.1,77.3-72.7,138.3-92.7c41.9-13.8,110.8-10,130,19.6c16.2,25-14.7,48.2-43.4,65.1c-53.7,31.8-108,63.7-172.4,87.2
				c-64.5,23.5-140.7,38.2-219.6,32.5c-154.2-11.1-300.1-96.9-448.8-82.4c-72.4,7.1-128.5,37.1-187.1,61.7
				c-58.6,24.6-131.3,45.2-204.9,31c-72.3-14-121.9-56.5-176.1-91C542.7,122.8,389.3,70.6,231.9,69.3z"/>
		</g>
	</g>
	<g>
		<defs>
			<path id="SVGID_173_" d="M-63-126.9h-1309.7c-11.5,0-20.7-9.3-20.7-20.7v-537.4c0-11.5,9.3-20.7,20.7-20.7H-63
				c11.5,0,20.7,9.3,20.7,20.7v537.4C-42.3-136.2-51.6-126.9-63-126.9z"/>
		</defs>
		<clipPath id="SVGID_4_">
			<use xlink:href="#SVGID_173_"  style="overflow:visible;"/>
		</clipPath>
		<g style="opacity:0.15;clip-path:url(#SVGID_4_);">
			<path class="st4" d="M-2351.2-252.5c-68.4-0.6-125.4,17.2-192.6-5c-56.1-18.5-100.9-52.8-118.9-89.7
				c-27.5-56.4-1.6-115,47.3-160.1c21.1-19.5,56-38.6,95-30.1c24.8,5.4,41.8,20.5,53.1,35.3c25.7,33.5,47.6,62.1,112,70.5
				c38.8,5.1,77.4,1.3,114.9-2.8c37.4-4.1,75.7-8.5,114.6-4.4c155.7,16.2,203.7,128,256.7,202.8c49.3,69.5,128.4,154.8,250.5,173.1
				c107.1,16,230.1-26.7,304.2-64.2c83.7-42.4,170.6-88.8,264.6-124.1c227.9-85.7,320.8,82.9,496.6,148.2
				c103.1,38.3,183.2,22.6,252.1-26.8c56.9-40.8,98.4-92.5,176-117.9c53.4-17.5,141-12.7,165.4,25C60.8-191.1,21.5-161.6-15-140
				C-83.3-99.6-152.3-58.9-234.4-29c-82,29.9-179.1,48.6-279.5,41.3C-710-1.8-895.7-111-1085-92.5c-92.1,9-163.5,47.2-238.1,78.5
				c-74.6,31.4-167.1,57.5-260.7,39.5c-92-17.8-155.1-71.9-224-115.8C-1955.7-184.4-2150.9-250.8-2351.2-252.5z"/>
		</g>
		<g style="opacity:0.35;clip-path:url(#SVGID_4_);">
			<path class="st4" d="M-1306.1-111.4c-37.8,3-69.1,19.8-106.4,6c-31.2-11.5-56.3-36-66.7-63.8c-15.8-42.6-2.2-89.5,24.3-127.2
				c11.4-16.2,30.5-33,52.1-28.3c13.7,2.9,23.3,13.8,29.7,24.8c14.6,24.8,27,46,62.6,49.3c21.5,2,42.8-3,63.4-8.1
				c20.6-5.1,41.7-10.5,63.2-9.3c86.1,4.7,113.9,89.4,144,145C-1011.9-71.5-967.3-9-899.6-1c59.3,7,126.8-32.6,167.3-65.6
				c45.8-37.3,93.2-77.9,144.7-110.3c124.8-78.5,178.1,48.3,275.8,90.2c57.3,24.6,101.4,8.2,138.9-33.8
				c31-34.7,53.3-77.1,95.9-100.9c29.3-16.4,77.7-17.1,91.6,11C26.2-186.7,4.9-161.7-15-143C-52.3-108-90-72.7-134.9-45.2
				c-44.9,27.5-98.3,47-153.9,46.5c-108.5-1-212.2-76.7-316.5-52.6C-656-39.6-695-6.2-735.9,22.1c-40.8,28.3-91.6,53.4-143.5,44.1
				c-51-9.2-86.5-48.2-125-78.8C-1087-78.5-1195.5-120.3-1306.1-111.4z"/>
		</g>
	</g>
	<g>
		<circle class="st2" cx="35" cy="35" r="33"/>
		<g>
			<g>
				<g>
					<path class="st4" d="M51.5,35.6c0-0.8-0.3-1.6-0.9-2.2c0.6-0.7,1-1.6,0.9-2.6c-0.2-1.7-1.7-3.1-3.6-3.1h-8.5
						c0.4-1.3,1.1-3.6,1.1-5.5c0-3-2.5-5.5-4.1-5.5c-1.4,0-2.4,0.8-2.5,0.8c-0.2,0.1-0.3,0.3-0.3,0.5v4.7l-4,8.6l-0.2,0.1v-0.3
						c0-0.4-0.3-0.7-0.7-0.7h-6.9c-1.9,0-3.4,1.5-3.4,3.4v11c0,1.9,1.5,3.4,3.4,3.4h4.1c1.5,0,2.8-0.9,3.2-2.3
						c1.1,0.6,2.7,0.9,3.6,0.9h12.6c1.5,0,2.8-1,3.1-2.4c0.2-0.7,0.1-1.4-0.2-2.1c1-0.5,1.7-1.6,1.7-2.7c0-0.5-0.1-1-0.3-1.4
						C50.8,37.8,51.5,36.8,51.5,35.6z M48.6,37.3c-0.3,0-0.5,0.2-0.6,0.5c-0.1,0.3,0,0.5,0.2,0.7c0.3,0.3,0.5,0.8,0.5,1.2
						c0,0.9-0.7,1.6-1.5,1.7c-0.3,0-0.5,0.2-0.6,0.5c-0.1,0.3,0,0.5,0.2,0.7c0.5,0.4,0.6,1,0.5,1.6c-0.2,0.8-0.9,1.3-1.8,1.3H32.9
						c-1.1,0-3-0.5-3.6-1.2c-0.2-0.2-0.5-0.3-0.7-0.1c-0.3,0.1-0.4,0.4-0.4,0.6c0,1.1-0.9,2.1-2.1,2.1h-4.1c-1.1,0-2.1-0.9-2.1-2.1
						v-11c0-1.1,0.9-2.1,2.1-2.1h6.2v0.7c0,0.2,0.1,0.5,0.3,0.6c0.2,0.1,0.5,0.1,0.7,0l1.4-0.7c0.1-0.1,0.3-0.2,0.3-0.3l4.1-8.9
						c0-0.1,0.1-0.2,0.1-0.3v-4.4c0.3-0.2,0.8-0.4,1.4-0.4c0.8,0,2.7,1.9,2.7,4.1c0,2.4-1.3,5.9-1.3,5.9c-0.1,0.2-0.1,0.4,0.1,0.6
						c0.1,0.2,0.3,0.3,0.6,0.3h9.5c1.1,0,2.1,0.8,2.2,1.9c0.1,0.8-0.3,1.5-1,1.9c-0.2,0.1-0.3,0.4-0.3,0.6c0,0.2,0.2,0.5,0.4,0.6
						c0.6,0.3,0.9,0.9,0.9,1.5C50.1,36.5,49.5,37.2,48.6,37.3z"/>
				</g>
			</g>
			<g>
				<g>
					<path class="st4" d="M28.8,31.8c-0.4,0-0.7,0.3-0.7,0.7v12.4c0,0.4,0.3,0.7,0.7,0.7s0.7-0.3,0.7-0.7V32.5
						C29.5,32.1,29.2,31.8,28.8,31.8z"/>
				</g>
			</g>
		</g>
	</g>
</g>
<g id="Grid" class="st96">
</g>
</svg>
