<?xml version="1.0" encoding="utf-8"?>
<!-- Generator: Adobe Illustrator 24.2.0, SVG Export Plug-In . SVG Version: 6.00 Build 0)  -->
<svg version="1.1" xmlns="http://www.w3.org/2000/svg" xmlns:xlink="http://www.w3.org/1999/xlink" x="0px" y="0px"
	 viewBox="0 0 306.8 236.8" style="enable-background:new 0 0 306.8 236.8;" xml:space="preserve">
<style type="text/css">
	.st0{fill:#F9FAFB;}
	.st1{fill:#ECEFF1;}
	.st2{fill:#08C4B3;}
	.st3{opacity:0.15;clip-path:url(#SVGID_2_);}
	.st4{fill:#FFFFFF;}
	.st5{opacity:0.35;clip-path:url(#SVGID_2_);}
	.st6{clip-path:url(#SVGID_4_);fill:#08C4B3;}
	.st7{fill:#F3F3F3;}
	.st8{fill-rule:evenodd;clip-rule:evenodd;fill:#08C4B3;}
	.st9{fill-rule:evenodd;clip-rule:evenodd;fill:#F3F3F3;}
	.st10{opacity:0.25;}
	.st11{fill:none;stroke:#A2A2A2;stroke-width:2;stroke-miterlimit:10;}
	.st12{fill-rule:evenodd;clip-rule:evenodd;}
	.st13{opacity:0.75;}
	.st14{fill:none;stroke:#08C4B3;stroke-miterlimit:10;}
	.st15{fill-rule:evenodd;clip-rule:evenodd;fill:#07A28E;}
	.st16{fill:none;stroke:#FFFFFF;stroke-miterlimit:10;}
	.st17{opacity:0.1;}
	.st18{opacity:0.2;clip-path:url(#SVGID_8_);}
	.st19{opacity:0.2;clip-path:url(#SVGID_10_);}
	.st20{opacity:0.15;clip-path:url(#SVGID_12_);}
	.st21{opacity:0.35;clip-path:url(#SVGID_12_);}
	.st22{opacity:0.15;clip-path:url(#SVGID_16_);}
	.st23{opacity:0.35;clip-path:url(#SVGID_16_);}
	.st24{opacity:0.15;clip-path:url(#SVGID_18_);}
	.st25{opacity:0.35;clip-path:url(#SVGID_18_);}
	.st26{opacity:0.15;clip-path:url(#SVGID_20_);}
	.st27{opacity:0.35;clip-path:url(#SVGID_20_);}
	.st28{opacity:0.15;clip-path:url(#SVGID_28_);}
	.st29{opacity:0.35;clip-path:url(#SVGID_28_);}
	.st30{opacity:0.15;clip-path:url(#SVGID_30_);}
	.st31{opacity:0.35;clip-path:url(#SVGID_30_);}
	.st32{opacity:0.15;clip-path:url(#SVGID_32_);}
	.st33{opacity:0.35;clip-path:url(#SVGID_32_);}
	.st34{fill:#E0E5E7;}
	.st35{opacity:0.35;clip-path:url(#SVGID_34_);}
	.st36{opacity:0.15;clip-path:url(#SVGID_34_);}
	.st37{fill:#272525;}
	.st38{opacity:0.35;clip-path:url(#SVGID_36_);}
	.st39{opacity:0.15;clip-path:url(#SVGID_36_);}
	.st40{opacity:0.35;clip-path:url(#SVGID_38_);}
	.st41{fill:none;stroke:#000000;stroke-miterlimit:10;}
	.st42{fill:#00ABEC;}
	.st43{fill-rule:evenodd;clip-rule:evenodd;fill:#FFFFFF;}
	.st44{fill-rule:evenodd;clip-rule:evenodd;fill:none;stroke:#F3F3F3;stroke-miterlimit:10;}
	
		.st45{fill-rule:evenodd;clip-rule:evenodd;fill:none;stroke:#9B9B9B;stroke-linecap:round;stroke-linejoin:round;stroke-miterlimit:10;}
	.st46{clip-path:url(#SVGID_78_);fill:#08C4B3;}
	.st47{clip-path:url(#SVGID_78_);}
	.st48{fill-rule:evenodd;clip-rule:evenodd;fill:none;stroke:#FFFFFF;stroke-miterlimit:10;}
	.st49{clip-path:url(#SVGID_86_);fill:#08C4B3;}
	.st50{clip-path:url(#SVGID_88_);fill:#FFFFFF;}
	.st51{clip-path:url(#SVGID_90_);fill:#08C4B3;}
	.st52{clip-path:url(#SVGID_90_);}
	.st53{clip-path:url(#SVGID_94_);fill:#08C4B3;}
	.st54{clip-path:url(#SVGID_94_);}
	.st55{opacity:0.15;clip-path:url(#SVGID_98_);}
	.st56{opacity:0.35;clip-path:url(#SVGID_98_);}
	.st57{clip-path:url(#SVGID_100_);fill:#08C4B3;}
	.st58{clip-path:url(#SVGID_100_);}
	.st59{opacity:0.15;clip-path:url(#SVGID_104_);}
	.st60{opacity:0.35;clip-path:url(#SVGID_104_);}
	.st61{clip-path:url(#SVGID_106_);fill:#08C4B3;}
	.st62{clip-path:url(#SVGID_106_);}
	.st63{opacity:0.15;clip-path:url(#SVGID_110_);}
	.st64{opacity:0.35;clip-path:url(#SVGID_110_);}
	.st65{clip-path:url(#SVGID_112_);fill:#08C4B3;}
	.st66{clip-path:url(#SVGID_114_);fill:#FFFFFF;}
	.st67{fill:none;stroke:#FFFFFF;stroke-width:2;stroke-miterlimit:10;}
	.st68{opacity:0.35;clip-path:url(#SVGID_126_);}
	.st69{opacity:0.15;clip-path:url(#SVGID_126_);}
	.st70{opacity:0.35;clip-path:url(#SVGID_128_);}
	.st71{opacity:0.35;clip-path:url(#SVGID_130_);}
	.st72{opacity:0.15;clip-path:url(#SVGID_130_);}
	.st73{opacity:0.35;clip-path:url(#SVGID_132_);}
	.st74{opacity:0.15;clip-path:url(#SVGID_132_);}
	.st75{opacity:0.35;clip-path:url(#SVGID_134_);}
	.st76{opacity:0.15;clip-path:url(#SVGID_134_);}
	.st77{opacity:0.35;clip-path:url(#SVGID_146_);}
	.st78{opacity:0.15;clip-path:url(#SVGID_146_);}
	.st79{fill:none;stroke:#A2A2A2;stroke-miterlimit:10;}
	.st80{opacity:0.35;clip-path:url(#SVGID_148_);}
	.st81{opacity:0.35;clip-path:url(#SVGID_150_);}
	.st82{opacity:0.15;clip-path:url(#SVGID_150_);}
	.st83{clip-path:url(#SVGID_152_);}
	.st84{clip-path:url(#SVGID_152_);fill:#FFFFFF;}
	.st85{opacity:0.35;clip-path:url(#SVGID_162_);}
	.st86{opacity:0.35;clip-path:url(#SVGID_164_);}
	.st87{opacity:0.15;clip-path:url(#SVGID_164_);}
	.st88{opacity:0.35;clip-path:url(#SVGID_166_);}
	.st89{opacity:0.15;clip-path:url(#SVGID_166_);}
	.st90{opacity:0.35;clip-path:url(#SVGID_168_);}
	.st91{opacity:0.15;clip-path:url(#SVGID_168_);}
	.st92{opacity:0.35;clip-path:url(#SVGID_170_);}
	.st93{opacity:0.15;clip-path:url(#SVGID_170_);}
	.st94{display:none;}
	.st95{display:inline;}
	.st96{opacity:0.2;fill:#911127;}
</style>
<g id="Graphic">
	<g>
		<g>
			
				<rect x="140.8" y="62.2" transform="matrix(0.7954 -0.606 0.606 0.7954 -11.9691 107.3233)" class="st8" width="24.3" height="18.4"/>
			<polygon class="st12" points="140.9,133.9 88,64.5 88.2,64.4 88,64.2 135.6,28 146.7,42.6 113.6,67.8 155.5,122.8 			"/>
			<polygon class="st8" points="215,77.5 167.4,113.7 156.3,99.1 189.4,73.9 147.5,18.9 162.1,7.8 215,77.2 214.8,77.3 			"/>
		</g>
		<g>
			<path d="M40.7,224h-2.3v3.5c0,0.5-0.1,0.9-0.3,1.1c-0.2,0.3-0.5,0.4-0.9,0.4c-0.4,0-0.7-0.1-0.9-0.4S36,228,36,227.5v-9.5
				c0-0.5,0.1-0.9,0.4-1.2c0.3-0.2,0.7-0.3,1.2-0.3h3.2c0.9,0,1.7,0.1,2.2,0.2c0.5,0.1,0.9,0.4,1.3,0.7c0.4,0.3,0.6,0.7,0.8,1.2
				c0.2,0.5,0.3,1,0.3,1.6c0,1.3-0.4,2.2-1.1,2.8C43.4,223.7,42.2,224,40.7,224z M40.1,218.4h-1.7v3.8h1.7c0.6,0,1.1-0.1,1.5-0.2
				c0.4-0.1,0.7-0.3,0.9-0.6c0.2-0.3,0.3-0.7,0.3-1.1c0-0.5-0.2-1-0.5-1.3C42,218.6,41.2,218.4,40.1,218.4z"/>
			<path d="M53.9,216.3c1.3,0,2.4,0.3,3.3,0.8c0.9,0.5,1.6,1.3,2.1,2.2c0.5,1,0.7,2.1,0.7,3.4c0,0.9-0.1,1.8-0.4,2.6
				c-0.3,0.8-0.7,1.4-1.2,2c-0.5,0.6-1.1,1-1.9,1.3c-0.8,0.3-1.6,0.4-2.6,0.4c-1,0-1.8-0.2-2.6-0.5c-0.8-0.3-1.4-0.8-1.9-1.3
				c-0.5-0.5-0.9-1.2-1.1-2c-0.3-0.8-0.4-1.6-0.4-2.6c0-0.9,0.1-1.8,0.4-2.6c0.3-0.8,0.7-1.5,1.2-2c0.5-0.5,1.1-1,1.9-1.3
				C52.1,216.5,52.9,216.3,53.9,216.3z M57.4,222.6c0-0.9-0.1-1.7-0.4-2.3c-0.3-0.7-0.7-1.2-1.3-1.5c-0.5-0.3-1.1-0.5-1.8-0.5
				c-0.5,0-1,0.1-1.4,0.3c-0.4,0.2-0.8,0.5-1.1,0.8c-0.3,0.4-0.5,0.8-0.7,1.4c-0.2,0.5-0.3,1.2-0.3,1.9c0,0.7,0.1,1.3,0.3,1.9
				c0.2,0.6,0.4,1,0.8,1.4c0.3,0.4,0.7,0.7,1.1,0.8c0.4,0.2,0.9,0.3,1.4,0.3c0.6,0,1.2-0.2,1.7-0.5c0.5-0.3,1-0.8,1.3-1.5
				C57.2,224.4,57.4,223.6,57.4,222.6z"/>
			<path d="M70.4,218.6h-2.7v8.9c0,0.5-0.1,0.9-0.3,1.1c-0.2,0.3-0.5,0.4-0.9,0.4c-0.4,0-0.7-0.1-0.9-0.4c-0.2-0.3-0.3-0.6-0.3-1.1
				v-8.9h-2.7c-0.4,0-0.7-0.1-0.9-0.3c-0.2-0.2-0.3-0.4-0.3-0.8s0.1-0.6,0.3-0.8c0.2-0.2,0.5-0.3,0.9-0.3h7.9c0.4,0,0.8,0.1,1,0.3
				c0.2,0.2,0.3,0.4,0.3,0.7s-0.1,0.6-0.3,0.8C71.2,218.5,70.8,218.6,70.4,218.6z"/>
			<path d="M82.3,218.4h-5.6v3h5.2c0.4,0,0.7,0.1,0.8,0.3c0.2,0.2,0.3,0.4,0.3,0.7s-0.1,0.5-0.3,0.7c-0.2,0.2-0.5,0.3-0.9,0.3h-5.2
				v3.5h5.8c0.4,0,0.7,0.1,0.9,0.3c0.2,0.2,0.3,0.4,0.3,0.7c0,0.3-0.1,0.5-0.3,0.7c-0.2,0.2-0.5,0.3-0.9,0.3h-6.7
				c-0.5,0-0.9-0.1-1.2-0.4c-0.2-0.2-0.4-0.6-0.4-1.2v-9.2c0-0.4,0.1-0.7,0.2-0.9c0.1-0.2,0.3-0.4,0.5-0.5c0.2-0.1,0.5-0.2,0.9-0.2
				h6.6c0.4,0,0.7,0.1,0.9,0.3c0.2,0.2,0.3,0.4,0.3,0.7c0,0.3-0.1,0.5-0.3,0.7C83,218.4,82.7,218.4,82.3,218.4z"/>
			<path d="M90,217.8l4.8,7.2v-7.3c0-0.5,0.1-0.8,0.3-1.1c0.2-0.2,0.5-0.4,0.8-0.4c0.4,0,0.6,0.1,0.8,0.4c0.2,0.2,0.3,0.6,0.3,1.1
				v9.6c0,1.1-0.4,1.6-1.3,1.6c-0.2,0-0.4,0-0.6-0.1c-0.2-0.1-0.3-0.2-0.5-0.3c-0.2-0.2-0.3-0.3-0.4-0.5c-0.1-0.2-0.3-0.4-0.4-0.6
				l-4.7-7.1v7.2c0,0.5-0.1,0.8-0.3,1.1c-0.2,0.2-0.5,0.4-0.8,0.4c-0.3,0-0.6-0.1-0.8-0.4c-0.2-0.2-0.3-0.6-0.3-1.1v-9.5
				c0-0.4,0.1-0.7,0.1-0.9c0.1-0.3,0.3-0.5,0.5-0.6c0.2-0.2,0.5-0.2,0.8-0.2c0.2,0,0.4,0,0.6,0.1c0.2,0.1,0.3,0.2,0.4,0.3
				c0.1,0.1,0.2,0.3,0.4,0.5C89.7,217.4,89.9,217.6,90,217.8z"/>
			<path d="M111.3,224.9c0,0.4-0.1,0.8-0.3,1.3c-0.2,0.4-0.5,0.9-0.9,1.3c-0.4,0.4-0.9,0.8-1.6,1.1c-0.6,0.3-1.4,0.4-2.2,0.4
				c-0.6,0-1.2-0.1-1.8-0.2c-0.5-0.1-1-0.3-1.4-0.6c-0.4-0.3-0.8-0.6-1.2-1c-0.3-0.4-0.6-0.8-0.8-1.3s-0.4-1-0.5-1.5
				c-0.1-0.5-0.2-1.1-0.2-1.7c0-1,0.1-1.9,0.4-2.7c0.3-0.8,0.7-1.4,1.2-2c0.5-0.5,1.2-1,1.9-1.3c0.7-0.3,1.5-0.4,2.3-0.4
				c1,0,1.9,0.2,2.7,0.6c0.8,0.4,1.4,0.9,1.8,1.5c0.4,0.6,0.6,1.1,0.6,1.7c0,0.3-0.1,0.5-0.3,0.8c-0.2,0.2-0.4,0.3-0.7,0.3
				c-0.3,0-0.5-0.1-0.7-0.2c-0.2-0.1-0.3-0.4-0.5-0.8c-0.3-0.6-0.7-1.1-1.1-1.4c-0.4-0.3-1-0.4-1.6-0.4c-1,0-1.8,0.4-2.4,1.2
				c-0.6,0.8-0.9,1.9-0.9,3.3c0,0.9,0.1,1.7,0.4,2.4c0.3,0.6,0.6,1.1,1.1,1.4c0.5,0.3,1.1,0.5,1.7,0.5c0.7,0,1.3-0.2,1.8-0.5
				c0.5-0.4,0.9-0.9,1.1-1.6c0.1-0.3,0.2-0.6,0.4-0.8c0.2-0.2,0.4-0.3,0.8-0.3c0.3,0,0.5,0.1,0.8,0.3
				C111.2,224.4,111.3,224.6,111.3,224.9z"/>
			<path d="M114.7,227.5v-9.7c0-0.5,0.1-0.9,0.3-1.1s0.5-0.4,0.9-0.4c0.4,0,0.7,0.1,0.9,0.4c0.2,0.2,0.3,0.6,0.3,1.1v9.7
				c0,0.5-0.1,0.9-0.3,1.1c-0.2,0.3-0.5,0.4-0.9,0.4c-0.4,0-0.7-0.1-0.9-0.4C114.8,228.4,114.7,228,114.7,227.5z"/>
			<path d="M128.9,227.4l-0.6-1.5h-5l-0.6,1.6c-0.2,0.6-0.4,1-0.6,1.2c-0.2,0.2-0.4,0.3-0.8,0.3c-0.3,0-0.6-0.1-0.8-0.3
				c-0.2-0.2-0.4-0.5-0.4-0.8c0-0.2,0-0.3,0.1-0.5c0.1-0.2,0.2-0.4,0.3-0.7l3.1-8c0.1-0.2,0.2-0.5,0.3-0.8c0.1-0.3,0.3-0.6,0.4-0.8
				c0.2-0.2,0.3-0.4,0.6-0.5c0.2-0.1,0.5-0.2,0.9-0.2c0.3,0,0.6,0.1,0.9,0.2c0.2,0.1,0.4,0.3,0.5,0.5c0.2,0.2,0.3,0.4,0.4,0.7
				c0.1,0.2,0.2,0.5,0.4,0.9l3.2,7.9c0.3,0.6,0.4,1,0.4,1.3s-0.1,0.5-0.4,0.8c-0.2,0.2-0.5,0.4-0.9,0.4c-0.2,0-0.4,0-0.5-0.1
				c-0.1-0.1-0.3-0.2-0.4-0.3c-0.1-0.1-0.2-0.3-0.3-0.5C129.1,227.8,129,227.6,128.9,227.4z M124,224h3.7l-1.8-5.1L124,224z"/>
			<path d="M146.7,218.6H144v8.9c0,0.5-0.1,0.9-0.3,1.1c-0.2,0.3-0.5,0.4-0.9,0.4s-0.7-0.1-0.9-0.4c-0.2-0.3-0.3-0.6-0.3-1.1v-8.9
				h-2.7c-0.4,0-0.7-0.1-0.9-0.3c-0.2-0.2-0.3-0.4-0.3-0.8s0.1-0.6,0.3-0.8c0.2-0.2,0.5-0.3,0.9-0.3h7.9c0.4,0,0.8,0.1,1,0.3
				c0.2,0.2,0.3,0.4,0.3,0.7s-0.1,0.6-0.3,0.8C147.4,218.5,147.1,218.6,146.7,218.6z"/>
			<path d="M150.5,223.7v-5.9c0-0.5,0.1-0.9,0.3-1.1c0.2-0.3,0.5-0.4,0.9-0.4c0.4,0,0.7,0.1,0.9,0.4c0.2,0.3,0.3,0.6,0.3,1.1v6
				c0,0.7,0.1,1.3,0.2,1.7c0.1,0.5,0.4,0.8,0.8,1.1c0.4,0.3,0.9,0.4,1.6,0.4c1,0,1.6-0.3,2.1-0.8c0.4-0.5,0.6-1.3,0.6-2.3v-6.1
				c0-0.5,0.1-0.9,0.3-1.1c0.2-0.3,0.5-0.4,0.9-0.4c0.4,0,0.7,0.1,0.9,0.4c0.2,0.2,0.3,0.6,0.3,1.1v5.9c0,1-0.1,1.8-0.3,2.4
				c-0.2,0.7-0.5,1.2-1.1,1.7c-0.4,0.4-1,0.7-1.6,0.9c-0.6,0.2-1.3,0.3-2.1,0.3c-0.9,0-1.7-0.1-2.4-0.3c-0.7-0.2-1.2-0.5-1.7-0.9
				c-0.4-0.4-0.8-1-0.9-1.6C150.6,225.4,150.5,224.6,150.5,223.7z"/>
			<path d="M177,218.4h-5.6v3h5.2c0.4,0,0.7,0.1,0.8,0.3c0.2,0.2,0.3,0.4,0.3,0.7s-0.1,0.5-0.3,0.7c-0.2,0.2-0.5,0.3-0.9,0.3h-5.2
				v3.5h5.8c0.4,0,0.7,0.1,0.9,0.3c0.2,0.2,0.3,0.4,0.3,0.7c0,0.3-0.1,0.5-0.3,0.7c-0.2,0.2-0.5,0.3-0.9,0.3h-6.7
				c-0.5,0-0.9-0.1-1.2-0.4c-0.2-0.2-0.4-0.6-0.4-1.2v-9.2c0-0.4,0.1-0.7,0.2-0.9c0.1-0.2,0.3-0.4,0.5-0.5c0.2-0.1,0.5-0.2,0.9-0.2
				h6.6c0.4,0,0.7,0.1,0.9,0.3c0.2,0.2,0.3,0.4,0.3,0.7c0,0.3-0.1,0.5-0.3,0.7C177.6,218.4,177.4,218.4,177,218.4z"/>
			<path d="M191.8,224.9c0,0.4-0.1,0.8-0.3,1.3c-0.2,0.4-0.5,0.9-0.9,1.3c-0.4,0.4-0.9,0.8-1.6,1.1c-0.6,0.3-1.4,0.4-2.2,0.4
				c-0.6,0-1.2-0.1-1.8-0.2c-0.5-0.1-1-0.3-1.4-0.6c-0.4-0.3-0.8-0.6-1.2-1c-0.3-0.4-0.6-0.8-0.8-1.3c-0.2-0.5-0.4-1-0.5-1.5
				c-0.1-0.5-0.2-1.1-0.2-1.7c0-1,0.1-1.9,0.4-2.7c0.3-0.8,0.7-1.4,1.2-2c0.5-0.5,1.2-1,1.9-1.3c0.7-0.3,1.5-0.4,2.3-0.4
				c1,0,1.9,0.2,2.7,0.6c0.8,0.4,1.4,0.9,1.8,1.5c0.4,0.6,0.6,1.1,0.6,1.7c0,0.3-0.1,0.5-0.3,0.8c-0.2,0.2-0.4,0.3-0.7,0.3
				c-0.3,0-0.5-0.1-0.7-0.2c-0.2-0.1-0.3-0.4-0.5-0.8c-0.3-0.6-0.7-1.1-1.1-1.4c-0.4-0.3-1-0.4-1.6-0.4c-1,0-1.8,0.4-2.4,1.2
				c-0.6,0.8-0.9,1.9-0.9,3.3c0,0.9,0.1,1.7,0.4,2.4c0.3,0.6,0.6,1.1,1.1,1.4c0.5,0.3,1.1,0.5,1.7,0.5c0.7,0,1.3-0.2,1.8-0.5
				c0.5-0.4,0.9-0.9,1.1-1.6c0.1-0.3,0.2-0.6,0.4-0.8c0.2-0.2,0.4-0.3,0.8-0.3c0.3,0,0.5,0.1,0.8,0.3
				C191.7,224.4,191.8,224.6,191.8,224.9z"/>
			<path d="M200.5,216.3c1.3,0,2.4,0.3,3.3,0.8c0.9,0.5,1.6,1.3,2.1,2.2c0.5,1,0.7,2.1,0.7,3.4c0,0.9-0.1,1.8-0.4,2.6
				c-0.3,0.8-0.7,1.4-1.2,2c-0.5,0.6-1.1,1-1.9,1.3c-0.8,0.3-1.6,0.4-2.6,0.4s-1.8-0.2-2.6-0.5c-0.8-0.3-1.4-0.8-1.9-1.3
				c-0.5-0.5-0.9-1.2-1.1-2c-0.3-0.8-0.4-1.6-0.4-2.6c0-0.9,0.1-1.8,0.4-2.6c0.3-0.8,0.7-1.5,1.2-2c0.5-0.5,1.1-1,1.9-1.3
				C198.8,216.5,199.6,216.3,200.5,216.3z M204.1,222.6c0-0.9-0.1-1.7-0.4-2.3c-0.3-0.7-0.7-1.2-1.3-1.5c-0.5-0.3-1.1-0.5-1.8-0.5
				c-0.5,0-1,0.1-1.4,0.3c-0.4,0.2-0.8,0.5-1.1,0.8c-0.3,0.4-0.5,0.8-0.7,1.4c-0.2,0.5-0.3,1.2-0.3,1.9c0,0.7,0.1,1.3,0.3,1.9
				c0.2,0.6,0.4,1,0.8,1.4c0.3,0.4,0.7,0.7,1.1,0.8c0.4,0.2,0.9,0.3,1.4,0.3c0.6,0,1.2-0.2,1.7-0.5c0.5-0.3,1-0.8,1.3-1.5
				C203.9,224.4,204.1,223.6,204.1,222.6z"/>
			<path d="M213,217.8l4.8,7.2v-7.3c0-0.5,0.1-0.8,0.3-1.1c0.2-0.2,0.5-0.4,0.8-0.4c0.4,0,0.6,0.1,0.8,0.4c0.2,0.2,0.3,0.6,0.3,1.1
				v9.6c0,1.1-0.4,1.6-1.3,1.6c-0.2,0-0.4,0-0.6-0.1c-0.2-0.1-0.3-0.2-0.5-0.3c-0.2-0.2-0.3-0.3-0.4-0.5c-0.1-0.2-0.3-0.4-0.4-0.6
				l-4.7-7.1v7.2c0,0.5-0.1,0.8-0.3,1.1c-0.2,0.2-0.5,0.4-0.8,0.4s-0.6-0.1-0.8-0.4c-0.2-0.2-0.3-0.6-0.3-1.1v-9.5
				c0-0.4,0.1-0.7,0.1-0.9c0.1-0.3,0.3-0.5,0.5-0.6c0.2-0.2,0.5-0.2,0.8-0.2c0.2,0,0.4,0,0.6,0.1c0.2,0.1,0.3,0.2,0.4,0.3
				c0.1,0.1,0.2,0.3,0.4,0.5C212.8,217.4,212.9,217.6,213,217.8z"/>
			<path d="M229.3,216.3c1.3,0,2.4,0.3,3.3,0.8c0.9,0.5,1.6,1.3,2.1,2.2c0.5,1,0.7,2.1,0.7,3.4c0,0.9-0.1,1.8-0.4,2.6
				c-0.3,0.8-0.7,1.4-1.2,2c-0.5,0.6-1.1,1-1.9,1.3c-0.8,0.3-1.6,0.4-2.6,0.4s-1.8-0.2-2.6-0.5c-0.8-0.3-1.4-0.8-1.9-1.3
				c-0.5-0.5-0.9-1.2-1.1-2c-0.3-0.8-0.4-1.6-0.4-2.6c0-0.9,0.1-1.8,0.4-2.6c0.3-0.8,0.7-1.5,1.2-2c0.5-0.5,1.1-1,1.9-1.3
				C227.5,216.5,228.3,216.3,229.3,216.3z M232.8,222.6c0-0.9-0.1-1.7-0.4-2.3c-0.3-0.7-0.7-1.2-1.3-1.5c-0.5-0.3-1.1-0.5-1.8-0.5
				c-0.5,0-1,0.1-1.4,0.3c-0.4,0.2-0.8,0.5-1.1,0.8c-0.3,0.4-0.5,0.8-0.7,1.4c-0.2,0.5-0.3,1.2-0.3,1.9c0,0.7,0.1,1.3,0.3,1.9
				c0.2,0.6,0.4,1,0.8,1.4c0.3,0.4,0.7,0.7,1.1,0.8c0.4,0.2,0.9,0.3,1.4,0.3c0.6,0,1.2-0.2,1.7-0.5c0.5-0.3,1-0.8,1.3-1.5
				C232.6,224.4,232.8,223.6,232.8,222.6z"/>
			<path d="M242.7,226.9l-2-7.8v8.5c0,0.5-0.1,0.8-0.3,1c-0.2,0.2-0.5,0.4-0.8,0.4c-0.3,0-0.6-0.1-0.8-0.3c-0.2-0.2-0.3-0.6-0.3-1.1
				v-9.7c0-0.5,0.1-0.9,0.4-1.1c0.3-0.2,0.7-0.3,1.1-0.3h0.8c0.5,0,0.8,0,1,0.1c0.2,0.1,0.4,0.2,0.5,0.5c0.1,0.2,0.2,0.6,0.3,1.1
				l1.8,6.7l1.8-6.7c0.1-0.5,0.2-0.9,0.3-1.1c0.1-0.2,0.3-0.4,0.5-0.5c0.2-0.1,0.5-0.1,1-0.1h0.8c0.5,0,0.8,0.1,1.1,0.3
				c0.3,0.2,0.4,0.5,0.4,1.1v9.7c0,0.5-0.1,0.8-0.3,1c-0.2,0.2-0.5,0.4-0.8,0.4c-0.3,0-0.6-0.1-0.8-0.4c-0.2-0.2-0.3-0.6-0.3-1v-8.5
				l-2,7.8c-0.1,0.5-0.2,0.9-0.3,1.1c-0.1,0.2-0.2,0.4-0.4,0.7c-0.2,0.2-0.5,0.3-0.9,0.3c-0.3,0-0.5-0.1-0.7-0.2
				c-0.2-0.1-0.4-0.3-0.5-0.5c-0.1-0.2-0.2-0.4-0.3-0.7C242.8,227.4,242.7,227.2,242.7,226.9z"/>
			<path d="M255.6,213.3h1.1c0.3,0,0.4,0,0.4,0.1c0,0.1-0.2,0.2-0.5,0.5c-0.3,0.3-0.6,0.6-1,0.9c-0.3,0.3-0.5,0.5-0.7,0.5
				c-0.3,0.2-0.7,0.2-1,0.2c-0.2,0-0.4-0.1-0.4-0.2c0-0.1,0.1-0.3,0.2-0.5l0.4-0.7c0.2-0.4,0.4-0.7,0.6-0.8
				C255,213.4,255.3,213.3,255.6,213.3z M254,227.5v-9.7c0-0.5,0.1-0.9,0.3-1.1c0.2-0.3,0.5-0.4,0.9-0.4c0.4,0,0.7,0.1,0.9,0.4
				c0.2,0.2,0.3,0.6,0.3,1.1v9.7c0,0.5-0.1,0.9-0.3,1.1c-0.2,0.3-0.5,0.4-0.9,0.4c-0.4,0-0.7-0.1-0.9-0.4
				C254.1,228.4,254,228,254,227.5z"/>
			<path d="M268.2,227.4l-0.6-1.5h-5l-0.6,1.6c-0.2,0.6-0.4,1-0.6,1.2c-0.2,0.2-0.4,0.3-0.8,0.3c-0.3,0-0.6-0.1-0.8-0.3
				c-0.2-0.2-0.4-0.5-0.4-0.8c0-0.2,0-0.3,0.1-0.5c0.1-0.2,0.2-0.4,0.3-0.7l3.1-8c0.1-0.2,0.2-0.5,0.3-0.8c0.1-0.3,0.3-0.6,0.4-0.8
				c0.2-0.2,0.3-0.4,0.6-0.5c0.2-0.1,0.5-0.2,0.9-0.2c0.3,0,0.6,0.1,0.9,0.2c0.2,0.1,0.4,0.3,0.5,0.5c0.2,0.2,0.3,0.4,0.4,0.7
				c0.1,0.2,0.2,0.5,0.4,0.9l3.2,7.9c0.3,0.6,0.4,1,0.4,1.3s-0.1,0.5-0.4,0.8c-0.2,0.2-0.5,0.4-0.9,0.4c-0.2,0-0.4,0-0.5-0.1
				c-0.1-0.1-0.3-0.2-0.4-0.3c-0.1-0.1-0.2-0.3-0.3-0.5C268.3,227.8,268.2,227.6,268.2,227.4z M263.2,224h3.7l-1.8-5.1L263.2,224z"
				/>
		</g>
		<path class="st2" d="M197.5,194.6c-1,0-1.9-0.3-2.6-1c-0.8-0.7-1.1-1.6-1.1-2.7c0-1,0.4-1.9,1.1-2.6c0.7-0.7,1.6-1.1,2.6-1.1
			c1,0,1.9,0.4,2.6,1.1c0.8,0.7,1.1,1.6,1.1,2.6c0,1.2-0.4,2.1-1.1,2.7C199.3,194.2,198.5,194.6,197.5,194.6z"/>
		<g>
			<path d="M7.7,167.8h1.6v-2c0-2.1,0.3-3.8,0.8-5c0.5-1.2,1.4-2.1,2.7-2.7c1.3-0.6,3-0.9,5.2-0.9c3.9,0,5.9,1,5.9,2.9
				c0,0.6-0.2,1.2-0.6,1.6c-0.5,0.4-0.9,0.7-1.5,0.7c-0.3,0-0.7-0.1-1.4-0.2c-0.7-0.1-1.2-0.2-1.6-0.2c-1.2,0-2,0.4-2.4,1.1
				c-0.3,0.7-0.5,1.8-0.5,3.1v1.6h1.7c2.6,0,3.8,0.8,3.8,2.3c0,1.1-0.4,1.8-1,2.1c-0.7,0.3-1.6,0.5-2.8,0.5H16v17.8
				c0,1.3-0.3,2.3-1,3c-0.6,0.7-1.4,1.1-2.4,1.1c-1,0-1.8-0.4-2.4-1.1c-0.7-0.7-1-1.7-1-3v-17.8H7.4c-1,0-1.8-0.3-2.3-0.7
				c-0.6-0.5-0.9-1.1-0.9-1.8C4.3,168.6,5.5,167.8,7.7,167.8z"/>
			<path d="M27.6,164.1c-0.9,0-1.7-0.3-2.4-0.9c-0.7-0.6-1-1.4-1-2.4c0-1,0.4-1.8,1-2.4c0.7-0.6,1.5-0.9,2.4-0.9s1.7,0.3,2.3,0.8
				c0.7,0.6,1,1.4,1,2.5c0,1-0.3,1.8-1,2.4C29.3,163.8,28.5,164.1,27.6,164.1z M30.9,171.1v19.4c0,1.4-0.3,2.4-1,3
				c-0.7,0.7-1.5,1.1-2.4,1.1c-1,0-1.8-0.4-2.4-1.1c-0.6-0.7-0.9-1.7-0.9-3v-19.2c0-1.4,0.3-2.4,0.9-3c0.7-0.7,1.4-1,2.4-1
				c1,0,1.8,0.4,2.4,1C30.6,168.9,30.9,169.8,30.9,171.1z"/>
			<path d="M42.6,171v0.8c1.2-1.6,2.5-2.7,3.9-3.4c1.4-0.8,3-1.1,4.8-1.1c1.8,0,3.3,0.4,4.7,1.2c1.4,0.8,2.4,1.9,3.1,3.3
				c0.5,0.8,0.8,1.7,0.9,2.7c0.2,0.9,0.2,2.1,0.2,3.6v12.5c0,1.4-0.3,2.4-0.9,3c-0.6,0.7-1.4,1.1-2.4,1.1s-1.8-0.4-2.4-1.1
				c-0.7-0.7-1-1.7-1-3v-11.2c0-2.2-0.3-3.9-0.9-5.1c-0.6-1.2-1.9-1.8-3.7-1.8c-1.2,0-2.3,0.4-3.3,1.1c-1,0.7-1.7,1.7-2.2,3
				c-0.4,1-0.5,2.8-0.5,5.6v8.4c0,1.4-0.3,2.4-1,3.1c-0.6,0.7-1.4,1-2.4,1c-1,0-1.8-0.4-2.4-1.1c-0.7-0.7-1-1.7-1-3v-19.4
				c0-1.3,0.3-2.3,0.9-2.9c0.6-0.7,1.3-1,2.3-1c0.6,0,1.1,0.2,1.6,0.4c0.5,0.3,0.9,0.7,1.1,1.3C42.4,169.4,42.6,170.1,42.6,171z"/>
			<path d="M82.5,190.8c-1.6,1.3-3.2,2.2-4.7,2.8c-1.5,0.7-3.2,1-5.1,1c-1.7,0-3.2-0.4-4.5-1c-1.3-0.7-2.3-1.6-3-2.8
				c-0.7-1.2-1.1-2.4-1.1-3.8c0-1.9,0.6-3.4,1.8-4.7c1.2-1.3,2.8-2.2,4.8-2.6c0.5-0.1,1.5-0.4,3.2-0.7c1.7-0.3,3.1-0.7,4.3-0.9
				c1.2-0.3,2.5-0.7,3.9-1.1c-0.1-1.8-0.5-3.1-1.1-3.9c-0.7-0.9-2-1.3-3.9-1.3c-1.7,0-3,0.3-3.8,0.7c-0.9,0.5-1.6,1.2-2.2,2.2
				c-0.7,0.9-1.1,1.6-1.3,1.9c-0.3,0.3-0.8,0.5-1.7,0.5c-0.8,0-1.4-0.3-2-0.8c-0.5-0.5-0.8-1.1-0.8-1.8c0-1.2,0.4-2.4,1.3-3.5
				c0.9-1.1,2.1-2,3.9-2.8c1.8-0.7,4-1.1,6.6-1.1c3,0,5.3,0.4,7,1.1c1.7,0.7,2.9,1.8,3.6,3.3c0.7,1.5,1.1,3.5,1.1,6.1
				c0,1.6,0,2.9,0,4c0,1.1-0.1,2.3-0.1,3.7c0,1.3,0.2,2.6,0.7,3.9c0.4,1.4,0.6,2.3,0.6,2.7c0,0.7-0.3,1.3-1,1.9
				c-0.7,0.6-1.4,0.9-2.2,0.9c-0.7,0-1.4-0.3-2.1-1C84,193,83.3,192,82.5,190.8z M82.1,181.1c-1,0.4-2.4,0.8-4.3,1.2
				s-3.2,0.7-3.9,0.9c-0.8,0.2-1.4,0.6-2.1,1.1c-0.7,0.6-1,1.3-1,2.3s0.4,1.9,1.2,2.6c0.8,0.7,1.8,1.1,3,1.1c1.3,0,2.6-0.3,3.7-0.9
				c1.1-0.6,2-1.4,2.5-2.3c0.6-1,0.9-2.7,0.9-5V181.1z"/>
			<path d="M100.1,171v0.8c1.2-1.6,2.5-2.7,3.9-3.4c1.4-0.8,3-1.1,4.8-1.1c1.8,0,3.3,0.4,4.7,1.2c1.4,0.8,2.4,1.9,3.1,3.3
				c0.5,0.8,0.8,1.7,0.9,2.7c0.2,0.9,0.2,2.1,0.2,3.6v12.5c0,1.4-0.3,2.4-0.9,3c-0.6,0.7-1.4,1.1-2.4,1.1c-1,0-1.8-0.4-2.4-1.1
				c-0.7-0.7-1-1.7-1-3v-11.2c0-2.2-0.3-3.9-0.9-5.1c-0.6-1.2-1.9-1.8-3.7-1.8c-1.2,0-2.3,0.4-3.3,1.1c-1,0.7-1.7,1.7-2.2,3
				c-0.4,1-0.5,2.8-0.5,5.6v8.4c0,1.4-0.3,2.4-1,3.1c-0.6,0.7-1.4,1-2.4,1c-1,0-1.8-0.4-2.4-1.1c-0.7-0.7-1-1.7-1-3v-19.4
				c0-1.3,0.3-2.3,0.9-2.9c0.6-0.7,1.3-1,2.3-1c0.6,0,1.1,0.2,1.6,0.4c0.5,0.3,0.9,0.7,1.1,1.3C100,169.4,100.1,170.1,100.1,171z"/>
			<path d="M147.2,186.3c0,0.9-0.3,1.7-0.8,2.7c-0.5,1-1.3,1.9-2.3,2.7c-1,0.9-2.3,1.6-3.9,2.1c-1.6,0.6-3.3,0.8-5.3,0.8
				c-4.1,0-7.4-1.2-9.7-3.6c-2.4-2.4-3.5-5.7-3.5-9.7c0-2.8,0.6-5.2,1.6-7.3c1.1-2.1,2.6-3.8,4.6-4.9c2-1.2,4.4-1.7,7.2-1.7
				c1.8,0,3.4,0.3,4.8,0.8c1.5,0.5,2.7,1.2,3.7,2c1,0.8,1.8,1.7,2.3,2.6c0.6,0.9,0.8,1.8,0.8,2.6s-0.3,1.5-0.9,2.1
				c-0.6,0.6-1.4,0.8-2.2,0.8c-0.6,0-1-0.2-1.4-0.4c-0.4-0.3-0.8-0.8-1.3-1.4c-0.8-1.3-1.7-2.2-2.6-2.8c-0.9-0.6-2-0.9-3.4-0.9
				c-2,0-3.6,0.8-4.8,2.3c-1.2,1.6-1.8,3.7-1.8,6.4c0,1.3,0.2,2.4,0.5,3.5c0.4,1.1,0.8,2,1.4,2.7c0.6,0.8,1.3,1.3,2.2,1.7
				c0.8,0.4,1.8,0.6,2.7,0.6c1.4,0,2.5-0.3,3.5-1c1-0.6,1.8-1.6,2.6-2.8c0.4-0.8,0.8-1.4,1.3-1.8c0.5-0.5,1.1-0.7,1.8-0.7
				c0.8,0,1.5,0.3,2,1C147,184.9,147.2,185.5,147.2,186.3z"/>
			<path d="M155,164.1c-0.9,0-1.7-0.3-2.4-0.9c-0.7-0.6-1-1.4-1-2.4c0-1,0.4-1.8,1-2.4c0.7-0.6,1.5-0.9,2.4-0.9
				c0.9,0,1.7,0.3,2.3,0.8c0.7,0.6,1,1.4,1,2.5c0,1-0.3,1.8-1,2.4C156.7,163.8,155.9,164.1,155,164.1z M158.3,171.1v19.4
				c0,1.4-0.3,2.4-1,3c-0.7,0.7-1.5,1.1-2.4,1.1c-1,0-1.8-0.4-2.4-1.1c-0.6-0.7-0.9-1.7-0.9-3v-19.2c0-1.4,0.3-2.4,0.9-3
				c0.7-0.7,1.4-1,2.4-1c1,0,1.8,0.4,2.4,1C158,168.9,158.3,169.8,158.3,171.1z"/>
			<path d="M180.9,190.8c-1.6,1.3-3.2,2.2-4.7,2.8c-1.5,0.7-3.2,1-5.1,1c-1.7,0-3.2-0.4-4.5-1c-1.3-0.7-2.3-1.6-3-2.8
				c-0.7-1.2-1.1-2.4-1.1-3.8c0-1.9,0.6-3.4,1.8-4.7c1.2-1.3,2.8-2.2,4.8-2.6c0.5-0.1,1.5-0.4,3.2-0.7c1.7-0.3,3.1-0.7,4.3-0.9
				c1.2-0.3,2.5-0.7,3.9-1.1c-0.1-1.8-0.5-3.1-1.1-3.9c-0.7-0.9-2-1.3-3.9-1.3c-1.7,0-3,0.3-3.8,0.7c-0.9,0.5-1.6,1.2-2.2,2.2
				c-0.7,0.9-1.1,1.6-1.3,1.9c-0.3,0.3-0.8,0.5-1.7,0.5c-0.8,0-1.4-0.3-2-0.8c-0.5-0.5-0.8-1.1-0.8-1.8c0-1.2,0.4-2.4,1.3-3.5
				c0.9-1.1,2.1-2,3.9-2.8c1.8-0.7,4-1.1,6.6-1.1c3,0,5.3,0.4,7,1.1c1.7,0.7,2.9,1.8,3.6,3.3c0.7,1.5,1.1,3.5,1.1,6.1
				c0,1.6,0,2.9,0,4c0,1.1-0.1,2.3-0.1,3.7c0,1.3,0.2,2.6,0.7,3.9c0.4,1.4,0.6,2.3,0.6,2.7c0,0.7-0.3,1.3-1,1.9
				c-0.7,0.6-1.4,0.9-2.2,0.9c-0.7,0-1.4-0.3-2.1-1C182.3,193,181.6,192,180.9,190.8z M180.4,181.1c-1,0.4-2.4,0.8-4.3,1.2
				s-3.2,0.7-3.9,0.9c-0.8,0.2-1.4,0.6-2.1,1.1c-0.7,0.6-1,1.3-1,2.3s0.4,1.9,1.2,2.6c0.8,0.7,1.8,1.1,3,1.1c1.3,0,2.6-0.3,3.7-0.9
				c1.1-0.6,2-1.4,2.5-2.3c0.6-1,0.9-2.7,0.9-5V181.1z"/>
			<path class="st2" d="M230.9,186.3c0,0.9-0.3,1.7-0.8,2.7s-1.3,1.9-2.3,2.7c-1,0.9-2.3,1.6-3.9,2.1c-1.6,0.6-3.3,0.8-5.3,0.8
				c-4.1,0-7.4-1.2-9.7-3.6c-2.4-2.4-3.5-5.7-3.5-9.7c0-2.8,0.6-5.2,1.6-7.3c1.1-2.1,2.6-3.8,4.6-4.9c2-1.2,4.4-1.7,7.2-1.7
				c1.8,0,3.4,0.3,4.8,0.8c1.5,0.5,2.7,1.2,3.7,2c1,0.8,1.8,1.7,2.3,2.6c0.6,0.9,0.8,1.8,0.8,2.6s-0.3,1.5-0.9,2.1
				c-0.6,0.6-1.4,0.8-2.2,0.8c-0.6,0-1-0.2-1.4-0.4c-0.4-0.3-0.8-0.8-1.3-1.4c-0.8-1.3-1.7-2.2-2.6-2.8c-0.9-0.6-2-0.9-3.4-0.9
				c-2,0-3.6,0.8-4.8,2.3c-1.2,1.6-1.8,3.7-1.8,6.4c0,1.3,0.2,2.4,0.5,3.5c0.4,1.1,0.8,2,1.4,2.7c0.6,0.8,1.3,1.3,2.2,1.7
				c0.8,0.4,1.8,0.6,2.7,0.6c1.4,0,2.5-0.3,3.5-1c1-0.6,1.8-1.6,2.6-2.8c0.4-0.8,0.8-1.4,1.3-1.8c0.5-0.5,1.1-0.7,1.8-0.7
				c0.8,0,1.5,0.3,2,1C230.6,184.9,230.9,185.5,230.9,186.3z"/>
			<path class="st2" d="M260.5,180.9c0,2-0.3,3.8-0.9,5.6c-0.7,1.7-1.6,3.1-2.7,4.3c-1.2,1.2-2.6,2.2-4.2,2.8c-1.7,0.7-3.5,1-5.6,1
				c-2.1,0-3.9-0.3-5.5-1c-1.6-0.7-3-1.6-4.2-2.8c-1.2-1.2-2.1-2.6-2.7-4.3c-0.6-1.7-0.9-3.5-0.9-5.6c0-2,0.3-3.9,1-5.6
				c0.6-1.7,1.5-3.1,2.7-4.3c1.2-1.2,2.6-2.1,4.2-2.8c1.7-0.7,3.5-1,5.5-1c2,0,3.9,0.3,5.6,1c1.7,0.7,3.1,1.6,4.2,2.8
				c1.2,1.2,2.1,2.7,2.7,4.3C260.2,177,260.5,178.9,260.5,180.9z M253.7,180.9c0-2.7-0.6-4.8-1.8-6.4c-1.2-1.5-2.8-2.3-4.8-2.3
				c-1.3,0-2.5,0.4-3.5,1c-1,0.7-1.8,1.7-2.3,3c-0.6,1.3-0.8,2.9-0.8,4.6c0,1.8,0.3,3.3,0.8,4.6c0.6,1.3,1.3,2.3,2.3,3
				c1,0.7,2.2,1.1,3.5,1.1c2,0,3.6-0.8,4.8-2.3C253.1,185.7,253.7,183.6,253.7,180.9z"/>
			<path class="st2" d="M286.7,181.4v8.9c0,1.4-0.3,2.5-1,3.2c-0.7,0.7-1.5,1.1-2.5,1.1c-1,0-1.9-0.4-2.5-1.1c-0.7-0.7-1-1.8-1-3.2
				v-10.7c0-1.7-0.1-3-0.2-4c-0.2-0.9-0.5-1.7-1-2.3c-0.5-0.6-1.3-0.9-2.4-0.9c-2.2,0-3.6,0.8-4.3,2.3c-0.7,1.5-1.1,3.7-1.1,6.5v9.1
				c0,1.4-0.3,2.5-1,3.2c-0.6,0.7-1.5,1.1-2.5,1.1c-1,0-1.9-0.4-2.5-1.1c-0.6-0.7-1-1.8-1-3.2v-19.2c0-1.3,0.3-2.3,0.9-2.9
				c0.6-0.7,1.4-1,2.3-1c0.9,0,1.7,0.3,2.3,0.9c0.6,0.6,0.9,1.5,0.9,2.6v0.6c1.2-1.4,2.4-2.4,3.7-3.1c1.3-0.7,2.8-1,4.4-1
				c1.7,0,3.1,0.4,4.3,1c1.3,0.7,2.2,1.7,3,3c1.1-1.4,2.4-2.4,3.6-3c1.3-0.7,2.7-1,4.3-1c1.8,0,3.4,0.4,4.7,1.1
				c1.3,0.8,2.3,1.8,3,3.1c0.6,1.2,0.9,3.1,0.9,5.8v13.1c0,1.4-0.3,2.5-1,3.2c-0.7,0.7-1.5,1.1-2.5,1.1c-1,0-1.9-0.4-2.5-1.1
				c-0.6-0.7-1-1.8-1-3.2V179c0-1.5-0.1-2.6-0.2-3.5c-0.1-0.9-0.5-1.6-1-2.2c-0.6-0.6-1.4-0.9-2.5-0.9c-0.9,0-1.8,0.3-2.5,0.8
				c-0.8,0.5-1.4,1.2-1.9,2.1C287,176.5,286.7,178.5,286.7,181.4z"/>
		</g>
	</g>
</g>
<g id="Grid" class="st94">
	<g class="st95">
		<rect x="8.1" y="-6681.8" class="st96" width="82.2" height="9172"/>
		<rect x="117" y="-6681.8" class="st96" width="82.2" height="9172"/>
	</g>
</g>
</svg>
