<?xml version="1.0" encoding="utf-8"?>
<!-- Generator: Adobe Illustrator 24.2.0, SVG Export Plug-In . SVG Version: 6.00 Build 0)  -->
<svg version="1.1" xmlns="http://www.w3.org/2000/svg" xmlns:xlink="http://www.w3.org/1999/xlink" x="0px" y="0px"
	 viewBox="0 0 435.5 73.4" style="enable-background:new 0 0 435.5 73.4;" xml:space="preserve">
<style type="text/css">
	.st0{fill:#FBFCFD;}
	.st1{fill:#EEF1F3;}
	.st2{fill:#08C6B5;}
	.st3{opacity:0.15;clip-path:url(#SVGID_2_);}
	.st4{fill:#FFFFFF;}
	.st5{opacity:0.35;clip-path:url(#SVGID_2_);}
	.st6{clip-path:url(#SVGID_4_);fill:#08C6B5;}
	.st7{fill-rule:evenodd;clip-rule:evenodd;fill:#08C6B5;}
	.st8{fill-rule:evenodd;clip-rule:evenodd;fill:#F5F5F5;}
	.st9{fill:#F5F5F5;}
	.st10{opacity:0.25;}
	.st11{fill:none;stroke:#A4A4A4;stroke-width:2;stroke-miterlimit:10;}
	.st12{fill-rule:evenodd;clip-rule:evenodd;}
	.st13{opacity:0.75;}
	.st14{fill:none;stroke:#08C6B5;stroke-miterlimit:10;}
	.st15{fill-rule:evenodd;clip-rule:evenodd;fill:#07A490;}
	.st16{fill:none;stroke:#FFFFFF;stroke-miterlimit:10;}
	.st17{opacity:0.1;}
	.st18{opacity:0.2;clip-path:url(#SVGID_8_);}
	.st19{opacity:0.2;clip-path:url(#SVGID_10_);}
	.st20{opacity:0.15;clip-path:url(#SVGID_12_);}
	.st21{opacity:0.35;clip-path:url(#SVGID_12_);}
	.st22{opacity:0.15;clip-path:url(#SVGID_16_);}
	.st23{opacity:0.35;clip-path:url(#SVGID_16_);}
	.st24{opacity:0.15;clip-path:url(#SVGID_18_);}
	.st25{opacity:0.35;clip-path:url(#SVGID_18_);}
	.st26{opacity:0.15;clip-path:url(#SVGID_20_);}
	.st27{opacity:0.35;clip-path:url(#SVGID_20_);}
	.st28{opacity:0.15;clip-path:url(#SVGID_28_);}
	.st29{opacity:0.35;clip-path:url(#SVGID_28_);}
	.st30{opacity:0.15;clip-path:url(#SVGID_30_);}
	.st31{opacity:0.35;clip-path:url(#SVGID_30_);}
	.st32{opacity:0.15;clip-path:url(#SVGID_32_);}
	.st33{opacity:0.35;clip-path:url(#SVGID_32_);}
	.st34{fill:#E2E7E9;}
	.st35{opacity:0.35;clip-path:url(#SVGID_34_);}
	.st36{opacity:0.15;clip-path:url(#SVGID_34_);}
	.st37{fill:#272525;}
	.st38{opacity:0.35;clip-path:url(#SVGID_36_);}
	.st39{opacity:0.15;clip-path:url(#SVGID_36_);}
	.st40{opacity:0.35;clip-path:url(#SVGID_38_);}
	.st41{fill:none;stroke:#000000;stroke-miterlimit:10;}
	.st42{opacity:0.35;clip-path:url(#SVGID_40_);}
	.st43{opacity:0.15;clip-path:url(#SVGID_40_);}
	.st44{fill:none;stroke:#A4A4A4;stroke-miterlimit:10;}
	.st45{fill-rule:evenodd;clip-rule:evenodd;fill:#FFFFFF;}
	.st46{fill-rule:evenodd;clip-rule:evenodd;fill:none;stroke:#F5F5F5;stroke-miterlimit:10;}
	
		.st47{fill-rule:evenodd;clip-rule:evenodd;fill:none;stroke:#9D9D9D;stroke-linecap:round;stroke-linejoin:round;stroke-miterlimit:10;}
	.st48{clip-path:url(#SVGID_76_);fill:#08C6B5;}
	.st49{clip-path:url(#SVGID_76_);}
	.st50{fill-rule:evenodd;clip-rule:evenodd;fill:none;stroke:#FFFFFF;stroke-miterlimit:10;}
	.st51{opacity:0.35;clip-path:url(#SVGID_82_);}
	.st52{opacity:0.35;clip-path:url(#SVGID_84_);}
	.st53{opacity:0.15;clip-path:url(#SVGID_84_);}
	.st54{clip-path:url(#SVGID_88_);}
	.st55{clip-path:url(#SVGID_88_);fill:#FFFFFF;}
	.st56{clip-path:url(#SVGID_96_);fill:#08C6B5;}
	.st57{clip-path:url(#SVGID_98_);fill:#FFFFFF;}
	.st58{clip-path:url(#SVGID_100_);fill:#08C6B5;}
	.st59{clip-path:url(#SVGID_100_);}
	.st60{clip-path:url(#SVGID_104_);fill:#08C6B5;}
	.st61{clip-path:url(#SVGID_104_);}
	.st62{opacity:0.15;clip-path:url(#SVGID_108_);}
	.st63{opacity:0.35;clip-path:url(#SVGID_108_);}
	.st64{clip-path:url(#SVGID_110_);fill:#08C6B5;}
	.st65{clip-path:url(#SVGID_110_);}
	.st66{opacity:0.15;clip-path:url(#SVGID_114_);}
	.st67{opacity:0.35;clip-path:url(#SVGID_114_);}
	.st68{clip-path:url(#SVGID_116_);fill:#08C6B5;}
	.st69{clip-path:url(#SVGID_116_);}
	.st70{opacity:0.15;clip-path:url(#SVGID_120_);}
	.st71{opacity:0.35;clip-path:url(#SVGID_120_);}
	.st72{clip-path:url(#SVGID_122_);fill:#08C6B5;}
	.st73{clip-path:url(#SVGID_124_);fill:#FFFFFF;}
	.st74{fill:none;stroke:#FFFFFF;stroke-width:2;stroke-miterlimit:10;}
	.st75{opacity:0.35;clip-path:url(#SVGID_136_);}
	.st76{opacity:0.15;clip-path:url(#SVGID_136_);}
	.st77{opacity:0.35;clip-path:url(#SVGID_138_);}
	.st78{opacity:0.35;clip-path:url(#SVGID_140_);}
	.st79{opacity:0.15;clip-path:url(#SVGID_140_);}
	.st80{opacity:0.35;clip-path:url(#SVGID_142_);}
	.st81{opacity:0.15;clip-path:url(#SVGID_142_);}
	.st82{opacity:0.35;clip-path:url(#SVGID_144_);}
	.st83{opacity:0.15;clip-path:url(#SVGID_144_);}
	.st84{opacity:0.35;clip-path:url(#SVGID_148_);}
	.st85{opacity:0.35;clip-path:url(#SVGID_150_);}
	.st86{opacity:0.15;clip-path:url(#SVGID_150_);}
	.st87{opacity:0.35;clip-path:url(#SVGID_152_);}
	.st88{opacity:0.15;clip-path:url(#SVGID_152_);}
	.st89{opacity:0.35;clip-path:url(#SVGID_154_);}
	.st90{opacity:0.15;clip-path:url(#SVGID_154_);}
	.st91{opacity:0.35;clip-path:url(#SVGID_156_);}
	.st92{opacity:0.15;clip-path:url(#SVGID_156_);}
	.st93{fill:#00ADEE;}
	.st94{display:none;}
	.st95{display:inline;}
	.st96{opacity:0.2;fill:#931127;}
</style>
<g id="Graphic">
	<g>
		<g>
			<g>
				
					<rect x="34.5" y="32.7" transform="matrix(0.7955 -0.606 0.606 0.7955 -14.184 31.899)" class="st7" width="11.4" height="8.6"/>
				<polygon class="st45" points="34.5,66.3 9.7,33.7 9.8,33.7 9.7,33.6 32,16.6 37.2,23.4 21.7,35.3 41.3,61.1 				"/>
				<polygon class="st7" points="69.2,39.8 46.9,56.8 41.7,50 57.2,38.1 37.6,12.3 44.4,7.1 69.2,39.7 69.2,39.7 				"/>
			</g>
			<g>
				<path class="st4" d="M90.1,32.6h1v-1.2c0-1.3,0.2-2.3,0.5-3c0.3-0.7,0.8-1.3,1.6-1.6c0.8-0.3,1.8-0.5,3.1-0.5
					c2.4,0,3.5,0.6,3.5,1.7c0,0.4-0.1,0.7-0.4,1c-0.3,0.2-0.5,0.4-0.9,0.4c-0.2,0-0.4,0-0.8-0.1s-0.7-0.1-1-0.1
					c-0.7,0-1.2,0.2-1.4,0.6c-0.2,0.4-0.3,1.1-0.3,1.8v1h1c1.5,0,2.3,0.5,2.3,1.4c0,0.6-0.2,1.1-0.6,1.2c-0.4,0.2-1,0.3-1.7,0.3h-1
					v10.7c0,0.8-0.2,1.4-0.6,1.8c-0.4,0.4-0.8,0.6-1.5,0.6c-0.6,0-1.1-0.2-1.4-0.6c-0.4-0.4-0.6-1-0.6-1.8V35.5H90
					c-0.6,0-1.1-0.2-1.4-0.4c-0.3-0.3-0.5-0.6-0.5-1.1C88.1,33.1,88.8,32.6,90.1,32.6z"/>
				<path class="st4" d="M102.1,30.3c-0.5,0-1-0.2-1.4-0.5c-0.4-0.3-0.6-0.8-0.6-1.5c0-0.6,0.2-1.1,0.6-1.4c0.4-0.4,0.9-0.5,1.4-0.5
					c0.5,0,1,0.2,1.4,0.5c0.4,0.4,0.6,0.8,0.6,1.5c0,0.6-0.2,1.1-0.6,1.5C103.1,30.2,102.6,30.3,102.1,30.3z M104.1,34.5v11.6
					c0,0.8-0.2,1.4-0.6,1.8c-0.4,0.4-0.9,0.6-1.5,0.6c-0.6,0-1.1-0.2-1.5-0.6c-0.4-0.4-0.5-1-0.5-1.8V34.6c0-0.8,0.2-1.4,0.5-1.8
					c0.4-0.4,0.8-0.6,1.5-0.6c0.6,0,1.1,0.2,1.5,0.6S104.1,33.8,104.1,34.5z"/>
				<path class="st4" d="M111,34.4v0.5c0.7-0.9,1.5-1.6,2.3-2.1c0.8-0.5,1.8-0.7,2.9-0.7c1.1,0,2,0.2,2.8,0.7c0.8,0.5,1.5,1.1,1.9,2
					c0.3,0.5,0.5,1,0.5,1.6c0.1,0.5,0.1,1.3,0.1,2.2v7.5c0,0.8-0.2,1.4-0.5,1.8c-0.4,0.4-0.8,0.6-1.5,0.6s-1.1-0.2-1.5-0.6
					c-0.4-0.4-0.6-1-0.6-1.8v-6.7c0-1.3-0.2-2.4-0.5-3.1c-0.4-0.7-1.1-1.1-2.2-1.1c-0.7,0-1.4,0.2-2,0.6c-0.6,0.4-1,1-1.3,1.8
					c-0.2,0.6-0.3,1.7-0.3,3.4v5c0,0.8-0.2,1.4-0.6,1.8c-0.4,0.4-0.8,0.6-1.5,0.6c-0.6,0-1.1-0.2-1.4-0.6c-0.4-0.4-0.6-1-0.6-1.8
					V34.5c0-0.8,0.2-1.4,0.5-1.7c0.3-0.4,0.8-0.6,1.4-0.6c0.4,0,0.7,0.1,1,0.2c0.3,0.2,0.5,0.4,0.7,0.8C110.9,33.5,111,34,111,34.4z
					"/>
				<path class="st4" d="M134.9,46.3c-1,0.8-1.9,1.3-2.8,1.7c-0.9,0.4-1.9,0.6-3.1,0.6c-1,0-1.9-0.2-2.7-0.6c-0.8-0.4-1.4-1-1.8-1.7
					c-0.4-0.7-0.6-1.5-0.6-2.3c0-1.1,0.4-2.1,1.1-2.8c0.7-0.8,1.7-1.3,2.9-1.5c0.3-0.1,0.9-0.2,1.9-0.4c1-0.2,1.9-0.4,2.6-0.5
					c0.7-0.2,1.5-0.4,2.4-0.6c-0.1-1.1-0.3-1.8-0.6-2.3c-0.4-0.5-1.2-0.8-2.4-0.8c-1,0-1.8,0.2-2.3,0.4c-0.5,0.3-1,0.7-1.3,1.3
					c-0.4,0.5-0.6,0.9-0.8,1.1c-0.2,0.2-0.5,0.3-1,0.3c-0.5,0-0.8-0.2-1.2-0.5c-0.3-0.3-0.5-0.6-0.5-1.1c0-0.7,0.2-1.4,0.8-2.1
					c0.5-0.7,1.3-1.2,2.4-1.7c1.1-0.4,2.4-0.6,4-0.6c1.8,0,3.2,0.2,4.2,0.6c1,0.4,1.7,1.1,2.1,2c0.4,0.9,0.6,2.1,0.6,3.6
					c0,0.9,0,1.7,0,2.4c0,0.7,0,1.4,0,2.2c0,0.8,0.1,1.5,0.4,2.4c0.2,0.8,0.4,1.4,0.4,1.6c0,0.4-0.2,0.8-0.6,1.1
					c-0.4,0.3-0.8,0.5-1.3,0.5c-0.4,0-0.8-0.2-1.2-0.6C135.8,47.6,135.4,47,134.9,46.3z M134.7,40.5c-0.6,0.2-1.5,0.5-2.6,0.7
					s-1.9,0.4-2.3,0.5c-0.5,0.1-0.8,0.3-1.2,0.7c-0.4,0.3-0.6,0.8-0.6,1.4c0,0.6,0.2,1.1,0.7,1.6c0.5,0.4,1.1,0.6,1.8,0.6
					c0.8,0,1.5-0.2,2.2-0.5c0.7-0.4,1.2-0.8,1.5-1.4c0.4-0.6,0.5-1.6,0.5-3V40.5z"/>
				<path class="st4" d="M145.5,34.4v0.5c0.7-0.9,1.5-1.6,2.3-2.1c0.8-0.5,1.8-0.7,2.9-0.7c1.1,0,2,0.2,2.8,0.7
					c0.8,0.5,1.5,1.1,1.9,2c0.3,0.5,0.5,1,0.5,1.6c0.1,0.5,0.1,1.3,0.1,2.2v7.5c0,0.8-0.2,1.4-0.5,1.8c-0.4,0.4-0.8,0.6-1.5,0.6
					c-0.6,0-1.1-0.2-1.5-0.6c-0.4-0.4-0.6-1-0.6-1.8v-6.7c0-1.3-0.2-2.4-0.5-3.1c-0.4-0.7-1.1-1.1-2.2-1.1c-0.7,0-1.4,0.2-2,0.6
					c-0.6,0.4-1,1-1.3,1.8c-0.2,0.6-0.3,1.7-0.3,3.4v5c0,0.8-0.2,1.4-0.6,1.8c-0.4,0.4-0.8,0.6-1.5,0.6c-0.6,0-1.1-0.2-1.4-0.6
					c-0.4-0.4-0.6-1-0.6-1.8V34.5c0-0.8,0.2-1.4,0.5-1.7c0.3-0.4,0.8-0.6,1.4-0.6c0.4,0,0.7,0.1,1,0.2c0.3,0.2,0.5,0.4,0.7,0.8
					C145.4,33.5,145.5,34,145.5,34.4z"/>
				<path class="st4" d="M173.7,43.6c0,0.5-0.2,1-0.5,1.6c-0.3,0.6-0.8,1.1-1.4,1.6s-1.4,0.9-2.3,1.2c-0.9,0.3-2,0.5-3.2,0.5
					c-2.5,0-4.4-0.7-5.8-2.2c-1.4-1.5-2.1-3.4-2.1-5.8c0-1.7,0.3-3.1,1-4.4s1.6-2.3,2.8-3c1.2-0.7,2.7-1,4.3-1c1.1,0,2,0.2,2.9,0.5
					c0.9,0.3,1.6,0.7,2.2,1.2c0.6,0.5,1.1,1,1.4,1.5c0.3,0.5,0.5,1.1,0.5,1.5c0,0.5-0.2,0.9-0.5,1.2c-0.4,0.3-0.8,0.5-1.3,0.5
					c-0.3,0-0.6-0.1-0.8-0.2c-0.2-0.2-0.5-0.5-0.8-0.8c-0.5-0.8-1-1.3-1.5-1.7c-0.5-0.4-1.2-0.5-2.1-0.5c-1.2,0-2.1,0.5-2.9,1.4
					c-0.7,0.9-1.1,2.2-1.1,3.8c0,0.8,0.1,1.5,0.3,2.1c0.2,0.6,0.5,1.2,0.8,1.6c0.4,0.5,0.8,0.8,1.3,1c0.5,0.2,1.1,0.4,1.6,0.4
					c0.8,0,1.5-0.2,2.1-0.6c0.6-0.4,1.1-0.9,1.5-1.7c0.2-0.5,0.5-0.8,0.8-1.1c0.3-0.3,0.6-0.4,1.1-0.4c0.5,0,0.9,0.2,1.2,0.6
					C173.5,42.8,173.7,43.2,173.7,43.6z"/>
				<path class="st4" d="M178.3,30.3c-0.5,0-1-0.2-1.4-0.5c-0.4-0.3-0.6-0.8-0.6-1.5c0-0.6,0.2-1.1,0.6-1.4c0.4-0.4,0.9-0.5,1.4-0.5
					s1,0.2,1.4,0.5c0.4,0.4,0.6,0.8,0.6,1.5c0,0.6-0.2,1.1-0.6,1.5C179.4,30.2,178.9,30.3,178.3,30.3z M180.3,34.5v11.6
					c0,0.8-0.2,1.4-0.6,1.8c-0.4,0.4-0.9,0.6-1.5,0.6c-0.6,0-1.1-0.2-1.5-0.6c-0.4-0.4-0.5-1-0.5-1.8V34.6c0-0.8,0.2-1.4,0.5-1.8
					c0.4-0.4,0.8-0.6,1.5-0.6c0.6,0,1.1,0.2,1.5,0.6S180.3,33.8,180.3,34.5z"/>
				<path class="st4" d="M193.8,46.3c-1,0.8-1.9,1.3-2.8,1.7c-0.9,0.4-1.9,0.6-3.1,0.6c-1,0-1.9-0.2-2.7-0.6c-0.8-0.4-1.4-1-1.8-1.7
					c-0.4-0.7-0.6-1.5-0.6-2.3c0-1.1,0.4-2.1,1.1-2.8c0.7-0.8,1.7-1.3,2.9-1.5c0.3-0.1,0.9-0.2,1.9-0.4c1-0.2,1.9-0.4,2.6-0.5
					c0.7-0.2,1.5-0.4,2.4-0.6c-0.1-1.1-0.3-1.8-0.6-2.3c-0.4-0.5-1.2-0.8-2.4-0.8c-1,0-1.8,0.2-2.3,0.4c-0.5,0.3-1,0.7-1.3,1.3
					c-0.4,0.5-0.6,0.9-0.8,1.1c-0.2,0.2-0.5,0.3-1,0.3c-0.5,0-0.8-0.2-1.2-0.5c-0.3-0.3-0.5-0.6-0.5-1.1c0-0.7,0.2-1.4,0.8-2.1
					c0.5-0.7,1.3-1.2,2.4-1.7c1.1-0.4,2.4-0.6,4-0.6c1.8,0,3.2,0.2,4.2,0.6c1,0.4,1.7,1.1,2.1,2c0.4,0.9,0.6,2.1,0.6,3.6
					c0,0.9,0,1.7,0,2.4c0,0.7,0,1.4,0,2.2c0,0.8,0.1,1.5,0.4,2.4c0.2,0.8,0.4,1.4,0.4,1.6c0,0.4-0.2,0.8-0.6,1.1
					c-0.4,0.3-0.8,0.5-1.3,0.5c-0.4,0-0.8-0.2-1.2-0.6C194.7,47.6,194.3,47,193.8,46.3z M193.5,40.5c-0.6,0.2-1.5,0.5-2.6,0.7
					s-1.9,0.4-2.3,0.5c-0.5,0.1-0.8,0.3-1.2,0.7c-0.4,0.3-0.6,0.8-0.6,1.4c0,0.6,0.2,1.1,0.7,1.6c0.5,0.4,1.1,0.6,1.8,0.6
					c0.8,0,1.5-0.2,2.2-0.5c0.7-0.4,1.2-0.8,1.5-1.4c0.4-0.6,0.5-1.6,0.5-3V40.5z"/>
				<path class="st2" d="M203.4,48.6c-0.6,0-1.1-0.2-1.6-0.6c-0.5-0.4-0.7-0.9-0.7-1.6c0-0.6,0.2-1.1,0.6-1.6
					c0.4-0.4,0.9-0.6,1.6-0.6c0.6,0,1.1,0.2,1.6,0.6c0.5,0.4,0.7,0.9,0.7,1.6c0,0.7-0.2,1.2-0.7,1.6C204.5,48.4,204,48.6,203.4,48.6
					z"/>
				<path class="st2" d="M223.7,43.6c0,0.5-0.2,1-0.5,1.6c-0.3,0.6-0.8,1.1-1.4,1.6c-0.6,0.5-1.4,0.9-2.3,1.2
					c-0.9,0.3-2,0.5-3.2,0.5c-2.5,0-4.4-0.7-5.8-2.2c-1.4-1.5-2.1-3.4-2.1-5.8c0-1.7,0.3-3.1,1-4.4s1.6-2.3,2.8-3
					c1.2-0.7,2.7-1,4.3-1c1.1,0,2,0.2,2.9,0.5c0.9,0.3,1.6,0.7,2.2,1.2c0.6,0.5,1.1,1,1.4,1.5c0.3,0.5,0.5,1.1,0.5,1.5
					c0,0.5-0.2,0.9-0.5,1.2c-0.4,0.3-0.8,0.5-1.3,0.5c-0.3,0-0.6-0.1-0.8-0.2c-0.2-0.2-0.5-0.5-0.8-0.8c-0.5-0.8-1-1.3-1.5-1.7
					c-0.5-0.4-1.2-0.5-2.1-0.5c-1.2,0-2.1,0.5-2.9,1.4s-1.1,2.2-1.1,3.8c0,0.8,0.1,1.5,0.3,2.1c0.2,0.6,0.5,1.2,0.8,1.6
					c0.4,0.5,0.8,0.8,1.3,1c0.5,0.2,1.1,0.4,1.6,0.4c0.8,0,1.5-0.2,2.1-0.6c0.6-0.4,1.1-0.9,1.5-1.7c0.2-0.5,0.5-0.8,0.8-1.1
					c0.3-0.3,0.6-0.4,1.1-0.4c0.5,0,0.9,0.2,1.2,0.6C223.6,42.8,223.7,43.2,223.7,43.6z"/>
				<path class="st2" d="M241.5,40.4c0,1.2-0.2,2.3-0.5,3.3c-0.4,1-0.9,1.9-1.6,2.6c-0.7,0.7-1.6,1.3-2.5,1.7
					c-1,0.4-2.1,0.6-3.3,0.6s-2.3-0.2-3.3-0.6c-1-0.4-1.8-0.9-2.5-1.7c-0.7-0.7-1.2-1.6-1.6-2.6c-0.4-1-0.5-2.1-0.5-3.3
					s0.2-2.3,0.6-3.4c0.4-1,0.9-1.9,1.6-2.6s1.5-1.3,2.5-1.7c1-0.4,2.1-0.6,3.3-0.6s2.3,0.2,3.3,0.6c1,0.4,1.8,1,2.5,1.7
					c0.7,0.7,1.3,1.6,1.6,2.6C241.3,38.1,241.5,39.2,241.5,40.4z M237.4,40.4c0-1.6-0.4-2.9-1.1-3.8c-0.7-0.9-1.7-1.4-2.9-1.4
					c-0.8,0-1.5,0.2-2.1,0.6c-0.6,0.4-1.1,1-1.4,1.8c-0.3,0.8-0.5,1.7-0.5,2.8s0.2,2,0.5,2.7c0.3,0.8,0.8,1.4,1.4,1.8
					c0.6,0.4,1.3,0.6,2.1,0.6c1.2,0,2.2-0.5,2.9-1.4C237.1,43.3,237.4,42,237.4,40.4z"/>
				<path class="st2" d="M257.2,40.7V46c0,0.8-0.2,1.5-0.6,1.9s-0.9,0.6-1.5,0.6c-0.6,0-1.1-0.2-1.5-0.6c-0.4-0.4-0.6-1.1-0.6-1.9
					v-6.4c0-1,0-1.8-0.1-2.4c-0.1-0.5-0.3-1-0.6-1.4c-0.3-0.4-0.8-0.5-1.5-0.5c-1.3,0-2.2,0.5-2.6,1.4c-0.4,0.9-0.6,2.2-0.6,3.9V46
					c0,0.8-0.2,1.5-0.6,1.9c-0.4,0.4-0.9,0.6-1.5,0.6c-0.6,0-1.1-0.2-1.5-0.6c-0.4-0.4-0.6-1.1-0.6-1.9V34.5c0-0.8,0.2-1.4,0.5-1.8
					c0.4-0.4,0.8-0.6,1.4-0.6c0.5,0,1,0.2,1.4,0.5c0.4,0.4,0.5,0.9,0.5,1.5v0.4c0.7-0.8,1.5-1.5,2.2-1.8s1.7-0.6,2.7-0.6
					c1,0,1.9,0.2,2.6,0.6c0.8,0.4,1.3,1,1.8,1.8c0.7-0.8,1.4-1.4,2.2-1.8c0.8-0.4,1.6-0.6,2.6-0.6c1.1,0,2.1,0.2,2.8,0.6
					c0.8,0.5,1.4,1.1,1.8,1.9c0.3,0.7,0.5,1.9,0.5,3.4V46c0,0.8-0.2,1.5-0.6,1.9s-0.9,0.6-1.5,0.6c-0.6,0-1.1-0.2-1.5-0.6
					c-0.4-0.4-0.6-1.1-0.6-1.9v-6.8c0-0.9,0-1.6-0.1-2.1c-0.1-0.5-0.3-1-0.6-1.3c-0.3-0.3-0.8-0.5-1.5-0.5c-0.5,0-1.1,0.2-1.5,0.5
					c-0.5,0.3-0.8,0.7-1.1,1.3C257.3,37.8,257.2,39,257.2,40.7z"/>
			</g>
		</g>
		<g>
			<path class="st4" d="M288.1,41.4h-1.4v2.1c0,0.3-0.1,0.5-0.2,0.7c-0.1,0.2-0.3,0.2-0.5,0.2c-0.2,0-0.4-0.1-0.5-0.2
				c-0.1-0.2-0.2-0.4-0.2-0.7v-5.7c0-0.3,0.1-0.6,0.2-0.7c0.2-0.1,0.4-0.2,0.7-0.2h1.9c0.6,0,1,0,1.3,0.1c0.3,0.1,0.6,0.2,0.8,0.4
				s0.4,0.4,0.5,0.7c0.1,0.3,0.2,0.6,0.2,1c0,0.7-0.2,1.3-0.7,1.7C289.7,41.2,289,41.4,288.1,41.4z M287.8,38.1h-1v2.2h1
				c0.3,0,0.6,0,0.9-0.1c0.2-0.1,0.4-0.2,0.5-0.4s0.2-0.4,0.2-0.7c0-0.3-0.1-0.6-0.3-0.8C288.9,38.2,288.4,38.1,287.8,38.1z"/>
			<path class="st4" d="M296,36.8c0.8,0,1.4,0.2,2,0.5c0.5,0.3,1,0.7,1.2,1.3c0.3,0.6,0.4,1.2,0.4,2c0,0.6-0.1,1.1-0.2,1.5
				c-0.2,0.5-0.4,0.9-0.7,1.2c-0.3,0.3-0.7,0.6-1.1,0.8c-0.5,0.2-1,0.3-1.5,0.3s-1.1-0.1-1.5-0.3c-0.5-0.2-0.8-0.5-1.1-0.8
				c-0.3-0.3-0.5-0.7-0.7-1.2c-0.2-0.5-0.2-1-0.2-1.5c0-0.6,0.1-1.1,0.2-1.5c0.2-0.5,0.4-0.9,0.7-1.2c0.3-0.3,0.7-0.6,1.1-0.7
				C294.9,36.9,295.4,36.8,296,36.8z M298.1,40.6c0-0.5-0.1-1-0.3-1.4c-0.2-0.4-0.4-0.7-0.7-0.9c-0.3-0.2-0.7-0.3-1.1-0.3
				c-0.3,0-0.6,0.1-0.8,0.2c-0.3,0.1-0.5,0.3-0.7,0.5c-0.2,0.2-0.3,0.5-0.4,0.8c-0.1,0.3-0.2,0.7-0.2,1.1c0,0.4,0.1,0.8,0.2,1.1
				c0.1,0.3,0.3,0.6,0.5,0.8c0.2,0.2,0.4,0.4,0.7,0.5c0.3,0.1,0.5,0.2,0.8,0.2c0.4,0,0.7-0.1,1-0.3c0.3-0.2,0.6-0.5,0.8-0.9
				C298,41.7,298.1,41.2,298.1,40.6z"/>
			<path class="st4" d="M305.9,38.2h-1.6v5.3c0,0.3-0.1,0.5-0.2,0.7c-0.1,0.2-0.3,0.2-0.5,0.2s-0.4-0.1-0.5-0.2
				c-0.1-0.2-0.2-0.4-0.2-0.7v-5.3h-1.6c-0.3,0-0.4-0.1-0.6-0.2c-0.1-0.1-0.2-0.3-0.2-0.5c0-0.2,0.1-0.3,0.2-0.5
				c0.1-0.1,0.3-0.2,0.6-0.2h4.7c0.3,0,0.5,0.1,0.6,0.2c0.1,0.1,0.2,0.3,0.2,0.4c0,0.2-0.1,0.3-0.2,0.5
				C306.4,38.1,306.2,38.2,305.9,38.2z"/>
			<path class="st4" d="M313,38.1h-3.4v1.8h3.1c0.2,0,0.4,0.1,0.5,0.2c0.1,0.1,0.2,0.2,0.2,0.4c0,0.2-0.1,0.3-0.2,0.4
				c-0.1,0.1-0.3,0.2-0.5,0.2h-3.1v2.1h3.5c0.2,0,0.4,0.1,0.5,0.2c0.1,0.1,0.2,0.2,0.2,0.4c0,0.2-0.1,0.3-0.2,0.4
				c-0.1,0.1-0.3,0.2-0.5,0.2h-4c-0.3,0-0.6-0.1-0.7-0.2c-0.1-0.1-0.2-0.4-0.2-0.7v-5.5c0-0.2,0-0.4,0.1-0.5
				c0.1-0.1,0.2-0.2,0.3-0.3c0.1-0.1,0.3-0.1,0.5-0.1h3.9c0.2,0,0.4,0.1,0.5,0.2c0.1,0.1,0.2,0.2,0.2,0.4c0,0.2-0.1,0.3-0.2,0.4
				C313.4,38,313.3,38.1,313,38.1z"/>
			<path class="st4" d="M317.6,37.7l2.9,4.3v-4.4c0-0.3,0.1-0.5,0.2-0.6c0.1-0.1,0.3-0.2,0.5-0.2c0.2,0,0.4,0.1,0.5,0.2
				c0.1,0.1,0.2,0.3,0.2,0.6v5.8c0,0.6-0.3,1-0.8,1c-0.1,0-0.3,0-0.4-0.1c-0.1,0-0.2-0.1-0.3-0.2c-0.1-0.1-0.2-0.2-0.3-0.3
				c-0.1-0.1-0.2-0.2-0.2-0.3l-2.8-4.3v4.3c0,0.3-0.1,0.5-0.2,0.6c-0.1,0.1-0.3,0.2-0.5,0.2s-0.4-0.1-0.5-0.2
				c-0.1-0.1-0.2-0.4-0.2-0.6v-5.7c0-0.2,0-0.4,0.1-0.6c0.1-0.2,0.2-0.3,0.3-0.4c0.1-0.1,0.3-0.1,0.5-0.1c0.1,0,0.2,0,0.3,0.1
				c0.1,0.1,0.2,0.1,0.2,0.2c0.1,0.1,0.1,0.2,0.2,0.3C317.5,37.5,317.5,37.6,317.6,37.7z"/>
			<path class="st4" d="M330.4,42c0,0.2-0.1,0.5-0.2,0.8c-0.1,0.3-0.3,0.5-0.5,0.8c-0.2,0.3-0.6,0.5-0.9,0.6
				c-0.4,0.2-0.8,0.2-1.3,0.2c-0.4,0-0.7,0-1.1-0.1c-0.3-0.1-0.6-0.2-0.9-0.3c-0.3-0.2-0.5-0.4-0.7-0.6c-0.2-0.2-0.4-0.5-0.5-0.8
				c-0.1-0.3-0.2-0.6-0.3-0.9c-0.1-0.3-0.1-0.7-0.1-1c0-0.6,0.1-1.1,0.3-1.6c0.2-0.5,0.4-0.9,0.7-1.2c0.3-0.3,0.7-0.6,1.1-0.8
				s0.9-0.3,1.4-0.3c0.6,0,1.1,0.1,1.6,0.4c0.5,0.2,0.8,0.5,1.1,0.9c0.2,0.3,0.4,0.7,0.4,1c0,0.2-0.1,0.3-0.2,0.5
				c-0.1,0.1-0.3,0.2-0.4,0.2c-0.2,0-0.3-0.1-0.4-0.1c-0.1-0.1-0.2-0.2-0.3-0.5c-0.2-0.4-0.4-0.6-0.7-0.8c-0.3-0.2-0.6-0.3-1-0.3
				c-0.6,0-1.1,0.2-1.5,0.7s-0.5,1.1-0.5,2c0,0.6,0.1,1,0.2,1.4c0.2,0.4,0.4,0.7,0.7,0.9c0.3,0.2,0.6,0.3,1,0.3
				c0.4,0,0.8-0.1,1.1-0.3c0.3-0.2,0.5-0.5,0.7-0.9c0.1-0.2,0.1-0.3,0.2-0.5c0.1-0.1,0.2-0.2,0.5-0.2c0.2,0,0.3,0.1,0.5,0.2
				C330.3,41.6,330.4,41.8,330.4,42z"/>
			<path class="st4" d="M332.4,43.5v-5.8c0-0.3,0.1-0.5,0.2-0.7c0.1-0.2,0.3-0.2,0.5-0.2c0.2,0,0.4,0.1,0.5,0.2
				c0.1,0.1,0.2,0.4,0.2,0.7v5.8c0,0.3-0.1,0.5-0.2,0.7c-0.1,0.2-0.3,0.2-0.5,0.2c-0.2,0-0.4-0.1-0.5-0.2
				C332.5,44,332.4,43.8,332.4,43.5z"/>
			<path class="st4" d="M340.9,43.5l-0.3-0.9h-3l-0.3,0.9c-0.1,0.4-0.3,0.6-0.3,0.7c-0.1,0.1-0.3,0.2-0.5,0.2
				c-0.2,0-0.3-0.1-0.5-0.2c-0.1-0.1-0.2-0.3-0.2-0.5c0-0.1,0-0.2,0.1-0.3c0-0.1,0.1-0.3,0.2-0.4l1.9-4.8c0.1-0.1,0.1-0.3,0.2-0.5
				s0.2-0.3,0.2-0.5c0.1-0.1,0.2-0.2,0.3-0.3c0.1-0.1,0.3-0.1,0.5-0.1s0.4,0,0.5,0.1c0.1,0.1,0.2,0.2,0.3,0.3
				c0.1,0.1,0.2,0.3,0.2,0.4c0.1,0.1,0.1,0.3,0.2,0.6l1.9,4.7c0.2,0.4,0.2,0.6,0.2,0.8c0,0.2-0.1,0.3-0.2,0.5
				c-0.1,0.1-0.3,0.2-0.5,0.2c-0.1,0-0.2,0-0.3-0.1s-0.2-0.1-0.2-0.2c-0.1-0.1-0.1-0.2-0.2-0.3C341,43.7,341,43.6,340.9,43.5z
				 M338,41.4h2.2l-1.1-3L338,41.4z"/>
			<path class="st4" d="M351.6,38.2h-1.6v5.3c0,0.3-0.1,0.5-0.2,0.7c-0.1,0.2-0.3,0.2-0.5,0.2c-0.2,0-0.4-0.1-0.5-0.2
				c-0.1-0.2-0.2-0.4-0.2-0.7v-5.3h-1.6c-0.3,0-0.4-0.1-0.6-0.2c-0.1-0.1-0.2-0.3-0.2-0.5c0-0.2,0.1-0.3,0.2-0.5
				c0.1-0.1,0.3-0.2,0.6-0.2h4.7c0.3,0,0.5,0.1,0.6,0.2c0.1,0.1,0.2,0.3,0.2,0.4c0,0.2-0.1,0.3-0.2,0.5
				C352,38.1,351.8,38.2,351.6,38.2z"/>
			<path class="st4" d="M353.9,41.2v-3.5c0-0.3,0.1-0.5,0.2-0.7s0.3-0.2,0.5-0.2s0.4,0.1,0.5,0.2c0.1,0.2,0.2,0.4,0.2,0.7v3.6
				c0,0.4,0.1,0.7,0.1,1c0.1,0.3,0.2,0.5,0.5,0.6c0.2,0.2,0.6,0.2,1,0.2c0.6,0,1-0.2,1.2-0.5c0.2-0.3,0.4-0.8,0.4-1.4v-3.6
				c0-0.3,0.1-0.5,0.2-0.7c0.1-0.2,0.3-0.2,0.5-0.2s0.4,0.1,0.5,0.2c0.1,0.1,0.2,0.4,0.2,0.7v3.5c0,0.6-0.1,1.1-0.2,1.4
				c-0.1,0.4-0.3,0.7-0.6,1c-0.3,0.2-0.6,0.4-0.9,0.5c-0.3,0.1-0.8,0.2-1.2,0.2c-0.6,0-1-0.1-1.5-0.2s-0.7-0.3-1-0.6
				c-0.3-0.3-0.5-0.6-0.6-1C353.9,42.3,353.9,41.8,353.9,41.2z"/>
			<path class="st4" d="M369.7,38.1h-3.4v1.8h3.1c0.2,0,0.4,0.1,0.5,0.2c0.1,0.1,0.2,0.2,0.2,0.4c0,0.2-0.1,0.3-0.2,0.4
				c-0.1,0.1-0.3,0.2-0.5,0.2h-3.1v2.1h3.5c0.2,0,0.4,0.1,0.5,0.2c0.1,0.1,0.2,0.2,0.2,0.4c0,0.2-0.1,0.3-0.2,0.4
				c-0.1,0.1-0.3,0.2-0.5,0.2h-4c-0.3,0-0.6-0.1-0.7-0.2c-0.1-0.1-0.2-0.4-0.2-0.7v-5.5c0-0.2,0-0.4,0.1-0.5
				c0.1-0.1,0.2-0.2,0.3-0.3c0.1-0.1,0.3-0.1,0.5-0.1h3.9c0.2,0,0.4,0.1,0.5,0.2c0.1,0.1,0.2,0.2,0.2,0.4c0,0.2-0.1,0.3-0.2,0.4
				C370.1,38,369.9,38.1,369.7,38.1z"/>
			<path class="st4" d="M378.6,42c0,0.2-0.1,0.5-0.2,0.8c-0.1,0.3-0.3,0.5-0.5,0.8c-0.2,0.3-0.6,0.5-0.9,0.6
				c-0.4,0.2-0.8,0.2-1.3,0.2c-0.4,0-0.7,0-1.1-0.1c-0.3-0.1-0.6-0.2-0.9-0.3c-0.3-0.2-0.5-0.4-0.7-0.6c-0.2-0.2-0.4-0.5-0.5-0.8
				c-0.1-0.3-0.2-0.6-0.3-0.9c-0.1-0.3-0.1-0.7-0.1-1c0-0.6,0.1-1.1,0.3-1.6c0.2-0.5,0.4-0.9,0.7-1.2c0.3-0.3,0.7-0.6,1.1-0.8
				s0.9-0.3,1.4-0.3c0.6,0,1.1,0.1,1.6,0.4c0.5,0.2,0.8,0.5,1.1,0.9c0.2,0.3,0.4,0.7,0.4,1c0,0.2-0.1,0.3-0.2,0.5
				c-0.1,0.1-0.3,0.2-0.4,0.2c-0.2,0-0.3-0.1-0.4-0.1c-0.1-0.1-0.2-0.2-0.3-0.5c-0.2-0.4-0.4-0.6-0.7-0.8c-0.3-0.2-0.6-0.3-1-0.3
				c-0.6,0-1.1,0.2-1.5,0.7s-0.5,1.1-0.5,2c0,0.6,0.1,1,0.2,1.4c0.2,0.4,0.4,0.7,0.7,0.9c0.3,0.2,0.6,0.3,1,0.3
				c0.4,0,0.8-0.1,1.1-0.3c0.3-0.2,0.5-0.5,0.7-0.9c0.1-0.2,0.1-0.3,0.2-0.5c0.1-0.1,0.2-0.2,0.5-0.2c0.2,0,0.3,0.1,0.5,0.2
				C378.5,41.6,378.6,41.8,378.6,42z"/>
			<path class="st4" d="M383.8,36.8c0.8,0,1.4,0.2,2,0.5c0.5,0.3,1,0.7,1.2,1.3c0.3,0.6,0.4,1.2,0.4,2c0,0.6-0.1,1.1-0.2,1.5
				c-0.2,0.5-0.4,0.9-0.7,1.2c-0.3,0.3-0.7,0.6-1.1,0.8c-0.5,0.2-1,0.3-1.5,0.3s-1.1-0.1-1.5-0.3c-0.5-0.2-0.8-0.5-1.1-0.8
				c-0.3-0.3-0.5-0.7-0.7-1.2c-0.2-0.5-0.2-1-0.2-1.5c0-0.6,0.1-1.1,0.2-1.5c0.2-0.5,0.4-0.9,0.7-1.2c0.3-0.3,0.7-0.6,1.1-0.7
				C382.7,36.9,383.2,36.8,383.8,36.8z M385.9,40.6c0-0.5-0.1-1-0.3-1.4c-0.2-0.4-0.4-0.7-0.7-0.9c-0.3-0.2-0.7-0.3-1.1-0.3
				c-0.3,0-0.6,0.1-0.8,0.2c-0.3,0.1-0.5,0.3-0.7,0.5c-0.2,0.2-0.3,0.5-0.4,0.8c-0.1,0.3-0.2,0.7-0.2,1.1c0,0.4,0.1,0.8,0.2,1.1
				c0.1,0.3,0.3,0.6,0.5,0.8c0.2,0.2,0.4,0.4,0.7,0.5c0.3,0.1,0.5,0.2,0.8,0.2c0.4,0,0.7-0.1,1-0.3c0.3-0.2,0.6-0.5,0.8-0.9
				C385.8,41.7,385.9,41.2,385.9,40.6z"/>
			<path class="st4" d="M391.3,37.7l2.9,4.3v-4.4c0-0.3,0.1-0.5,0.2-0.6c0.1-0.1,0.3-0.2,0.5-0.2c0.2,0,0.4,0.1,0.5,0.2
				c0.1,0.1,0.2,0.3,0.2,0.6v5.8c0,0.6-0.3,1-0.8,1c-0.1,0-0.3,0-0.4-0.1c-0.1,0-0.2-0.1-0.3-0.2c-0.1-0.1-0.2-0.2-0.3-0.3
				c-0.1-0.1-0.2-0.2-0.2-0.3l-2.8-4.3v4.3c0,0.3-0.1,0.5-0.2,0.6s-0.3,0.2-0.5,0.2c-0.2,0-0.4-0.1-0.5-0.2
				c-0.1-0.1-0.2-0.4-0.2-0.6v-5.7c0-0.2,0-0.4,0.1-0.6c0.1-0.2,0.2-0.3,0.3-0.4c0.1-0.1,0.3-0.1,0.5-0.1c0.1,0,0.2,0,0.3,0.1
				c0.1,0.1,0.2,0.1,0.2,0.2c0.1,0.1,0.1,0.2,0.2,0.3C391.1,37.5,391.2,37.6,391.3,37.7z"/>
			<path class="st4" d="M401,36.8c0.8,0,1.4,0.2,2,0.5c0.5,0.3,1,0.7,1.2,1.3c0.3,0.6,0.4,1.2,0.4,2c0,0.6-0.1,1.1-0.2,1.5
				c-0.2,0.5-0.4,0.9-0.7,1.2c-0.3,0.3-0.7,0.6-1.1,0.8c-0.5,0.2-1,0.3-1.5,0.3s-1.1-0.1-1.5-0.3c-0.5-0.2-0.8-0.5-1.1-0.8
				c-0.3-0.3-0.5-0.7-0.7-1.2c-0.2-0.5-0.2-1-0.2-1.5c0-0.6,0.1-1.1,0.2-1.5c0.2-0.5,0.4-0.9,0.7-1.2c0.3-0.3,0.7-0.6,1.1-0.7
				C399.9,36.9,400.4,36.8,401,36.8z M403.1,40.6c0-0.5-0.1-1-0.3-1.4c-0.2-0.4-0.4-0.7-0.7-0.9c-0.3-0.2-0.7-0.3-1.1-0.3
				c-0.3,0-0.6,0.1-0.8,0.2c-0.3,0.1-0.5,0.3-0.7,0.5c-0.2,0.2-0.3,0.5-0.4,0.8c-0.1,0.3-0.2,0.7-0.2,1.1c0,0.4,0.1,0.8,0.2,1.1
				c0.1,0.3,0.3,0.6,0.5,0.8c0.2,0.2,0.4,0.4,0.7,0.5c0.3,0.1,0.5,0.2,0.8,0.2c0.4,0,0.7-0.1,1-0.3c0.3-0.2,0.6-0.5,0.8-0.9
				C403,41.7,403.1,41.2,403.1,40.6z"/>
			<path class="st4" d="M409,43.2l-1.2-4.7v5.1c0,0.3-0.1,0.5-0.2,0.6c-0.1,0.1-0.3,0.2-0.5,0.2c-0.2,0-0.4-0.1-0.5-0.2
				c-0.1-0.1-0.2-0.3-0.2-0.6v-5.8c0-0.3,0.1-0.5,0.2-0.7c0.2-0.1,0.4-0.2,0.7-0.2h0.5c0.3,0,0.5,0,0.6,0.1c0.1,0.1,0.2,0.1,0.3,0.3
				c0.1,0.1,0.1,0.3,0.2,0.6l1.1,4l1.1-4c0.1-0.3,0.1-0.5,0.2-0.6c0.1-0.1,0.2-0.2,0.3-0.3c0.1-0.1,0.3-0.1,0.6-0.1h0.5
				c0.3,0,0.5,0.1,0.7,0.2c0.2,0.1,0.2,0.3,0.2,0.7v5.8c0,0.3-0.1,0.5-0.2,0.6c-0.1,0.1-0.3,0.2-0.5,0.2c-0.2,0-0.4-0.1-0.5-0.2
				c-0.1-0.1-0.2-0.3-0.2-0.6v-5.1l-1.2,4.7c-0.1,0.3-0.1,0.5-0.2,0.7s-0.1,0.3-0.3,0.4c-0.1,0.1-0.3,0.2-0.5,0.2
				c-0.2,0-0.3,0-0.4-0.1c-0.1-0.1-0.2-0.2-0.3-0.3c-0.1-0.1-0.1-0.2-0.2-0.4C409.1,43.5,409.1,43.3,409,43.2z"/>
			<path class="st4" d="M416.8,35h0.7c0.2,0,0.3,0,0.3,0.1c0,0-0.1,0.1-0.3,0.3c-0.2,0.2-0.4,0.4-0.6,0.5c-0.2,0.2-0.3,0.3-0.4,0.3
				c-0.2,0.1-0.4,0.1-0.6,0.1c-0.1,0-0.2,0-0.2-0.1c0-0.1,0-0.2,0.1-0.3l0.2-0.4c0.1-0.2,0.2-0.4,0.3-0.5
				C416.4,35.1,416.6,35,416.8,35z M415.8,43.5v-5.8c0-0.3,0.1-0.5,0.2-0.7c0.1-0.2,0.3-0.2,0.5-0.2c0.2,0,0.4,0.1,0.5,0.2
				c0.1,0.1,0.2,0.4,0.2,0.7v5.8c0,0.3-0.1,0.5-0.2,0.7c-0.1,0.2-0.3,0.2-0.5,0.2c-0.2,0-0.4-0.1-0.5-0.2
				C415.9,44,415.8,43.8,415.8,43.5z"/>
			<path class="st4" d="M424.3,43.5l-0.3-0.9h-3l-0.3,0.9c-0.1,0.4-0.3,0.6-0.3,0.7c-0.1,0.1-0.3,0.2-0.5,0.2
				c-0.2,0-0.3-0.1-0.5-0.2c-0.1-0.1-0.2-0.3-0.2-0.5c0-0.1,0-0.2,0.1-0.3c0-0.1,0.1-0.3,0.2-0.4l1.9-4.8c0.1-0.1,0.1-0.3,0.2-0.5
				c0.1-0.2,0.2-0.3,0.2-0.5c0.1-0.1,0.2-0.2,0.3-0.3c0.1-0.1,0.3-0.1,0.5-0.1s0.4,0,0.5,0.1c0.1,0.1,0.2,0.2,0.3,0.3
				c0.1,0.1,0.2,0.3,0.2,0.4c0.1,0.1,0.1,0.3,0.2,0.6l1.9,4.7c0.2,0.4,0.2,0.6,0.2,0.8c0,0.2-0.1,0.3-0.2,0.5
				c-0.1,0.1-0.3,0.2-0.5,0.2c-0.1,0-0.2,0-0.3-0.1c-0.1,0-0.2-0.1-0.2-0.2c-0.1-0.1-0.1-0.2-0.2-0.3
				C424.4,43.7,424.3,43.6,424.3,43.5z M421.3,41.4h2.2l-1.1-3L421.3,41.4z"/>
		</g>
	</g>
</g>
<g id="Grid" class="st94">
</g>
</svg>
