<?xml version="1.0" encoding="utf-8"?>
<!-- Generator: Adobe Illustrator 24.2.0, SVG Export Plug-In . SVG Version: 6.00 Build 0)  -->
<svg version="1.1" xmlns="http://www.w3.org/2000/svg" xmlns:xlink="http://www.w3.org/1999/xlink" x="0px" y="0px"
	 viewBox="0 0 147.3 45.9" style="enable-background:new 0 0 147.3 45.9;" xml:space="preserve">
<style type="text/css">
	.st0{fill:#FBFCFD;}
	.st1{fill:#EEF1F3;}
	.st2{fill:#08C6B5;}
	.st3{opacity:0.15;clip-path:url(#SVGID_2_);}
	.st4{fill:#FFFFFF;}
	.st5{opacity:0.35;clip-path:url(#SVGID_2_);}
	.st6{clip-path:url(#SVGID_4_);fill:#08C6B5;}
	.st7{fill-rule:evenodd;clip-rule:evenodd;fill:#08C6B5;}
	.st8{fill-rule:evenodd;clip-rule:evenodd;fill:#F5F5F5;}
	.st9{fill:#F5F5F5;}
	.st10{opacity:0.25;}
	.st11{fill:none;stroke:#A4A4A4;stroke-width:2;stroke-miterlimit:10;}
	.st12{fill-rule:evenodd;clip-rule:evenodd;}
	.st13{opacity:0.75;}
	.st14{fill:none;stroke:#08C6B5;stroke-miterlimit:10;}
	.st15{fill-rule:evenodd;clip-rule:evenodd;fill:#07A490;}
	.st16{fill:none;stroke:#FFFFFF;stroke-miterlimit:10;}
	.st17{opacity:0.1;}
	.st18{opacity:0.2;clip-path:url(#SVGID_8_);}
	.st19{opacity:0.2;clip-path:url(#SVGID_10_);}
	.st20{opacity:0.15;clip-path:url(#SVGID_12_);}
	.st21{opacity:0.35;clip-path:url(#SVGID_12_);}
	.st22{opacity:0.15;clip-path:url(#SVGID_16_);}
	.st23{opacity:0.35;clip-path:url(#SVGID_16_);}
	.st24{opacity:0.15;clip-path:url(#SVGID_18_);}
	.st25{opacity:0.35;clip-path:url(#SVGID_18_);}
	.st26{opacity:0.15;clip-path:url(#SVGID_20_);}
	.st27{opacity:0.35;clip-path:url(#SVGID_20_);}
	.st28{opacity:0.15;clip-path:url(#SVGID_28_);}
	.st29{opacity:0.35;clip-path:url(#SVGID_28_);}
	.st30{opacity:0.15;clip-path:url(#SVGID_30_);}
	.st31{opacity:0.35;clip-path:url(#SVGID_30_);}
	.st32{opacity:0.15;clip-path:url(#SVGID_32_);}
	.st33{opacity:0.35;clip-path:url(#SVGID_32_);}
	.st34{fill:#E2E7E9;}
	.st35{opacity:0.35;clip-path:url(#SVGID_34_);}
	.st36{opacity:0.15;clip-path:url(#SVGID_34_);}
	.st37{fill:#272525;}
	.st38{opacity:0.35;clip-path:url(#SVGID_36_);}
	.st39{opacity:0.15;clip-path:url(#SVGID_36_);}
	.st40{opacity:0.35;clip-path:url(#SVGID_38_);}
	.st41{fill:none;stroke:#000000;stroke-miterlimit:10;}
	.st42{opacity:0.35;clip-path:url(#SVGID_40_);}
	.st43{opacity:0.15;clip-path:url(#SVGID_40_);}
	.st44{fill:none;stroke:#A4A4A4;stroke-miterlimit:10;}
	.st45{fill-rule:evenodd;clip-rule:evenodd;fill:#FFFFFF;}
	.st46{fill-rule:evenodd;clip-rule:evenodd;fill:none;stroke:#F5F5F5;stroke-miterlimit:10;}
	
		.st47{fill-rule:evenodd;clip-rule:evenodd;fill:none;stroke:#9D9D9D;stroke-linecap:round;stroke-linejoin:round;stroke-miterlimit:10;}
	.st48{clip-path:url(#SVGID_76_);fill:#08C6B5;}
	.st49{clip-path:url(#SVGID_76_);}
	.st50{fill-rule:evenodd;clip-rule:evenodd;fill:none;stroke:#FFFFFF;stroke-miterlimit:10;}
	.st51{opacity:0.35;clip-path:url(#SVGID_82_);}
	.st52{opacity:0.35;clip-path:url(#SVGID_84_);}
	.st53{opacity:0.15;clip-path:url(#SVGID_84_);}
	.st54{clip-path:url(#SVGID_88_);}
	.st55{clip-path:url(#SVGID_88_);fill:#FFFFFF;}
	.st56{clip-path:url(#SVGID_96_);fill:#08C6B5;}
	.st57{clip-path:url(#SVGID_98_);fill:#FFFFFF;}
	.st58{clip-path:url(#SVGID_100_);fill:#08C6B5;}
	.st59{clip-path:url(#SVGID_100_);}
	.st60{clip-path:url(#SVGID_104_);fill:#08C6B5;}
	.st61{clip-path:url(#SVGID_104_);}
	.st62{opacity:0.15;clip-path:url(#SVGID_108_);}
	.st63{opacity:0.35;clip-path:url(#SVGID_108_);}
	.st64{clip-path:url(#SVGID_110_);fill:#08C6B5;}
	.st65{clip-path:url(#SVGID_110_);}
	.st66{opacity:0.15;clip-path:url(#SVGID_114_);}
	.st67{opacity:0.35;clip-path:url(#SVGID_114_);}
	.st68{clip-path:url(#SVGID_116_);fill:#08C6B5;}
	.st69{clip-path:url(#SVGID_116_);}
	.st70{opacity:0.15;clip-path:url(#SVGID_120_);}
	.st71{opacity:0.35;clip-path:url(#SVGID_120_);}
	.st72{clip-path:url(#SVGID_122_);fill:#08C6B5;}
	.st73{clip-path:url(#SVGID_124_);fill:#FFFFFF;}
	.st74{fill:none;stroke:#FFFFFF;stroke-width:2;stroke-miterlimit:10;}
	.st75{opacity:0.35;clip-path:url(#SVGID_136_);}
	.st76{opacity:0.15;clip-path:url(#SVGID_136_);}
	.st77{opacity:0.35;clip-path:url(#SVGID_138_);}
	.st78{opacity:0.35;clip-path:url(#SVGID_140_);}
	.st79{opacity:0.15;clip-path:url(#SVGID_140_);}
	.st80{opacity:0.35;clip-path:url(#SVGID_142_);}
	.st81{opacity:0.15;clip-path:url(#SVGID_142_);}
	.st82{opacity:0.35;clip-path:url(#SVGID_144_);}
	.st83{opacity:0.15;clip-path:url(#SVGID_144_);}
	.st84{opacity:0.35;clip-path:url(#SVGID_148_);}
	.st85{opacity:0.35;clip-path:url(#SVGID_150_);}
	.st86{opacity:0.15;clip-path:url(#SVGID_150_);}
	.st87{opacity:0.35;clip-path:url(#SVGID_152_);}
	.st88{opacity:0.15;clip-path:url(#SVGID_152_);}
	.st89{opacity:0.35;clip-path:url(#SVGID_154_);}
	.st90{opacity:0.15;clip-path:url(#SVGID_154_);}
	.st91{opacity:0.35;clip-path:url(#SVGID_156_);}
	.st92{opacity:0.15;clip-path:url(#SVGID_156_);}
	.st93{fill:#00ADEE;}
	.st94{display:none;}
	.st95{display:inline;}
	.st96{opacity:0.2;fill:#931127;}
</style>
<g id="Graphic">
	<g>
		<g>
			<rect x="22.8" y="21" transform="matrix(0.7955 -0.606 0.606 0.7955 -8.7383 20.2433)" class="st7" width="5.6" height="4.2"/>
			<polygon class="st8" points="22.8,37.4 10.7,21.5 10.7,21.5 10.7,21.4 21.6,13.1 24.2,16.4 16.6,22.2 26.2,34.9 			"/>
			<polygon class="st7" points="39.9,24.5 28.9,32.8 26.4,29.4 34,23.6 24.4,11 27.7,8.4 39.9,24.4 39.8,24.4 			"/>
		</g>
		<g>
			<path class="st9" d="M59.8,32h-0.7v1c0,0.1,0,0.3-0.1,0.3c-0.1,0.1-0.2,0.1-0.3,0.1c-0.1,0-0.2,0-0.3-0.1
				c-0.1-0.1-0.1-0.2-0.1-0.3v-2.8c0-0.2,0-0.3,0.1-0.3c0.1-0.1,0.2-0.1,0.4-0.1h0.9c0.3,0,0.5,0,0.6,0.1c0.1,0,0.3,0.1,0.4,0.2
				c0.1,0.1,0.2,0.2,0.2,0.3c0.1,0.1,0.1,0.3,0.1,0.5c0,0.4-0.1,0.6-0.3,0.8C60.6,31.9,60.3,32,59.8,32z M59.6,30.4h-0.5v1.1h0.5
				c0.2,0,0.3,0,0.4-0.1c0.1,0,0.2-0.1,0.3-0.2c0.1-0.1,0.1-0.2,0.1-0.3c0-0.2,0-0.3-0.1-0.4C60.2,30.4,60,30.4,59.6,30.4z"/>
			<path class="st9" d="M63.7,29.8c0.4,0,0.7,0.1,1,0.2s0.5,0.4,0.6,0.6c0.1,0.3,0.2,0.6,0.2,1c0,0.3,0,0.5-0.1,0.8
				c-0.1,0.2-0.2,0.4-0.3,0.6c-0.2,0.2-0.3,0.3-0.6,0.4c-0.2,0.1-0.5,0.1-0.8,0.1c-0.3,0-0.5,0-0.8-0.1c-0.2-0.1-0.4-0.2-0.6-0.4
				c-0.2-0.2-0.3-0.4-0.3-0.6c-0.1-0.2-0.1-0.5-0.1-0.8c0-0.3,0-0.5,0.1-0.8c0.1-0.2,0.2-0.4,0.3-0.6c0.2-0.2,0.3-0.3,0.6-0.4
				C63.1,29.8,63.4,29.8,63.7,29.8z M64.7,31.6c0-0.3,0-0.5-0.1-0.7c-0.1-0.2-0.2-0.3-0.4-0.4c-0.2-0.1-0.3-0.1-0.5-0.1
				c-0.1,0-0.3,0-0.4,0.1c-0.1,0.1-0.2,0.1-0.3,0.2c-0.1,0.1-0.2,0.2-0.2,0.4c-0.1,0.2-0.1,0.3-0.1,0.5c0,0.2,0,0.4,0.1,0.6
				c0.1,0.2,0.1,0.3,0.2,0.4c0.1,0.1,0.2,0.2,0.3,0.2c0.1,0.1,0.3,0.1,0.4,0.1c0.2,0,0.4,0,0.5-0.1c0.2-0.1,0.3-0.2,0.4-0.4
				C64.7,32.1,64.7,31.9,64.7,31.6z"/>
			<path class="st9" d="M68.5,30.4h-0.8V33c0,0.2,0,0.3-0.1,0.3c-0.1,0.1-0.2,0.1-0.3,0.1c-0.1,0-0.2,0-0.3-0.1
				C67,33.3,67,33.2,67,33v-2.6h-0.8c-0.1,0-0.2,0-0.3-0.1c-0.1-0.1-0.1-0.1-0.1-0.2s0-0.2,0.1-0.2c0.1-0.1,0.2-0.1,0.3-0.1h2.3
				c0.1,0,0.2,0,0.3,0.1c0.1,0.1,0.1,0.1,0.1,0.2s0,0.2-0.1,0.2C68.7,30.4,68.6,30.4,68.5,30.4z"/>
			<path class="st9" d="M72,30.4h-1.6v0.9h1.5c0.1,0,0.2,0,0.2,0.1c0.1,0.1,0.1,0.1,0.1,0.2s0,0.1-0.1,0.2c-0.1,0.1-0.1,0.1-0.3,0.1
				h-1.5v1h1.7c0.1,0,0.2,0,0.3,0.1c0.1,0.1,0.1,0.1,0.1,0.2c0,0.1,0,0.2-0.1,0.2c-0.1,0.1-0.1,0.1-0.3,0.1h-2c-0.2,0-0.3,0-0.3-0.1
				c-0.1-0.1-0.1-0.2-0.1-0.3v-2.7c0-0.1,0-0.2,0-0.3c0-0.1,0.1-0.1,0.1-0.1c0.1,0,0.2,0,0.3,0H72c0.1,0,0.2,0,0.3,0.1
				c0.1,0.1,0.1,0.1,0.1,0.2c0,0.1,0,0.2-0.1,0.2C72.2,30.3,72.1,30.4,72,30.4z"/>
			<path class="st9" d="M74.3,30.2l1.4,2.1v-2.1c0-0.1,0-0.2,0.1-0.3c0.1-0.1,0.1-0.1,0.2-0.1c0.1,0,0.2,0,0.2,0.1
				c0.1,0.1,0.1,0.2,0.1,0.3V33c0,0.3-0.1,0.5-0.4,0.5c-0.1,0-0.1,0-0.2,0c-0.1,0-0.1,0-0.1-0.1c0,0-0.1-0.1-0.1-0.1
				c0-0.1-0.1-0.1-0.1-0.2L74,30.9v2.1c0,0.1,0,0.2-0.1,0.3s-0.1,0.1-0.2,0.1c-0.1,0-0.2,0-0.2-0.1c-0.1-0.1-0.1-0.2-0.1-0.3v-2.8
				c0-0.1,0-0.2,0-0.3c0-0.1,0.1-0.1,0.2-0.2c0.1,0,0.2-0.1,0.2-0.1c0.1,0,0.1,0,0.2,0c0,0,0.1,0.1,0.1,0.1c0,0,0.1,0.1,0.1,0.1
				C74.2,30.1,74.2,30.1,74.3,30.2z"/>
			<path class="st9" d="M80.5,32.3c0,0.1,0,0.2-0.1,0.4c-0.1,0.1-0.1,0.3-0.3,0.4c-0.1,0.1-0.3,0.2-0.5,0.3
				c-0.2,0.1-0.4,0.1-0.7,0.1c-0.2,0-0.4,0-0.5-0.1c-0.2,0-0.3-0.1-0.4-0.2c-0.1-0.1-0.2-0.2-0.4-0.3c-0.1-0.1-0.2-0.2-0.2-0.4
				c-0.1-0.1-0.1-0.3-0.2-0.4c0-0.2-0.1-0.3-0.1-0.5c0-0.3,0-0.5,0.1-0.8c0.1-0.2,0.2-0.4,0.4-0.6c0.2-0.2,0.3-0.3,0.6-0.4
				c0.2-0.1,0.4-0.1,0.7-0.1c0.3,0,0.6,0.1,0.8,0.2c0.2,0.1,0.4,0.3,0.5,0.4c0.1,0.2,0.2,0.3,0.2,0.5c0,0.1,0,0.2-0.1,0.2
				c-0.1,0.1-0.1,0.1-0.2,0.1c-0.1,0-0.2,0-0.2-0.1c-0.1,0-0.1-0.1-0.2-0.2c-0.1-0.2-0.2-0.3-0.3-0.4c-0.1-0.1-0.3-0.1-0.5-0.1
				c-0.3,0-0.5,0.1-0.7,0.3s-0.3,0.5-0.3,1c0,0.3,0,0.5,0.1,0.7c0.1,0.2,0.2,0.3,0.3,0.4c0.1,0.1,0.3,0.1,0.5,0.1
				c0.2,0,0.4-0.1,0.5-0.2c0.1-0.1,0.3-0.3,0.3-0.5c0-0.1,0.1-0.2,0.1-0.2c0-0.1,0.1-0.1,0.2-0.1c0.1,0,0.2,0,0.2,0.1
				C80.5,32.1,80.5,32.2,80.5,32.3z"/>
			<path class="st9" d="M81.5,33v-2.8c0-0.2,0-0.3,0.1-0.3c0.1-0.1,0.2-0.1,0.3-0.1c0.1,0,0.2,0,0.3,0.1c0.1,0.1,0.1,0.2,0.1,0.3V33
				c0,0.1,0,0.3-0.1,0.3c-0.1,0.1-0.2,0.1-0.3,0.1c-0.1,0-0.2,0-0.3-0.1C81.5,33.3,81.5,33.2,81.5,33z"/>
			<path class="st9" d="M85.7,33l-0.2-0.5H84L83.9,33c-0.1,0.2-0.1,0.3-0.2,0.4c-0.1,0.1-0.1,0.1-0.2,0.1c-0.1,0-0.2,0-0.2-0.1
				c-0.1-0.1-0.1-0.1-0.1-0.2c0-0.1,0-0.1,0-0.2c0-0.1,0-0.1,0.1-0.2l0.9-2.3c0-0.1,0.1-0.1,0.1-0.2c0-0.1,0.1-0.2,0.1-0.2
				c0-0.1,0.1-0.1,0.2-0.2c0.1,0,0.2-0.1,0.3-0.1s0.2,0,0.3,0.1c0.1,0,0.1,0.1,0.2,0.2c0,0.1,0.1,0.1,0.1,0.2c0,0.1,0.1,0.2,0.1,0.3
				l0.9,2.3c0.1,0.2,0.1,0.3,0.1,0.4c0,0.1,0,0.2-0.1,0.2c-0.1,0.1-0.2,0.1-0.3,0.1c-0.1,0-0.1,0-0.1,0c0,0-0.1-0.1-0.1-0.1
				c0,0-0.1-0.1-0.1-0.2C85.7,33.1,85.7,33.1,85.7,33z M84.2,32h1.1l-0.5-1.5L84.2,32z"/>
			<path class="st9" d="M90.9,30.4h-0.8V33c0,0.2,0,0.3-0.1,0.3c-0.1,0.1-0.2,0.1-0.3,0.1c-0.1,0-0.2,0-0.3-0.1
				c-0.1-0.1-0.1-0.2-0.1-0.3v-2.6h-0.8c-0.1,0-0.2,0-0.3-0.1c-0.1-0.1-0.1-0.1-0.1-0.2s0-0.2,0.1-0.2c0.1-0.1,0.2-0.1,0.3-0.1h2.3
				c0.1,0,0.2,0,0.3,0.1c0.1,0.1,0.1,0.1,0.1,0.2s0,0.2-0.1,0.2C91.1,30.4,91,30.4,90.9,30.4z"/>
			<path class="st9" d="M92,31.9v-1.7c0-0.2,0-0.3,0.1-0.3c0.1-0.1,0.2-0.1,0.3-0.1c0.1,0,0.2,0,0.3,0.1c0.1,0.1,0.1,0.2,0.1,0.3V32
				c0,0.2,0,0.4,0.1,0.5c0,0.1,0.1,0.2,0.2,0.3c0.1,0.1,0.3,0.1,0.5,0.1c0.3,0,0.5-0.1,0.6-0.2c0.1-0.2,0.2-0.4,0.2-0.7v-1.8
				c0-0.2,0-0.3,0.1-0.3c0.1-0.1,0.2-0.1,0.3-0.1c0.1,0,0.2,0,0.3,0.1C95,29.9,95,30,95,30.2v1.7c0,0.3,0,0.5-0.1,0.7
				c-0.1,0.2-0.2,0.4-0.3,0.5c-0.1,0.1-0.3,0.2-0.5,0.3c-0.2,0.1-0.4,0.1-0.6,0.1c-0.3,0-0.5,0-0.7-0.1c-0.2-0.1-0.4-0.2-0.5-0.3
				c-0.1-0.1-0.2-0.3-0.3-0.5C92.1,32.4,92,32.2,92,31.9z"/>
			<path class="st9" d="M99.8,30.4h-1.6v0.9h1.5c0.1,0,0.2,0,0.2,0.1c0.1,0.1,0.1,0.1,0.1,0.2s0,0.1-0.1,0.2
				c-0.1,0.1-0.1,0.1-0.3,0.1h-1.5v1h1.7c0.1,0,0.2,0,0.3,0.1c0.1,0.1,0.1,0.1,0.1,0.2c0,0.1,0,0.2-0.1,0.2
				c-0.1,0.1-0.1,0.1-0.3,0.1h-2c-0.2,0-0.3,0-0.3-0.1c-0.1-0.1-0.1-0.2-0.1-0.3v-2.7c0-0.1,0-0.2,0-0.3c0-0.1,0.1-0.1,0.1-0.1
				c0.1,0,0.2,0,0.3,0h1.9c0.1,0,0.2,0,0.3,0.1c0.1,0.1,0.1,0.1,0.1,0.2c0,0.1,0,0.2-0.1,0.2C100,30.3,99.9,30.4,99.8,30.4z"/>
			<path class="st9" d="M104.1,32.3c0,0.1,0,0.2-0.1,0.4c-0.1,0.1-0.1,0.3-0.3,0.4c-0.1,0.1-0.3,0.2-0.5,0.3
				c-0.2,0.1-0.4,0.1-0.7,0.1c-0.2,0-0.4,0-0.5-0.1c-0.2,0-0.3-0.1-0.4-0.2c-0.1-0.1-0.2-0.2-0.4-0.3c-0.1-0.1-0.2-0.2-0.2-0.4
				c-0.1-0.1-0.1-0.3-0.2-0.4c0-0.2-0.1-0.3-0.1-0.5c0-0.3,0-0.5,0.1-0.8c0.1-0.2,0.2-0.4,0.4-0.6c0.2-0.2,0.3-0.3,0.6-0.4
				c0.2-0.1,0.4-0.1,0.7-0.1c0.3,0,0.6,0.1,0.8,0.2c0.2,0.1,0.4,0.3,0.5,0.4c0.1,0.2,0.2,0.3,0.2,0.5c0,0.1,0,0.2-0.1,0.2
				c-0.1,0.1-0.1,0.1-0.2,0.1c-0.1,0-0.2,0-0.2-0.1c-0.1,0-0.1-0.1-0.2-0.2c-0.1-0.2-0.2-0.3-0.3-0.4c-0.1-0.1-0.3-0.1-0.5-0.1
				c-0.3,0-0.5,0.1-0.7,0.3c-0.2,0.2-0.3,0.5-0.3,1c0,0.3,0,0.5,0.1,0.7c0.1,0.2,0.2,0.3,0.3,0.4c0.1,0.1,0.3,0.1,0.5,0.1
				c0.2,0,0.4-0.1,0.5-0.2c0.1-0.1,0.3-0.3,0.3-0.5c0-0.1,0.1-0.2,0.1-0.2c0-0.1,0.1-0.1,0.2-0.1c0.1,0,0.2,0,0.2,0.1
				C104.1,32.1,104.1,32.2,104.1,32.3z"/>
			<path class="st9" d="M106.7,29.8c0.4,0,0.7,0.1,1,0.2c0.3,0.2,0.5,0.4,0.6,0.6c0.1,0.3,0.2,0.6,0.2,1c0,0.3,0,0.5-0.1,0.8
				s-0.2,0.4-0.3,0.6c-0.2,0.2-0.3,0.3-0.6,0.4c-0.2,0.1-0.5,0.1-0.8,0.1s-0.5,0-0.8-0.1c-0.2-0.1-0.4-0.2-0.6-0.4
				c-0.2-0.2-0.3-0.4-0.3-0.6c-0.1-0.2-0.1-0.5-0.1-0.8c0-0.3,0-0.5,0.1-0.8s0.2-0.4,0.3-0.6c0.2-0.2,0.3-0.3,0.6-0.4
				C106.2,29.8,106.4,29.8,106.7,29.8z M107.7,31.6c0-0.3,0-0.5-0.1-0.7c-0.1-0.2-0.2-0.3-0.4-0.4c-0.2-0.1-0.3-0.1-0.5-0.1
				c-0.1,0-0.3,0-0.4,0.1c-0.1,0.1-0.2,0.1-0.3,0.2c-0.1,0.1-0.2,0.2-0.2,0.4c-0.1,0.2-0.1,0.3-0.1,0.5c0,0.2,0,0.4,0.1,0.6
				c0.1,0.2,0.1,0.3,0.2,0.4c0.1,0.1,0.2,0.2,0.3,0.2c0.1,0.1,0.3,0.1,0.4,0.1c0.2,0,0.4,0,0.5-0.1c0.2-0.1,0.3-0.2,0.4-0.4
				C107.7,32.1,107.7,31.9,107.7,31.6z"/>
			<path class="st9" d="M110.4,30.2l1.4,2.1v-2.1c0-0.1,0-0.2,0.1-0.3c0.1-0.1,0.1-0.1,0.2-0.1c0.1,0,0.2,0,0.2,0.1
				c0.1,0.1,0.1,0.2,0.1,0.3V33c0,0.3-0.1,0.5-0.4,0.5c-0.1,0-0.1,0-0.2,0c-0.1,0-0.1,0-0.1-0.1c0,0-0.1-0.1-0.1-0.1
				c0-0.1-0.1-0.1-0.1-0.2l-1.4-2.1v2.1c0,0.1,0,0.2-0.1,0.3s-0.1,0.1-0.2,0.1s-0.2,0-0.2-0.1c-0.1-0.1-0.1-0.2-0.1-0.3v-2.8
				c0-0.1,0-0.2,0-0.3c0-0.1,0.1-0.1,0.2-0.2c0.1,0,0.2-0.1,0.2-0.1c0.1,0,0.1,0,0.2,0c0,0,0.1,0.1,0.1,0.1c0,0,0.1,0.1,0.1,0.1
				C110.3,30.1,110.3,30.1,110.4,30.2z"/>
			<path class="st9" d="M115.1,29.8c0.4,0,0.7,0.1,1,0.2c0.3,0.2,0.5,0.4,0.6,0.6c0.1,0.3,0.2,0.6,0.2,1c0,0.3,0,0.5-0.1,0.8
				s-0.2,0.4-0.3,0.6c-0.2,0.2-0.3,0.3-0.6,0.4c-0.2,0.1-0.5,0.1-0.8,0.1c-0.3,0-0.5,0-0.8-0.1c-0.2-0.1-0.4-0.2-0.6-0.4
				c-0.2-0.2-0.3-0.4-0.3-0.6c-0.1-0.2-0.1-0.5-0.1-0.8c0-0.3,0-0.5,0.1-0.8c0.1-0.2,0.2-0.4,0.3-0.6c0.2-0.2,0.3-0.3,0.6-0.4
				C114.6,29.8,114.8,29.8,115.1,29.8z M116.2,31.6c0-0.3,0-0.5-0.1-0.7c-0.1-0.2-0.2-0.3-0.4-0.4c-0.2-0.1-0.3-0.1-0.5-0.1
				c-0.1,0-0.3,0-0.4,0.1c-0.1,0.1-0.2,0.1-0.3,0.2c-0.1,0.1-0.2,0.2-0.2,0.4c-0.1,0.2-0.1,0.3-0.1,0.5c0,0.2,0,0.4,0.1,0.6
				c0.1,0.2,0.1,0.3,0.2,0.4c0.1,0.1,0.2,0.2,0.3,0.2c0.1,0.1,0.3,0.1,0.4,0.1c0.2,0,0.4,0,0.5-0.1c0.2-0.1,0.3-0.2,0.4-0.4
				C116.1,32.1,116.2,31.9,116.2,31.6z"/>
			<path class="st9" d="M119.1,32.9l-0.6-2.3v2.5c0,0.1,0,0.2-0.1,0.3c-0.1,0.1-0.1,0.1-0.2,0.1c-0.1,0-0.2,0-0.2-0.1
				c-0.1-0.1-0.1-0.2-0.1-0.3v-2.8c0-0.2,0-0.3,0.1-0.3c0.1-0.1,0.2-0.1,0.3-0.1h0.2c0.1,0,0.2,0,0.3,0c0.1,0,0.1,0.1,0.1,0.1
				c0,0.1,0.1,0.2,0.1,0.3l0.5,2l0.5-2c0-0.1,0.1-0.3,0.1-0.3c0-0.1,0.1-0.1,0.1-0.1c0.1,0,0.2,0,0.3,0h0.2c0.1,0,0.2,0,0.3,0.1
				c0.1,0.1,0.1,0.2,0.1,0.3v2.8c0,0.1,0,0.2-0.1,0.3c-0.1,0.1-0.1,0.1-0.2,0.1c-0.1,0-0.2,0-0.2-0.1c-0.1-0.1-0.1-0.2-0.1-0.3v-2.5
				l-0.6,2.3c0,0.1-0.1,0.3-0.1,0.3s-0.1,0.1-0.1,0.2c-0.1,0.1-0.2,0.1-0.3,0.1c-0.1,0-0.2,0-0.2-0.1c-0.1,0-0.1-0.1-0.1-0.1
				c0-0.1-0.1-0.1-0.1-0.2C119.1,33,119.1,32.9,119.1,32.9z"/>
			<path class="st9" d="M122.8,28.9h0.3c0.1,0,0.1,0,0.1,0c0,0,0,0.1-0.1,0.2c-0.1,0.1-0.2,0.2-0.3,0.3c-0.1,0.1-0.2,0.1-0.2,0.2
				c-0.1,0-0.2,0.1-0.3,0.1c-0.1,0-0.1,0-0.1-0.1c0,0,0-0.1,0.1-0.1l0.1-0.2c0.1-0.1,0.1-0.2,0.2-0.2
				C122.7,28.9,122.8,28.9,122.8,28.9z M122.4,33v-2.8c0-0.2,0-0.3,0.1-0.3c0.1-0.1,0.2-0.1,0.3-0.1c0.1,0,0.2,0,0.3,0.1
				c0.1,0.1,0.1,0.2,0.1,0.3V33c0,0.1,0,0.3-0.1,0.3c-0.1,0.1-0.2,0.1-0.3,0.1c-0.1,0-0.2,0-0.3-0.1C122.4,33.3,122.4,33.2,122.4,33
				z"/>
			<path class="st9" d="M126.5,33l-0.2-0.5h-1.5l-0.2,0.5c-0.1,0.2-0.1,0.3-0.2,0.4c-0.1,0.1-0.1,0.1-0.2,0.1c-0.1,0-0.2,0-0.2-0.1
				c-0.1-0.1-0.1-0.1-0.1-0.2c0-0.1,0-0.1,0-0.2c0-0.1,0-0.1,0.1-0.2l0.9-2.3c0-0.1,0.1-0.1,0.1-0.2c0-0.1,0.1-0.2,0.1-0.2
				c0-0.1,0.1-0.1,0.2-0.2c0.1,0,0.2-0.1,0.3-0.1s0.2,0,0.3,0.1c0.1,0,0.1,0.1,0.2,0.2c0,0.1,0.1,0.1,0.1,0.2c0,0.1,0.1,0.2,0.1,0.3
				l0.9,2.3c0.1,0.2,0.1,0.3,0.1,0.4c0,0.1,0,0.2-0.1,0.2c-0.1,0.1-0.2,0.1-0.3,0.1c-0.1,0-0.1,0-0.1,0s-0.1-0.1-0.1-0.1
				c0,0-0.1-0.1-0.1-0.2C126.6,33.1,126.6,33.1,126.5,33z M125.1,32h1.1l-0.5-1.5L125.1,32z"/>
			<path class="st9" d="M50.1,15.5h0.5v-0.6c0-0.6,0.1-1.1,0.2-1.5c0.1-0.4,0.4-0.6,0.8-0.8c0.4-0.2,0.9-0.3,1.5-0.3
				c1.2,0,1.7,0.3,1.7,0.8c0,0.2-0.1,0.3-0.2,0.5c-0.1,0.1-0.3,0.2-0.4,0.2c-0.1,0-0.2,0-0.4,0c-0.2,0-0.3,0-0.5,0
				c-0.4,0-0.6,0.1-0.7,0.3c-0.1,0.2-0.1,0.5-0.1,0.9v0.5h0.5c0.8,0,1.1,0.2,1.1,0.7c0,0.3-0.1,0.5-0.3,0.6
				c-0.2,0.1-0.5,0.1-0.8,0.1h-0.5v5.2c0,0.4-0.1,0.7-0.3,0.9c-0.2,0.2-0.4,0.3-0.7,0.3c-0.3,0-0.5-0.1-0.7-0.3
				c-0.2-0.2-0.3-0.5-0.3-0.9v-5.2H50c-0.3,0-0.5-0.1-0.7-0.2c-0.2-0.1-0.3-0.3-0.3-0.5C49.1,15.8,49.5,15.5,50.1,15.5z"/>
			<path class="st9" d="M56,14.4c-0.3,0-0.5-0.1-0.7-0.3C55.1,14,55,13.8,55,13.5c0-0.3,0.1-0.5,0.3-0.7c0.2-0.2,0.4-0.3,0.7-0.3
				s0.5,0.1,0.7,0.2c0.2,0.2,0.3,0.4,0.3,0.7c0,0.3-0.1,0.5-0.3,0.7C56.5,14.3,56.2,14.4,56,14.4z M56.9,16.5v5.7
				c0,0.4-0.1,0.7-0.3,0.9c-0.2,0.2-0.4,0.3-0.7,0.3c-0.3,0-0.5-0.1-0.7-0.3c-0.2-0.2-0.3-0.5-0.3-0.9v-5.6c0-0.4,0.1-0.7,0.3-0.9
				c0.2-0.2,0.4-0.3,0.7-0.3c0.3,0,0.5,0.1,0.7,0.3S56.9,16.1,56.9,16.5z"/>
			<path class="st9" d="M60.3,16.4v0.2c0.3-0.5,0.7-0.8,1.1-1c0.4-0.2,0.9-0.3,1.4-0.3c0.5,0,1,0.1,1.4,0.3c0.4,0.2,0.7,0.5,0.9,1
				c0.1,0.2,0.2,0.5,0.3,0.8c0,0.3,0.1,0.6,0.1,1.1v3.7c0,0.4-0.1,0.7-0.3,0.9c-0.2,0.2-0.4,0.3-0.7,0.3s-0.5-0.1-0.7-0.3
				c-0.2-0.2-0.3-0.5-0.3-0.9v-3.3c0-0.7-0.1-1.2-0.3-1.5c-0.2-0.3-0.5-0.5-1.1-0.5c-0.4,0-0.7,0.1-1,0.3c-0.3,0.2-0.5,0.5-0.6,0.9
				c-0.1,0.3-0.1,0.8-0.1,1.6v2.5c0,0.4-0.1,0.7-0.3,0.9c-0.2,0.2-0.4,0.3-0.7,0.3c-0.3,0-0.5-0.1-0.7-0.3c-0.2-0.2-0.3-0.5-0.3-0.9
				v-5.7c0-0.4,0.1-0.7,0.3-0.8c0.2-0.2,0.4-0.3,0.7-0.3c0.2,0,0.3,0,0.5,0.1c0.1,0.1,0.3,0.2,0.3,0.4C60.3,16,60.3,16.2,60.3,16.4z
				"/>
			<path class="st9" d="M72.1,22.3c-0.5,0.4-0.9,0.7-1.4,0.8c-0.4,0.2-0.9,0.3-1.5,0.3c-0.5,0-0.9-0.1-1.3-0.3
				c-0.4-0.2-0.7-0.5-0.9-0.8c-0.2-0.3-0.3-0.7-0.3-1.1c0-0.5,0.2-1,0.5-1.4c0.3-0.4,0.8-0.6,1.4-0.8c0.1,0,0.4-0.1,0.9-0.2
				c0.5-0.1,0.9-0.2,1.3-0.3c0.4-0.1,0.7-0.2,1.2-0.3c0-0.5-0.1-0.9-0.3-1.1c-0.2-0.3-0.6-0.4-1.2-0.4c-0.5,0-0.9,0.1-1.1,0.2
				c-0.3,0.1-0.5,0.4-0.7,0.6c-0.2,0.3-0.3,0.5-0.4,0.5c-0.1,0.1-0.2,0.1-0.5,0.1c-0.2,0-0.4-0.1-0.6-0.2c-0.1-0.1-0.2-0.3-0.2-0.5
				c0-0.4,0.1-0.7,0.4-1c0.3-0.3,0.6-0.6,1.2-0.8c0.5-0.2,1.2-0.3,1.9-0.3c0.9,0,1.6,0.1,2,0.3c0.5,0.2,0.8,0.5,1.1,1
				c0.2,0.4,0.3,1,0.3,1.8c0,0.5,0,0.8,0,1.2c0,0.3,0,0.7,0,1.1c0,0.4,0.1,0.8,0.2,1.2c0.1,0.4,0.2,0.7,0.2,0.8
				c0,0.2-0.1,0.4-0.3,0.5c-0.2,0.2-0.4,0.3-0.7,0.3c-0.2,0-0.4-0.1-0.6-0.3C72.5,22.9,72.3,22.6,72.1,22.3z M71.9,19.4
				c-0.3,0.1-0.7,0.2-1.3,0.3c-0.5,0.1-0.9,0.2-1.1,0.3c-0.2,0.1-0.4,0.2-0.6,0.3c-0.2,0.2-0.3,0.4-0.3,0.7c0,0.3,0.1,0.5,0.3,0.8
				c0.2,0.2,0.5,0.3,0.9,0.3c0.4,0,0.8-0.1,1.1-0.3c0.3-0.2,0.6-0.4,0.7-0.7c0.2-0.3,0.3-0.8,0.3-1.5V19.4z"/>
			<path class="st9" d="M77.2,16.4v0.2c0.3-0.5,0.7-0.8,1.1-1c0.4-0.2,0.9-0.3,1.4-0.3c0.5,0,1,0.1,1.4,0.3c0.4,0.2,0.7,0.5,0.9,1
				c0.1,0.2,0.2,0.5,0.3,0.8c0,0.3,0.1,0.6,0.1,1.1v3.7c0,0.4-0.1,0.7-0.3,0.9c-0.2,0.2-0.4,0.3-0.7,0.3c-0.3,0-0.5-0.1-0.7-0.3
				c-0.2-0.2-0.3-0.5-0.3-0.9v-3.3c0-0.7-0.1-1.2-0.3-1.5c-0.2-0.3-0.5-0.5-1.1-0.5c-0.4,0-0.7,0.1-1,0.3c-0.3,0.2-0.5,0.5-0.6,0.9
				c-0.1,0.3-0.1,0.8-0.1,1.6v2.5c0,0.4-0.1,0.7-0.3,0.9c-0.2,0.2-0.4,0.3-0.7,0.3c-0.3,0-0.5-0.1-0.7-0.3c-0.2-0.2-0.3-0.5-0.3-0.9
				v-5.7c0-0.4,0.1-0.7,0.3-0.8c0.2-0.2,0.4-0.3,0.7-0.3c0.2,0,0.3,0,0.5,0.1c0.1,0.1,0.3,0.2,0.3,0.4C77.2,16,77.2,16.2,77.2,16.4z
				"/>
			<path class="st9" d="M91,20.9c0,0.3-0.1,0.5-0.2,0.8c-0.1,0.3-0.4,0.5-0.7,0.8c-0.3,0.3-0.7,0.5-1.1,0.6c-0.5,0.2-1,0.2-1.6,0.2
				c-1.2,0-2.2-0.4-2.8-1.1c-0.7-0.7-1-1.7-1-2.9c0-0.8,0.2-1.5,0.5-2.1s0.8-1.1,1.4-1.5s1.3-0.5,2.1-0.5c0.5,0,1,0.1,1.4,0.2
				c0.4,0.1,0.8,0.3,1.1,0.6c0.3,0.2,0.5,0.5,0.7,0.8c0.2,0.3,0.2,0.5,0.2,0.8c0,0.2-0.1,0.4-0.3,0.6c-0.2,0.2-0.4,0.2-0.7,0.2
				c-0.2,0-0.3,0-0.4-0.1c-0.1-0.1-0.2-0.2-0.4-0.4c-0.2-0.4-0.5-0.6-0.8-0.8c-0.3-0.2-0.6-0.3-1-0.3c-0.6,0-1.1,0.2-1.4,0.7
				c-0.4,0.5-0.5,1.1-0.5,1.9c0,0.4,0,0.7,0.1,1c0.1,0.3,0.2,0.6,0.4,0.8c0.2,0.2,0.4,0.4,0.6,0.5c0.2,0.1,0.5,0.2,0.8,0.2
				c0.4,0,0.7-0.1,1-0.3c0.3-0.2,0.5-0.5,0.8-0.8c0.1-0.2,0.2-0.4,0.4-0.5c0.1-0.1,0.3-0.2,0.5-0.2c0.2,0,0.4,0.1,0.6,0.3
				C91,20.5,91,20.7,91,20.9z"/>
			<path class="st9" d="M93.3,14.4c-0.3,0-0.5-0.1-0.7-0.3c-0.2-0.2-0.3-0.4-0.3-0.7c0-0.3,0.1-0.5,0.3-0.7c0.2-0.2,0.4-0.3,0.7-0.3
				s0.5,0.1,0.7,0.2c0.2,0.2,0.3,0.4,0.3,0.7c0,0.3-0.1,0.5-0.3,0.7C93.8,14.3,93.6,14.4,93.3,14.4z M94.3,16.5v5.7
				c0,0.4-0.1,0.7-0.3,0.9c-0.2,0.2-0.4,0.3-0.7,0.3c-0.3,0-0.5-0.1-0.7-0.3c-0.2-0.2-0.3-0.5-0.3-0.9v-5.6c0-0.4,0.1-0.7,0.3-0.9
				c0.2-0.2,0.4-0.3,0.7-0.3c0.3,0,0.5,0.1,0.7,0.3S94.3,16.1,94.3,16.5z"/>
			<path class="st9" d="M100.9,22.3c-0.5,0.4-0.9,0.7-1.4,0.8c-0.4,0.2-0.9,0.3-1.5,0.3c-0.5,0-0.9-0.1-1.3-0.3
				c-0.4-0.2-0.7-0.5-0.9-0.8s-0.3-0.7-0.3-1.1c0-0.5,0.2-1,0.5-1.4c0.3-0.4,0.8-0.6,1.4-0.8c0.1,0,0.4-0.1,0.9-0.2
				c0.5-0.1,0.9-0.2,1.3-0.3c0.4-0.1,0.7-0.2,1.2-0.3c0-0.5-0.1-0.9-0.3-1.1c-0.2-0.3-0.6-0.4-1.2-0.4c-0.5,0-0.9,0.1-1.1,0.2
				c-0.3,0.1-0.5,0.4-0.7,0.6c-0.2,0.3-0.3,0.5-0.4,0.5c-0.1,0.1-0.2,0.1-0.5,0.1c-0.2,0-0.4-0.1-0.6-0.2c-0.1-0.1-0.2-0.3-0.2-0.5
				c0-0.4,0.1-0.7,0.4-1c0.3-0.3,0.6-0.6,1.2-0.8c0.5-0.2,1.2-0.3,1.9-0.3c0.9,0,1.6,0.1,2,0.3c0.5,0.2,0.8,0.5,1.1,1
				c0.2,0.4,0.3,1,0.3,1.8c0,0.5,0,0.8,0,1.2c0,0.3,0,0.7,0,1.1c0,0.4,0.1,0.8,0.2,1.2c0.1,0.4,0.2,0.7,0.2,0.8
				c0,0.2-0.1,0.4-0.3,0.5c-0.2,0.2-0.4,0.3-0.7,0.3c-0.2,0-0.4-0.1-0.6-0.3C101.4,22.9,101.1,22.6,100.9,22.3z M100.8,19.4
				c-0.3,0.1-0.7,0.2-1.3,0.3C99,19.9,98.6,20,98.4,20c-0.2,0.1-0.4,0.2-0.6,0.3s-0.3,0.4-0.3,0.7c0,0.3,0.1,0.5,0.3,0.8
				c0.2,0.2,0.5,0.3,0.9,0.3c0.4,0,0.8-0.1,1.1-0.3c0.3-0.2,0.6-0.4,0.7-0.7c0.2-0.3,0.3-0.8,0.3-1.5V19.4z"/>
			<path class="st2" d="M105.6,23.4c-0.3,0-0.5-0.1-0.8-0.3c-0.2-0.2-0.3-0.5-0.3-0.8c0-0.3,0.1-0.5,0.3-0.8
				c0.2-0.2,0.5-0.3,0.8-0.3c0.3,0,0.6,0.1,0.8,0.3c0.2,0.2,0.3,0.5,0.3,0.8c0,0.3-0.1,0.6-0.3,0.8
				C106.2,23.3,105.9,23.4,105.6,23.4z"/>
			<path class="st2" d="M115.6,20.9c0,0.3-0.1,0.5-0.2,0.8s-0.4,0.5-0.7,0.8c-0.3,0.3-0.7,0.5-1.1,0.6c-0.5,0.2-1,0.2-1.6,0.2
				c-1.2,0-2.2-0.4-2.8-1.1c-0.7-0.7-1-1.7-1-2.9c0-0.8,0.2-1.5,0.5-2.1s0.8-1.1,1.4-1.5c0.6-0.3,1.3-0.5,2.1-0.5
				c0.5,0,1,0.1,1.4,0.2c0.4,0.1,0.8,0.3,1.1,0.6c0.3,0.2,0.5,0.5,0.7,0.8c0.2,0.3,0.2,0.5,0.2,0.8c0,0.2-0.1,0.4-0.3,0.6
				c-0.2,0.2-0.4,0.2-0.7,0.2c-0.2,0-0.3,0-0.4-0.1c-0.1-0.1-0.2-0.2-0.4-0.4c-0.2-0.4-0.5-0.6-0.8-0.8c-0.3-0.2-0.6-0.3-1-0.3
				c-0.6,0-1.1,0.2-1.4,0.7c-0.4,0.5-0.5,1.1-0.5,1.9c0,0.4,0,0.7,0.1,1c0.1,0.3,0.2,0.6,0.4,0.8c0.2,0.2,0.4,0.4,0.6,0.5
				c0.2,0.1,0.5,0.2,0.8,0.2c0.4,0,0.7-0.1,1-0.3c0.3-0.2,0.5-0.5,0.8-0.8c0.1-0.2,0.2-0.4,0.4-0.5c0.1-0.1,0.3-0.2,0.5-0.2
				c0.2,0,0.4,0.1,0.6,0.3C115.5,20.5,115.6,20.7,115.6,20.9z"/>
			<path class="st2" d="M124.3,19.4c0,0.6-0.1,1.1-0.3,1.6c-0.2,0.5-0.5,0.9-0.8,1.3c-0.4,0.4-0.8,0.6-1.2,0.8
				c-0.5,0.2-1,0.3-1.6,0.3s-1.1-0.1-1.6-0.3c-0.5-0.2-0.9-0.5-1.2-0.8c-0.3-0.4-0.6-0.8-0.8-1.3c-0.2-0.5-0.3-1-0.3-1.6
				c0-0.6,0.1-1.1,0.3-1.6c0.2-0.5,0.4-0.9,0.8-1.3c0.3-0.4,0.8-0.6,1.2-0.8c0.5-0.2,1-0.3,1.6-0.3s1.1,0.1,1.6,0.3
				c0.5,0.2,0.9,0.5,1.2,0.8c0.4,0.4,0.6,0.8,0.8,1.3S124.3,18.8,124.3,19.4z M122.3,19.4c0-0.8-0.2-1.4-0.5-1.9
				c-0.4-0.4-0.8-0.7-1.4-0.7c-0.4,0-0.7,0.1-1,0.3c-0.3,0.2-0.5,0.5-0.7,0.9s-0.2,0.8-0.2,1.4s0.1,1,0.2,1.3s0.4,0.7,0.7,0.9
				c0.3,0.2,0.6,0.3,1,0.3c0.6,0,1.1-0.2,1.4-0.7C122.1,20.8,122.3,20.2,122.3,19.4z"/>
			<path class="st2" d="M132,19.5v2.6c0,0.4-0.1,0.7-0.3,0.9c-0.2,0.2-0.4,0.3-0.7,0.3c-0.3,0-0.5-0.1-0.7-0.3
				c-0.2-0.2-0.3-0.5-0.3-0.9V19c0-0.5,0-0.9,0-1.2c0-0.3-0.1-0.5-0.3-0.7c-0.1-0.2-0.4-0.3-0.7-0.3c-0.7,0-1.1,0.2-1.3,0.7
				c-0.2,0.4-0.3,1.1-0.3,1.9v2.7c0,0.4-0.1,0.7-0.3,0.9c-0.2,0.2-0.4,0.3-0.7,0.3c-0.3,0-0.5-0.1-0.7-0.3c-0.2-0.2-0.3-0.5-0.3-0.9
				v-5.6c0-0.4,0.1-0.7,0.3-0.9c0.2-0.2,0.4-0.3,0.7-0.3c0.3,0,0.5,0.1,0.7,0.3c0.2,0.2,0.3,0.4,0.3,0.8v0.2
				c0.3-0.4,0.7-0.7,1.1-0.9c0.4-0.2,0.8-0.3,1.3-0.3c0.5,0,0.9,0.1,1.3,0.3c0.4,0.2,0.7,0.5,0.9,0.9c0.3-0.4,0.7-0.7,1.1-0.9
				c0.4-0.2,0.8-0.3,1.3-0.3c0.5,0,1,0.1,1.4,0.3c0.4,0.2,0.7,0.5,0.9,0.9c0.2,0.4,0.3,0.9,0.3,1.7v3.9c0,0.4-0.1,0.7-0.3,0.9
				c-0.2,0.2-0.4,0.3-0.7,0.3c-0.3,0-0.5-0.1-0.7-0.3c-0.2-0.2-0.3-0.5-0.3-0.9v-3.3c0-0.4,0-0.8-0.1-1c0-0.3-0.1-0.5-0.3-0.7
				c-0.2-0.2-0.4-0.3-0.7-0.3c-0.3,0-0.5,0.1-0.7,0.2c-0.2,0.1-0.4,0.4-0.5,0.6C132,18.1,132,18.7,132,19.5z"/>
		</g>
	</g>
</g>
<g id="Grid" class="st94">
</g>
</svg>
