<?xml version="1.0" encoding="utf-8"?>
<!-- Generator: Adobe Illustrator 24.2.0, SVG Export Plug-In . SVG Version: 6.00 Build 0)  -->
<svg version="1.1" xmlns="http://www.w3.org/2000/svg" xmlns:xlink="http://www.w3.org/1999/xlink" x="0px" y="0px"
	 viewBox="0 0 279.5 73.4" style="enable-background:new 0 0 279.5 73.4;" xml:space="preserve">
<style type="text/css">
	.st0{fill:#F9FAFB;}
	.st1{fill:#ECEFF1;}
	.st2{fill:#08C4B3;}
	.st3{opacity:0.15;clip-path:url(#SVGID_2_);}
	.st4{fill:#FFFFFF;}
	.st5{opacity:0.35;clip-path:url(#SVGID_2_);}
	.st6{clip-path:url(#SVGID_4_);fill:#08C4B3;}
	.st7{fill:#F3F3F3;}
	.st8{fill-rule:evenodd;clip-rule:evenodd;fill:#08C4B3;}
	.st9{fill-rule:evenodd;clip-rule:evenodd;fill:#F3F3F3;}
	.st10{opacity:0.25;}
	.st11{fill:none;stroke:#A2A2A2;stroke-width:2;stroke-miterlimit:10;}
	.st12{fill-rule:evenodd;clip-rule:evenodd;}
	.st13{opacity:0.75;}
	.st14{fill:none;stroke:#08C4B3;stroke-miterlimit:10;}
	.st15{fill-rule:evenodd;clip-rule:evenodd;fill:#07A28E;}
	.st16{fill:none;stroke:#FFFFFF;stroke-miterlimit:10;}
	.st17{opacity:0.1;}
	.st18{opacity:0.2;clip-path:url(#SVGID_8_);}
	.st19{opacity:0.2;clip-path:url(#SVGID_10_);}
	.st20{opacity:0.15;clip-path:url(#SVGID_12_);}
	.st21{opacity:0.35;clip-path:url(#SVGID_12_);}
	.st22{opacity:0.15;clip-path:url(#SVGID_16_);}
	.st23{opacity:0.35;clip-path:url(#SVGID_16_);}
	.st24{opacity:0.15;clip-path:url(#SVGID_18_);}
	.st25{opacity:0.35;clip-path:url(#SVGID_18_);}
	.st26{opacity:0.15;clip-path:url(#SVGID_20_);}
	.st27{opacity:0.35;clip-path:url(#SVGID_20_);}
	.st28{opacity:0.15;clip-path:url(#SVGID_28_);}
	.st29{opacity:0.35;clip-path:url(#SVGID_28_);}
	.st30{opacity:0.15;clip-path:url(#SVGID_30_);}
	.st31{opacity:0.35;clip-path:url(#SVGID_30_);}
	.st32{opacity:0.15;clip-path:url(#SVGID_32_);}
	.st33{opacity:0.35;clip-path:url(#SVGID_32_);}
	.st34{fill:#E0E5E7;}
	.st35{opacity:0.35;clip-path:url(#SVGID_34_);}
	.st36{opacity:0.15;clip-path:url(#SVGID_34_);}
	.st37{fill:#272525;}
	.st38{opacity:0.35;clip-path:url(#SVGID_36_);}
	.st39{opacity:0.15;clip-path:url(#SVGID_36_);}
	.st40{opacity:0.35;clip-path:url(#SVGID_38_);}
	.st41{fill:none;stroke:#000000;stroke-miterlimit:10;}
	.st42{fill:#00ABEC;}
	.st43{fill-rule:evenodd;clip-rule:evenodd;fill:#FFFFFF;}
	.st44{fill-rule:evenodd;clip-rule:evenodd;fill:none;stroke:#F3F3F3;stroke-miterlimit:10;}
	
		.st45{fill-rule:evenodd;clip-rule:evenodd;fill:none;stroke:#9B9B9B;stroke-linecap:round;stroke-linejoin:round;stroke-miterlimit:10;}
	.st46{clip-path:url(#SVGID_78_);fill:#08C4B3;}
	.st47{clip-path:url(#SVGID_78_);}
	.st48{fill-rule:evenodd;clip-rule:evenodd;fill:none;stroke:#FFFFFF;stroke-miterlimit:10;}
	.st49{clip-path:url(#SVGID_86_);fill:#08C4B3;}
	.st50{clip-path:url(#SVGID_88_);fill:#FFFFFF;}
	.st51{clip-path:url(#SVGID_90_);fill:#08C4B3;}
	.st52{clip-path:url(#SVGID_90_);}
	.st53{clip-path:url(#SVGID_94_);fill:#08C4B3;}
	.st54{clip-path:url(#SVGID_94_);}
	.st55{opacity:0.15;clip-path:url(#SVGID_98_);}
	.st56{opacity:0.35;clip-path:url(#SVGID_98_);}
	.st57{clip-path:url(#SVGID_100_);fill:#08C4B3;}
	.st58{clip-path:url(#SVGID_100_);}
	.st59{opacity:0.15;clip-path:url(#SVGID_104_);}
	.st60{opacity:0.35;clip-path:url(#SVGID_104_);}
	.st61{clip-path:url(#SVGID_106_);fill:#08C4B3;}
	.st62{clip-path:url(#SVGID_106_);}
	.st63{opacity:0.15;clip-path:url(#SVGID_110_);}
	.st64{opacity:0.35;clip-path:url(#SVGID_110_);}
	.st65{clip-path:url(#SVGID_112_);fill:#08C4B3;}
	.st66{clip-path:url(#SVGID_114_);fill:#FFFFFF;}
	.st67{fill:none;stroke:#FFFFFF;stroke-width:2;stroke-miterlimit:10;}
	.st68{opacity:0.35;clip-path:url(#SVGID_126_);}
	.st69{opacity:0.15;clip-path:url(#SVGID_126_);}
	.st70{opacity:0.35;clip-path:url(#SVGID_128_);}
	.st71{opacity:0.35;clip-path:url(#SVGID_130_);}
	.st72{opacity:0.15;clip-path:url(#SVGID_130_);}
	.st73{opacity:0.35;clip-path:url(#SVGID_132_);}
	.st74{opacity:0.15;clip-path:url(#SVGID_132_);}
	.st75{opacity:0.35;clip-path:url(#SVGID_134_);}
	.st76{opacity:0.15;clip-path:url(#SVGID_134_);}
	.st77{opacity:0.35;clip-path:url(#SVGID_146_);}
	.st78{opacity:0.15;clip-path:url(#SVGID_146_);}
	.st79{fill:none;stroke:#A2A2A2;stroke-miterlimit:10;}
	.st80{opacity:0.35;clip-path:url(#SVGID_148_);}
	.st81{opacity:0.35;clip-path:url(#SVGID_150_);}
	.st82{opacity:0.15;clip-path:url(#SVGID_150_);}
	.st83{clip-path:url(#SVGID_152_);}
	.st84{clip-path:url(#SVGID_152_);fill:#FFFFFF;}
	.st85{opacity:0.35;clip-path:url(#SVGID_162_);}
	.st86{opacity:0.35;clip-path:url(#SVGID_164_);}
	.st87{opacity:0.15;clip-path:url(#SVGID_164_);}
	.st88{opacity:0.35;clip-path:url(#SVGID_166_);}
	.st89{opacity:0.15;clip-path:url(#SVGID_166_);}
	.st90{opacity:0.35;clip-path:url(#SVGID_168_);}
	.st91{opacity:0.15;clip-path:url(#SVGID_168_);}
	.st92{opacity:0.35;clip-path:url(#SVGID_170_);}
	.st93{opacity:0.15;clip-path:url(#SVGID_170_);}
	.st94{display:none;}
	.st95{display:inline;}
	.st96{opacity:0.2;fill:#911127;}
</style>
<g id="Graphic">
	<g>
		<g>
			
				<rect x="33.1" y="32.5" transform="matrix(0.7955 -0.606 0.606 0.7955 -14.4329 31.1761)" class="st8" width="11.7" height="8.9"/>
			<polygon class="st12" points="33.1,67.2 7.6,33.6 7.7,33.6 7.6,33.5 30.6,16 35.9,23.1 19.9,35.2 40.2,61.8 			"/>
			<polygon class="st8" points="68.9,39.9 45.9,57.4 40.6,50.3 56.5,38.2 36.3,11.6 43.4,6.3 68.9,39.8 68.8,39.8 			"/>
		</g>
		<g>
			<path d="M110.7,55.7h-1.4v2.1c0,0.3-0.1,0.5-0.2,0.7c-0.1,0.2-0.3,0.2-0.5,0.2c-0.2,0-0.4-0.1-0.6-0.2c-0.1-0.2-0.2-0.4-0.2-0.7
				v-5.8c0-0.3,0.1-0.6,0.2-0.7c0.2-0.1,0.4-0.2,0.7-0.2h2c0.6,0,1,0,1.3,0.1c0.3,0.1,0.6,0.2,0.8,0.4c0.2,0.2,0.4,0.4,0.5,0.7
				c0.1,0.3,0.2,0.6,0.2,1c0,0.8-0.2,1.4-0.7,1.8C112.4,55.5,111.7,55.7,110.7,55.7z M110.4,52.3h-1v2.3h1c0.4,0,0.7,0,0.9-0.1
				c0.2-0.1,0.4-0.2,0.5-0.4c0.1-0.2,0.2-0.4,0.2-0.7c0-0.3-0.1-0.6-0.3-0.8C111.5,52.4,111.1,52.3,110.4,52.3z"/>
			<path d="M118.8,51c0.8,0,1.5,0.2,2,0.5c0.6,0.3,1,0.8,1.3,1.4c0.3,0.6,0.4,1.3,0.4,2.1c0,0.6-0.1,1.1-0.2,1.6
				c-0.2,0.5-0.4,0.9-0.7,1.2c-0.3,0.4-0.7,0.6-1.2,0.8c-0.5,0.2-1,0.3-1.6,0.3s-1.1-0.1-1.6-0.3c-0.5-0.2-0.9-0.5-1.2-0.8
				c-0.3-0.3-0.5-0.8-0.7-1.2c-0.2-0.5-0.2-1-0.2-1.6c0-0.6,0.1-1.1,0.3-1.6c0.2-0.5,0.4-0.9,0.7-1.2c0.3-0.3,0.7-0.6,1.2-0.8
				C117.8,51.1,118.3,51,118.8,51z M121,54.9c0-0.5-0.1-1-0.3-1.4c-0.2-0.4-0.4-0.7-0.8-0.9c-0.3-0.2-0.7-0.3-1.1-0.3
				c-0.3,0-0.6,0.1-0.8,0.2c-0.3,0.1-0.5,0.3-0.7,0.5c-0.2,0.2-0.3,0.5-0.4,0.8c-0.1,0.3-0.2,0.7-0.2,1.1c0,0.4,0.1,0.8,0.2,1.2
				c0.1,0.3,0.3,0.6,0.5,0.9c0.2,0.2,0.4,0.4,0.7,0.5c0.3,0.1,0.5,0.2,0.8,0.2c0.4,0,0.7-0.1,1.1-0.3c0.3-0.2,0.6-0.5,0.8-0.9
				C120.9,56,121,55.5,121,54.9z"/>
			<path d="M129,52.4h-1.7v5.5c0,0.3-0.1,0.5-0.2,0.7c-0.1,0.2-0.3,0.2-0.5,0.2c-0.2,0-0.4-0.1-0.6-0.2c-0.1-0.2-0.2-0.4-0.2-0.7
				v-5.5h-1.7c-0.3,0-0.5-0.1-0.6-0.2c-0.1-0.1-0.2-0.3-0.2-0.5s0.1-0.3,0.2-0.5c0.1-0.1,0.3-0.2,0.6-0.2h4.9c0.3,0,0.5,0.1,0.6,0.2
				c0.1,0.1,0.2,0.3,0.2,0.5s-0.1,0.3-0.2,0.5C129.5,52.3,129.3,52.4,129,52.4z"/>
			<path d="M136.4,52.3h-3.4v1.9h3.2c0.2,0,0.4,0.1,0.5,0.2c0.1,0.1,0.2,0.2,0.2,0.4s-0.1,0.3-0.2,0.4c-0.1,0.1-0.3,0.2-0.5,0.2
				h-3.2v2.2h3.6c0.2,0,0.4,0.1,0.5,0.2c0.1,0.1,0.2,0.3,0.2,0.4c0,0.2-0.1,0.3-0.2,0.4c-0.1,0.1-0.3,0.2-0.5,0.2h-4.2
				c-0.3,0-0.6-0.1-0.7-0.2c-0.1-0.1-0.2-0.4-0.2-0.7v-5.7c0-0.2,0-0.4,0.1-0.5c0.1-0.1,0.2-0.2,0.3-0.3c0.1-0.1,0.3-0.1,0.5-0.1h4
				c0.2,0,0.4,0.1,0.5,0.2c0.1,0.1,0.2,0.3,0.2,0.4s-0.1,0.3-0.2,0.4C136.8,52.3,136.6,52.3,136.4,52.3z"/>
			<path d="M141.1,51.9l2.9,4.5v-4.5c0-0.3,0.1-0.5,0.2-0.7c0.1-0.1,0.3-0.2,0.5-0.2c0.2,0,0.4,0.1,0.5,0.2c0.1,0.1,0.2,0.4,0.2,0.7
				v5.9c0,0.7-0.3,1-0.8,1c-0.1,0-0.3,0-0.4-0.1c-0.1,0-0.2-0.1-0.3-0.2c-0.1-0.1-0.2-0.2-0.3-0.3c-0.1-0.1-0.2-0.2-0.2-0.3
				l-2.9-4.4v4.4c0,0.3-0.1,0.5-0.2,0.7c-0.1,0.1-0.3,0.2-0.5,0.2c-0.2,0-0.4-0.1-0.5-0.2c-0.1-0.1-0.2-0.4-0.2-0.7v-5.8
				c0-0.3,0-0.4,0.1-0.6c0.1-0.2,0.2-0.3,0.3-0.4c0.1-0.1,0.3-0.1,0.5-0.1c0.1,0,0.3,0,0.4,0.1c0.1,0.1,0.2,0.1,0.3,0.2
				c0.1,0.1,0.1,0.2,0.2,0.3C140.9,51.7,141,51.8,141.1,51.9z"/>
			<path d="M154.2,56.3c0,0.2-0.1,0.5-0.2,0.8c-0.1,0.3-0.3,0.5-0.6,0.8c-0.3,0.3-0.6,0.5-1,0.7c-0.4,0.2-0.9,0.3-1.4,0.3
				c-0.4,0-0.8,0-1.1-0.1c-0.3-0.1-0.6-0.2-0.9-0.3s-0.5-0.4-0.7-0.6c-0.2-0.2-0.4-0.5-0.5-0.8s-0.2-0.6-0.3-0.9
				c-0.1-0.3-0.1-0.7-0.1-1.1c0-0.6,0.1-1.1,0.3-1.6c0.2-0.5,0.4-0.9,0.8-1.2c0.3-0.3,0.7-0.6,1.2-0.8c0.4-0.2,0.9-0.3,1.4-0.3
				c0.6,0,1.2,0.1,1.6,0.4c0.5,0.2,0.8,0.5,1.1,0.9c0.3,0.4,0.4,0.7,0.4,1c0,0.2-0.1,0.3-0.2,0.5c-0.1,0.1-0.3,0.2-0.5,0.2
				c-0.2,0-0.3-0.1-0.4-0.1c-0.1-0.1-0.2-0.3-0.3-0.5c-0.2-0.4-0.4-0.7-0.7-0.8c-0.3-0.2-0.6-0.3-1-0.3c-0.6,0-1.1,0.2-1.5,0.7
				c-0.4,0.5-0.6,1.1-0.6,2c0,0.6,0.1,1.1,0.3,1.5c0.2,0.4,0.4,0.7,0.7,0.9c0.3,0.2,0.7,0.3,1.1,0.3c0.4,0,0.8-0.1,1.1-0.3
				s0.5-0.5,0.7-1c0.1-0.2,0.1-0.4,0.2-0.5c0.1-0.1,0.3-0.2,0.5-0.2c0.2,0,0.3,0.1,0.5,0.2C154.1,55.9,154.2,56.1,154.2,56.3z"/>
			<path d="M156.3,57.9v-5.9c0-0.3,0.1-0.5,0.2-0.7c0.1-0.2,0.3-0.2,0.5-0.2c0.2,0,0.4,0.1,0.6,0.2c0.1,0.1,0.2,0.4,0.2,0.7v5.9
				c0,0.3-0.1,0.5-0.2,0.7c-0.1,0.2-0.3,0.2-0.6,0.2c-0.2,0-0.4-0.1-0.5-0.2C156.4,58.4,156.3,58.2,156.3,57.9z"/>
			<path d="M165,57.8l-0.4-0.9h-3.1l-0.4,1c-0.1,0.4-0.3,0.6-0.4,0.8c-0.1,0.1-0.3,0.2-0.5,0.2c-0.2,0-0.4-0.1-0.5-0.2
				c-0.1-0.1-0.2-0.3-0.2-0.5c0-0.1,0-0.2,0.1-0.3c0-0.1,0.1-0.3,0.2-0.5l1.9-4.9c0.1-0.1,0.1-0.3,0.2-0.5s0.2-0.4,0.2-0.5
				c0.1-0.1,0.2-0.2,0.3-0.3c0.1-0.1,0.3-0.1,0.5-0.1s0.4,0,0.5,0.1c0.1,0.1,0.3,0.2,0.3,0.3c0.1,0.1,0.2,0.3,0.2,0.4
				c0.1,0.1,0.1,0.3,0.2,0.6l2,4.9c0.2,0.4,0.2,0.6,0.2,0.8s-0.1,0.3-0.2,0.5c-0.1,0.1-0.3,0.2-0.5,0.2c-0.1,0-0.2,0-0.3-0.1
				c-0.1,0-0.2-0.1-0.2-0.2c-0.1-0.1-0.1-0.2-0.2-0.3C165.1,58.1,165.1,57.9,165,57.8z M162,55.7h2.3l-1.1-3.1L162,55.7z"/>
			<path d="M176,52.4h-1.7v5.5c0,0.3-0.1,0.5-0.2,0.7c-0.1,0.2-0.3,0.2-0.5,0.2c-0.2,0-0.4-0.1-0.6-0.2c-0.1-0.2-0.2-0.4-0.2-0.7
				v-5.5h-1.7c-0.3,0-0.5-0.1-0.6-0.2c-0.1-0.1-0.2-0.3-0.2-0.5s0.1-0.3,0.2-0.5c0.1-0.1,0.3-0.2,0.6-0.2h4.9c0.3,0,0.5,0.1,0.6,0.2
				c0.1,0.1,0.2,0.3,0.2,0.5s-0.1,0.3-0.2,0.5C176.5,52.3,176.3,52.4,176,52.4z"/>
			<path d="M178.4,55.6v-3.6c0-0.3,0.1-0.5,0.2-0.7c0.1-0.2,0.3-0.2,0.5-0.2s0.4,0.1,0.6,0.2c0.1,0.2,0.2,0.4,0.2,0.7v3.7
				c0,0.4,0.1,0.8,0.1,1.1c0.1,0.3,0.3,0.5,0.5,0.7s0.6,0.2,1,0.2c0.6,0,1-0.2,1.3-0.5c0.2-0.3,0.4-0.8,0.4-1.4v-3.7
				c0-0.3,0.1-0.5,0.2-0.7c0.1-0.2,0.3-0.2,0.5-0.2s0.4,0.1,0.6,0.2c0.1,0.1,0.2,0.4,0.2,0.7v3.6c0,0.6-0.1,1.1-0.2,1.5
				c-0.1,0.4-0.3,0.7-0.7,1c-0.3,0.3-0.6,0.4-1,0.5c-0.4,0.1-0.8,0.2-1.3,0.2c-0.6,0-1.1-0.1-1.5-0.2c-0.4-0.1-0.8-0.3-1-0.6
				c-0.3-0.3-0.5-0.6-0.6-1C178.4,56.6,178.4,56.1,178.4,55.6z"/>
			<path d="M194.7,52.3h-3.4v1.9h3.2c0.2,0,0.4,0.1,0.5,0.2c0.1,0.1,0.2,0.2,0.2,0.4s-0.1,0.3-0.2,0.4c-0.1,0.1-0.3,0.2-0.5,0.2
				h-3.2v2.2h3.6c0.2,0,0.4,0.1,0.5,0.2c0.1,0.1,0.2,0.3,0.2,0.4c0,0.2-0.1,0.3-0.2,0.4c-0.1,0.1-0.3,0.2-0.5,0.2h-4.2
				c-0.3,0-0.6-0.1-0.7-0.2c-0.1-0.1-0.2-0.4-0.2-0.7v-5.7c0-0.2,0-0.4,0.1-0.5c0.1-0.1,0.2-0.2,0.3-0.3c0.1-0.1,0.3-0.1,0.5-0.1h4
				c0.2,0,0.4,0.1,0.5,0.2c0.1,0.1,0.2,0.3,0.2,0.4s-0.1,0.3-0.2,0.4C195.1,52.3,194.9,52.3,194.7,52.3z"/>
			<path d="M203.8,56.3c0,0.2-0.1,0.5-0.2,0.8c-0.1,0.3-0.3,0.5-0.6,0.8c-0.3,0.3-0.6,0.5-1,0.7c-0.4,0.2-0.9,0.3-1.4,0.3
				c-0.4,0-0.8,0-1.1-0.1c-0.3-0.1-0.6-0.2-0.9-0.3s-0.5-0.4-0.7-0.6c-0.2-0.2-0.4-0.5-0.5-0.8s-0.2-0.6-0.3-0.9
				c-0.1-0.3-0.1-0.7-0.1-1.1c0-0.6,0.1-1.1,0.3-1.6c0.2-0.5,0.4-0.9,0.8-1.2c0.3-0.3,0.7-0.6,1.2-0.8c0.4-0.2,0.9-0.3,1.4-0.3
				c0.6,0,1.2,0.1,1.6,0.4c0.5,0.2,0.8,0.5,1.1,0.9c0.3,0.4,0.4,0.7,0.4,1c0,0.2-0.1,0.3-0.2,0.5c-0.1,0.1-0.3,0.2-0.5,0.2
				c-0.2,0-0.3-0.1-0.4-0.1c-0.1-0.1-0.2-0.3-0.3-0.5c-0.2-0.4-0.4-0.7-0.7-0.8c-0.3-0.2-0.6-0.3-1-0.3c-0.6,0-1.1,0.2-1.5,0.7
				c-0.4,0.5-0.6,1.1-0.6,2c0,0.6,0.1,1.1,0.3,1.5c0.2,0.4,0.4,0.7,0.7,0.9c0.3,0.2,0.7,0.3,1.1,0.3c0.4,0,0.8-0.1,1.1-0.3
				s0.5-0.5,0.7-1c0.1-0.2,0.1-0.4,0.2-0.5c0.1-0.1,0.3-0.2,0.5-0.2c0.2,0,0.3,0.1,0.5,0.2C203.7,55.9,203.8,56.1,203.8,56.3z"/>
			<path d="M209.2,51c0.8,0,1.5,0.2,2,0.5c0.6,0.3,1,0.8,1.3,1.4c0.3,0.6,0.4,1.3,0.4,2.1c0,0.6-0.1,1.1-0.2,1.6s-0.4,0.9-0.7,1.2
				c-0.3,0.4-0.7,0.6-1.2,0.8c-0.5,0.2-1,0.3-1.6,0.3c-0.6,0-1.1-0.1-1.6-0.3c-0.5-0.2-0.9-0.5-1.2-0.8c-0.3-0.3-0.5-0.8-0.7-1.2
				c-0.2-0.5-0.2-1-0.2-1.6c0-0.6,0.1-1.1,0.3-1.6c0.2-0.5,0.4-0.9,0.7-1.2c0.3-0.3,0.7-0.6,1.2-0.8C208.1,51.1,208.6,51,209.2,51z
				 M211.3,54.9c0-0.5-0.1-1-0.3-1.4c-0.2-0.4-0.4-0.7-0.8-0.9c-0.3-0.2-0.7-0.3-1.1-0.3c-0.3,0-0.6,0.1-0.8,0.2
				c-0.3,0.1-0.5,0.3-0.7,0.5c-0.2,0.2-0.3,0.5-0.4,0.8c-0.1,0.3-0.2,0.7-0.2,1.1c0,0.4,0.1,0.8,0.2,1.2c0.1,0.3,0.3,0.6,0.5,0.9
				c0.2,0.2,0.4,0.4,0.7,0.5c0.3,0.1,0.5,0.2,0.8,0.2c0.4,0,0.7-0.1,1.1-0.3c0.3-0.2,0.6-0.5,0.8-0.9
				C211.2,56,211.3,55.5,211.3,54.9z"/>
			<path d="M216.9,51.9l2.9,4.5v-4.5c0-0.3,0.1-0.5,0.2-0.7c0.1-0.1,0.3-0.2,0.5-0.2c0.2,0,0.4,0.1,0.5,0.2c0.1,0.1,0.2,0.4,0.2,0.7
				v5.9c0,0.7-0.3,1-0.8,1c-0.1,0-0.3,0-0.4-0.1c-0.1,0-0.2-0.1-0.3-0.2c-0.1-0.1-0.2-0.2-0.3-0.3c-0.1-0.1-0.2-0.2-0.2-0.3
				l-2.9-4.4v4.4c0,0.3-0.1,0.5-0.2,0.7c-0.1,0.1-0.3,0.2-0.5,0.2s-0.4-0.1-0.5-0.2c-0.1-0.1-0.2-0.4-0.2-0.7v-5.8
				c0-0.3,0-0.4,0.1-0.6c0.1-0.2,0.2-0.3,0.3-0.4c0.1-0.1,0.3-0.1,0.5-0.1c0.1,0,0.3,0,0.4,0.1c0.1,0.1,0.2,0.1,0.3,0.2
				c0.1,0.1,0.1,0.2,0.2,0.3C216.7,51.7,216.8,51.8,216.9,51.9z"/>
			<path d="M226.9,51c0.8,0,1.5,0.2,2,0.5c0.6,0.3,1,0.8,1.3,1.4c0.3,0.6,0.4,1.3,0.4,2.1c0,0.6-0.1,1.1-0.2,1.6
				c-0.2,0.5-0.4,0.9-0.7,1.2c-0.3,0.4-0.7,0.6-1.2,0.8c-0.5,0.2-1,0.3-1.6,0.3c-0.6,0-1.1-0.1-1.6-0.3c-0.5-0.2-0.9-0.5-1.2-0.8
				c-0.3-0.3-0.5-0.8-0.7-1.2s-0.2-1-0.2-1.6c0-0.6,0.1-1.1,0.3-1.6c0.2-0.5,0.4-0.9,0.7-1.2c0.3-0.3,0.7-0.6,1.2-0.8
				C225.8,51.1,226.3,51,226.9,51z M229,54.9c0-0.5-0.1-1-0.3-1.4c-0.2-0.4-0.4-0.7-0.8-0.9c-0.3-0.2-0.7-0.3-1.1-0.3
				c-0.3,0-0.6,0.1-0.8,0.2c-0.3,0.1-0.5,0.3-0.7,0.5c-0.2,0.2-0.3,0.5-0.4,0.8c-0.1,0.3-0.2,0.7-0.2,1.1c0,0.4,0.1,0.8,0.2,1.2
				c0.1,0.3,0.3,0.6,0.5,0.9c0.2,0.2,0.4,0.4,0.7,0.5c0.3,0.1,0.5,0.2,0.8,0.2c0.4,0,0.7-0.1,1.1-0.3c0.3-0.2,0.6-0.5,0.8-0.9
				C228.9,56,229,55.5,229,54.9z"/>
			<path d="M235.1,57.5l-1.2-4.8v5.2c0,0.3-0.1,0.5-0.2,0.6c-0.1,0.1-0.3,0.2-0.5,0.2c-0.2,0-0.4-0.1-0.5-0.2
				c-0.1-0.1-0.2-0.4-0.2-0.7v-6c0-0.3,0.1-0.6,0.3-0.7c0.2-0.1,0.4-0.2,0.7-0.2h0.5c0.3,0,0.5,0,0.6,0.1s0.2,0.1,0.3,0.3
				c0.1,0.1,0.1,0.3,0.2,0.7l1.1,4.1l1.1-4.1c0.1-0.3,0.1-0.5,0.2-0.7c0.1-0.1,0.2-0.2,0.3-0.3s0.3-0.1,0.6-0.1h0.5
				c0.3,0,0.5,0.1,0.7,0.2c0.2,0.1,0.3,0.3,0.3,0.7v6c0,0.3-0.1,0.5-0.2,0.6c-0.1,0.1-0.3,0.2-0.5,0.2c-0.2,0-0.4-0.1-0.5-0.2
				c-0.1-0.1-0.2-0.4-0.2-0.6v-5.2l-1.2,4.8c-0.1,0.3-0.1,0.5-0.2,0.7c-0.1,0.1-0.1,0.3-0.3,0.4c-0.1,0.1-0.3,0.2-0.6,0.2
				c-0.2,0-0.3,0-0.5-0.1c-0.1-0.1-0.2-0.2-0.3-0.3c-0.1-0.1-0.1-0.3-0.2-0.4C235.2,57.8,235.2,57.7,235.1,57.5z"/>
			<path d="M243.1,49.2h0.7c0.2,0,0.3,0,0.3,0.1c0,0-0.1,0.1-0.3,0.3c-0.2,0.2-0.4,0.4-0.6,0.6c-0.2,0.2-0.3,0.3-0.4,0.3
				c-0.2,0.1-0.4,0.1-0.6,0.1c-0.1,0-0.2,0-0.2-0.1c0-0.1,0-0.2,0.1-0.3l0.2-0.4c0.1-0.3,0.3-0.4,0.3-0.5
				C242.7,49.2,242.9,49.2,243.1,49.2z M242.1,57.9v-5.9c0-0.3,0.1-0.5,0.2-0.7c0.1-0.2,0.3-0.2,0.5-0.2c0.2,0,0.4,0.1,0.6,0.2
				c0.1,0.1,0.2,0.4,0.2,0.7v5.9c0,0.3-0.1,0.5-0.2,0.7c-0.1,0.2-0.3,0.2-0.6,0.2c-0.2,0-0.4-0.1-0.5-0.2
				C242.2,58.4,242.1,58.2,242.1,57.9z"/>
			<path d="M250.8,57.8l-0.4-0.9h-3.1l-0.4,1c-0.1,0.4-0.3,0.6-0.4,0.8c-0.1,0.1-0.3,0.2-0.5,0.2c-0.2,0-0.4-0.1-0.5-0.2
				c-0.1-0.1-0.2-0.3-0.2-0.5c0-0.1,0-0.2,0.1-0.3c0-0.1,0.1-0.3,0.2-0.5l1.9-4.9c0.1-0.1,0.1-0.3,0.2-0.5c0.1-0.2,0.2-0.4,0.2-0.5
				c0.1-0.1,0.2-0.2,0.3-0.3c0.1-0.1,0.3-0.1,0.5-0.1c0.2,0,0.4,0,0.5,0.1c0.1,0.1,0.3,0.2,0.3,0.3c0.1,0.1,0.2,0.3,0.2,0.4
				c0.1,0.1,0.1,0.3,0.2,0.6l2,4.9c0.2,0.4,0.2,0.6,0.2,0.8s-0.1,0.3-0.2,0.5c-0.1,0.1-0.3,0.2-0.5,0.2c-0.1,0-0.2,0-0.3-0.1
				c-0.1,0-0.2-0.1-0.2-0.2c-0.1-0.1-0.1-0.2-0.2-0.3C250.9,58.1,250.9,57.9,250.8,57.8z M247.8,55.7h2.3l-1.1-3.1L247.8,55.7z"/>
			<path d="M90.4,21.1h1v-1.2c0-1.3,0.2-2.3,0.5-3.1c0.3-0.7,0.9-1.3,1.7-1.6c0.8-0.3,1.8-0.5,3.2-0.5c2.4,0,3.6,0.6,3.6,1.8
				c0,0.4-0.1,0.7-0.4,1c-0.3,0.2-0.6,0.4-0.9,0.4c-0.2,0-0.4,0-0.8-0.1c-0.4-0.1-0.7-0.1-1-0.1c-0.7,0-1.2,0.2-1.5,0.7
				c-0.2,0.4-0.3,1.1-0.3,1.9v1h1c1.6,0,2.4,0.5,2.4,1.4c0,0.7-0.2,1.1-0.6,1.3c-0.4,0.2-1,0.3-1.7,0.3h-1v11c0,0.8-0.2,1.4-0.6,1.9
				c-0.4,0.4-0.9,0.7-1.5,0.7c-0.6,0-1.1-0.2-1.5-0.7c-0.4-0.4-0.6-1.1-0.6-1.9v-11h-1.2c-0.6,0-1.1-0.2-1.4-0.4
				c-0.3-0.3-0.5-0.7-0.5-1.1C88.3,21.6,89,21.1,90.4,21.1z"/>
			<path d="M102.7,18.8c-0.6,0-1.1-0.2-1.5-0.5c-0.4-0.3-0.6-0.9-0.6-1.5c0-0.6,0.2-1.1,0.6-1.5c0.4-0.4,0.9-0.6,1.5-0.6
				c0.6,0,1,0.2,1.4,0.5c0.4,0.4,0.6,0.9,0.6,1.5c0,0.6-0.2,1.1-0.6,1.5C103.7,18.6,103.2,18.8,102.7,18.8z M104.7,23.1v12
				c0,0.8-0.2,1.5-0.6,1.9c-0.4,0.4-0.9,0.7-1.5,0.7c-0.6,0-1.1-0.2-1.5-0.7c-0.4-0.4-0.6-1.1-0.6-1.9V23.2c0-0.8,0.2-1.5,0.6-1.9
				c0.4-0.4,0.9-0.6,1.5-0.6c0.6,0,1.1,0.2,1.5,0.6S104.7,22.4,104.7,23.1z"/>
			<path d="M111.9,23.1v0.5c0.7-1,1.5-1.7,2.4-2.1c0.9-0.5,1.9-0.7,3-0.7c1.1,0,2.1,0.2,2.9,0.7c0.9,0.5,1.5,1.2,1.9,2
				c0.3,0.5,0.5,1.1,0.5,1.6c0.1,0.6,0.1,1.3,0.1,2.2v7.7c0,0.8-0.2,1.5-0.6,1.9c-0.4,0.4-0.9,0.7-1.5,0.7c-0.6,0-1.1-0.2-1.5-0.7
				c-0.4-0.4-0.6-1.1-0.6-1.9v-6.9c0-1.4-0.2-2.4-0.6-3.1c-0.4-0.7-1.2-1.1-2.3-1.1c-0.7,0-1.4,0.2-2,0.7c-0.6,0.4-1.1,1.1-1.3,1.8
				c-0.2,0.6-0.3,1.7-0.3,3.5v5.2c0,0.8-0.2,1.5-0.6,1.9c-0.4,0.4-0.9,0.6-1.5,0.6c-0.6,0-1.1-0.2-1.5-0.7c-0.4-0.4-0.6-1.1-0.6-1.9
				v-12c0-0.8,0.2-1.4,0.5-1.8c0.3-0.4,0.8-0.6,1.4-0.6c0.4,0,0.7,0.1,1,0.2c0.3,0.2,0.5,0.4,0.7,0.8
				C111.8,22.1,111.9,22.6,111.9,23.1z"/>
			<path d="M136.5,35.3c-1,0.8-2,1.4-2.9,1.7c-0.9,0.4-2,0.6-3.1,0.6c-1.1,0-2-0.2-2.8-0.6c-0.8-0.4-1.4-1-1.9-1.7
				c-0.4-0.7-0.7-1.5-0.7-2.3c0-1.2,0.4-2.1,1.1-2.9c0.7-0.8,1.7-1.3,3-1.6c0.3-0.1,0.9-0.2,2-0.4c1.1-0.2,1.9-0.4,2.7-0.6
				c0.7-0.2,1.6-0.4,2.4-0.7c-0.1-1.1-0.3-1.9-0.7-2.4c-0.4-0.5-1.2-0.8-2.4-0.8c-1.1,0-1.8,0.2-2.4,0.4c-0.6,0.3-1,0.7-1.4,1.3
				c-0.4,0.6-0.7,1-0.8,1.2c-0.2,0.2-0.5,0.3-1,0.3c-0.5,0-0.9-0.2-1.2-0.5c-0.3-0.3-0.5-0.7-0.5-1.1c0-0.7,0.2-1.5,0.8-2.1
				c0.5-0.7,1.3-1.2,2.4-1.7c1.1-0.4,2.5-0.7,4.1-0.7c1.8,0,3.3,0.2,4.3,0.7c1.1,0.4,1.8,1.1,2.2,2c0.4,0.9,0.7,2.2,0.7,3.7
				c0,1,0,1.8,0,2.5c0,0.7,0,1.4,0,2.3c0,0.8,0.1,1.6,0.4,2.4c0.2,0.8,0.4,1.4,0.4,1.6c0,0.4-0.2,0.8-0.6,1.2
				c-0.4,0.3-0.9,0.5-1.4,0.5c-0.4,0-0.8-0.2-1.3-0.6C137.4,36.6,136.9,36,136.5,35.3z M136.2,29.3c-0.6,0.2-1.5,0.5-2.6,0.7
				c-1.2,0.2-2,0.4-2.4,0.5c-0.5,0.1-0.9,0.3-1.3,0.7c-0.4,0.3-0.6,0.8-0.6,1.4s0.2,1.2,0.7,1.6c0.5,0.4,1.1,0.7,1.9,0.7
				c0.8,0,1.6-0.2,2.3-0.5c0.7-0.4,1.2-0.8,1.5-1.4c0.4-0.6,0.6-1.7,0.6-3.1V29.3z"/>
			<path d="M147.3,23.1v0.5c0.7-1,1.5-1.7,2.4-2.1c0.9-0.5,1.9-0.7,3-0.7c1.1,0,2.1,0.2,2.9,0.7c0.9,0.5,1.5,1.2,1.9,2
				c0.3,0.5,0.5,1.1,0.5,1.6c0.1,0.6,0.1,1.3,0.1,2.2v7.7c0,0.8-0.2,1.5-0.6,1.9c-0.4,0.4-0.9,0.7-1.5,0.7s-1.1-0.2-1.5-0.7
				c-0.4-0.4-0.6-1.1-0.6-1.9v-6.9c0-1.4-0.2-2.4-0.6-3.1s-1.2-1.1-2.3-1.1c-0.7,0-1.4,0.2-2,0.7c-0.6,0.4-1.1,1.1-1.3,1.8
				c-0.2,0.6-0.3,1.7-0.3,3.5v5.2c0,0.8-0.2,1.5-0.6,1.9c-0.4,0.4-0.9,0.6-1.5,0.6c-0.6,0-1.1-0.2-1.5-0.7c-0.4-0.4-0.6-1.1-0.6-1.9
				v-12c0-0.8,0.2-1.4,0.5-1.8c0.3-0.4,0.8-0.6,1.4-0.6c0.4,0,0.7,0.1,1,0.2c0.3,0.2,0.5,0.4,0.7,0.8
				C147.2,22.1,147.3,22.6,147.3,23.1z"/>
			<path d="M176.3,32.5c0,0.5-0.2,1.1-0.5,1.6c-0.3,0.6-0.8,1.2-1.4,1.7c-0.6,0.5-1.4,1-2.4,1.3c-1,0.3-2.1,0.5-3.3,0.5
				c-2.5,0-4.5-0.7-6-2.2c-1.5-1.5-2.2-3.5-2.2-6c0-1.7,0.3-3.2,1-4.5c0.7-1.3,1.6-2.3,2.9-3c1.2-0.7,2.7-1.1,4.4-1.1
				c1.1,0,2.1,0.2,3,0.5c0.9,0.3,1.7,0.7,2.3,1.2c0.6,0.5,1.1,1,1.4,1.6c0.3,0.6,0.5,1.1,0.5,1.6s-0.2,0.9-0.5,1.3
				c-0.4,0.3-0.8,0.5-1.4,0.5c-0.3,0-0.6-0.1-0.8-0.2c-0.2-0.2-0.5-0.5-0.8-0.9c-0.5-0.8-1-1.3-1.6-1.7c-0.6-0.4-1.2-0.6-2.1-0.6
				c-1.2,0-2.2,0.5-3,1.4c-0.7,1-1.1,2.3-1.1,3.9c0,0.8,0.1,1.5,0.3,2.1c0.2,0.7,0.5,1.2,0.8,1.7s0.8,0.8,1.3,1
				c0.5,0.2,1.1,0.4,1.7,0.4c0.8,0,1.6-0.2,2.1-0.6c0.6-0.4,1.1-1,1.6-1.7c0.2-0.5,0.5-0.8,0.8-1.1c0.3-0.3,0.7-0.4,1.1-0.4
				c0.5,0,0.9,0.2,1.2,0.6C176.2,31.6,176.3,32,176.3,32.5z"/>
			<path d="M181.1,18.8c-0.6,0-1.1-0.2-1.5-0.5c-0.4-0.3-0.6-0.9-0.6-1.5c0-0.6,0.2-1.1,0.6-1.5c0.4-0.4,0.9-0.6,1.5-0.6
				s1,0.2,1.4,0.5c0.4,0.4,0.6,0.9,0.6,1.5c0,0.6-0.2,1.1-0.6,1.5C182.2,18.6,181.7,18.8,181.1,18.8z M183.2,23.1v12
				c0,0.8-0.2,1.5-0.6,1.9c-0.4,0.4-0.9,0.7-1.5,0.7c-0.6,0-1.1-0.2-1.5-0.7c-0.4-0.4-0.6-1.1-0.6-1.9V23.2c0-0.8,0.2-1.5,0.6-1.9
				c0.4-0.4,0.9-0.6,1.5-0.6c0.6,0,1.1,0.2,1.5,0.6C183,21.8,183.2,22.4,183.2,23.1z"/>
			<path d="M197.1,35.3c-1,0.8-2,1.4-2.9,1.7c-0.9,0.4-2,0.6-3.1,0.6c-1.1,0-2-0.2-2.8-0.6c-0.8-0.4-1.4-1-1.9-1.7
				c-0.4-0.7-0.7-1.5-0.7-2.3c0-1.2,0.4-2.1,1.1-2.9c0.7-0.8,1.7-1.3,3-1.6c0.3-0.1,0.9-0.2,2-0.4c1.1-0.2,1.9-0.4,2.7-0.6
				c0.7-0.2,1.6-0.4,2.4-0.7c-0.1-1.1-0.3-1.9-0.7-2.4c-0.4-0.5-1.2-0.8-2.4-0.8c-1.1,0-1.8,0.2-2.4,0.4c-0.6,0.3-1,0.7-1.4,1.3
				c-0.4,0.6-0.7,1-0.8,1.2s-0.5,0.3-1,0.3c-0.5,0-0.9-0.2-1.2-0.5c-0.3-0.3-0.5-0.7-0.5-1.1c0-0.7,0.2-1.5,0.8-2.1
				c0.5-0.7,1.3-1.2,2.4-1.7c1.1-0.4,2.5-0.7,4.1-0.7c1.8,0,3.3,0.2,4.3,0.7c1.1,0.4,1.8,1.1,2.2,2c0.4,0.9,0.7,2.2,0.7,3.7
				c0,1,0,1.8,0,2.5c0,0.7,0,1.4,0,2.3c0,0.8,0.1,1.6,0.4,2.4c0.2,0.8,0.4,1.4,0.4,1.6c0,0.4-0.2,0.8-0.6,1.2
				c-0.4,0.3-0.9,0.5-1.4,0.5c-0.4,0-0.8-0.2-1.3-0.6C198,36.6,197.5,36,197.1,35.3z M196.8,29.3c-0.6,0.2-1.5,0.5-2.6,0.7
				c-1.2,0.2-2,0.4-2.4,0.5c-0.5,0.1-0.9,0.3-1.3,0.7c-0.4,0.3-0.6,0.8-0.6,1.4s0.2,1.2,0.7,1.6c0.5,0.4,1.1,0.7,1.9,0.7
				c0.8,0,1.6-0.2,2.3-0.5c0.7-0.4,1.2-0.8,1.5-1.4c0.4-0.6,0.6-1.7,0.6-3.1V29.3z"/>
			<path class="st2" d="M206.9,37.6c-0.6,0-1.2-0.2-1.6-0.6c-0.5-0.4-0.7-1-0.7-1.7c0-0.6,0.2-1.2,0.7-1.6c0.4-0.4,1-0.7,1.6-0.7
				c0.6,0,1.2,0.2,1.6,0.7c0.5,0.4,0.7,1,0.7,1.6c0,0.7-0.2,1.3-0.7,1.7C208,37.4,207.5,37.6,206.9,37.6z"/>
			<path class="st2" d="M227.9,32.5c0,0.5-0.2,1.1-0.5,1.6c-0.3,0.6-0.8,1.2-1.4,1.7c-0.6,0.5-1.4,1-2.4,1.3c-1,0.3-2.1,0.5-3.3,0.5
				c-2.5,0-4.5-0.7-6-2.2c-1.5-1.5-2.2-3.5-2.2-6c0-1.7,0.3-3.2,1-4.5c0.7-1.3,1.6-2.3,2.9-3c1.2-0.7,2.7-1.1,4.4-1.1
				c1.1,0,2.1,0.2,3,0.5c0.9,0.3,1.7,0.7,2.3,1.2s1.1,1,1.4,1.6c0.3,0.6,0.5,1.1,0.5,1.6s-0.2,0.9-0.5,1.3c-0.4,0.3-0.8,0.5-1.4,0.5
				c-0.3,0-0.6-0.1-0.8-0.2c-0.2-0.2-0.5-0.5-0.8-0.9c-0.5-0.8-1-1.3-1.6-1.7c-0.6-0.4-1.2-0.6-2.1-0.6c-1.2,0-2.2,0.5-3,1.4
				c-0.7,1-1.1,2.3-1.1,3.9c0,0.8,0.1,1.5,0.3,2.1c0.2,0.7,0.5,1.2,0.8,1.7s0.8,0.8,1.3,1c0.5,0.2,1.1,0.4,1.7,0.4
				c0.8,0,1.6-0.2,2.1-0.6c0.6-0.4,1.1-1,1.6-1.7c0.2-0.5,0.5-0.8,0.8-1.1c0.3-0.3,0.7-0.4,1.1-0.4c0.5,0,0.9,0.2,1.2,0.6
				C227.7,31.6,227.9,32,227.9,32.5z"/>
			<path class="st2" d="M246.1,29.2c0,1.2-0.2,2.4-0.6,3.4c-0.4,1-1,1.9-1.7,2.7c-0.7,0.7-1.6,1.3-2.6,1.7c-1,0.4-2.1,0.6-3.4,0.6
				s-2.4-0.2-3.4-0.6c-1-0.4-1.9-1-2.6-1.7c-0.7-0.7-1.3-1.6-1.7-2.6c-0.4-1.1-0.6-2.2-0.6-3.4s0.2-2.4,0.6-3.5
				c0.4-1,0.9-1.9,1.6-2.7c0.7-0.7,1.6-1.3,2.6-1.7s2.1-0.6,3.4-0.6c1.2,0,2.4,0.2,3.4,0.6s1.9,1,2.6,1.7c0.7,0.7,1.3,1.6,1.7,2.7
				S246.1,27.9,246.1,29.2z M241.9,29.2c0-1.7-0.4-3-1.1-3.9c-0.7-0.9-1.7-1.4-3-1.4c-0.8,0-1.5,0.2-2.1,0.6
				c-0.6,0.4-1.1,1.1-1.4,1.9s-0.5,1.8-0.5,2.9c0,1.1,0.2,2,0.5,2.8s0.8,1.4,1.4,1.9c0.6,0.4,1.3,0.7,2.2,0.7c1.2,0,2.2-0.5,3-1.4
				C241.6,32.2,241.9,30.9,241.9,29.2z"/>
			<path class="st2" d="M262.2,29.5V35c0,0.9-0.2,1.5-0.6,2c-0.4,0.4-0.9,0.7-1.6,0.7c-0.6,0-1.2-0.2-1.5-0.7
				c-0.4-0.4-0.6-1.1-0.6-2v-6.6c0-1.1,0-1.9-0.1-2.5c-0.1-0.6-0.3-1-0.6-1.4s-0.8-0.6-1.5-0.6c-1.4,0-2.2,0.5-2.7,1.4
				s-0.7,2.3-0.7,4V35c0,0.9-0.2,1.5-0.6,2c-0.4,0.4-0.9,0.7-1.5,0.7s-1.2-0.2-1.6-0.7c-0.4-0.4-0.6-1.1-0.6-2V23.2
				c0-0.8,0.2-1.4,0.5-1.8c0.4-0.4,0.8-0.6,1.4-0.6c0.6,0,1,0.2,1.4,0.6c0.4,0.4,0.6,0.9,0.6,1.6v0.4c0.7-0.8,1.5-1.5,2.3-1.9
				c0.8-0.4,1.7-0.6,2.7-0.6c1.1,0,1.9,0.2,2.7,0.6c0.8,0.4,1.4,1,1.9,1.9c0.7-0.8,1.5-1.5,2.2-1.9c0.8-0.4,1.7-0.6,2.7-0.6
				c1.1,0,2.1,0.2,2.9,0.7c0.8,0.5,1.4,1.1,1.8,1.9c0.3,0.7,0.5,1.9,0.5,3.5V35c0,0.9-0.2,1.5-0.6,2c-0.4,0.4-0.9,0.7-1.6,0.7
				c-0.6,0-1.2-0.2-1.6-0.7c-0.4-0.4-0.6-1.1-0.6-2v-7c0-0.9,0-1.6-0.1-2.1c-0.1-0.5-0.3-1-0.6-1.4c-0.3-0.3-0.8-0.5-1.5-0.5
				c-0.6,0-1.1,0.2-1.6,0.5c-0.5,0.3-0.9,0.7-1.2,1.3C262.4,26.5,262.2,27.7,262.2,29.5z"/>
		</g>
	</g>
</g>
<g id="Grid" class="st94">
	<g class="st95">
		<rect x="-61.9" y="-6733.3" class="st96" width="82.2" height="9172"/>
		<rect x="47" y="-6733.3" class="st96" width="82.2" height="9172"/>
		<rect x="155.8" y="-6733.3" class="st96" width="82.2" height="9172"/>
		<rect x="264.7" y="-6733.3" class="st96" width="82.2" height="9172"/>
	</g>
</g>
</svg>
